<?xml version="1.0" encoding="utf-8"?><!-- Uploaded to: SVG Repo, www.svgrepo.com, Generator: SVG Repo Mixer Tools -->
<svg fill="#000000" width="800px" height="800px" viewBox="0 0 32 32" version="1.1" xmlns="http://www.w3.org/2000/svg">
    <path d="M 31.707 30.282 l -8.845 -8.899 c 1.894 -2.262 3.034 -5.18 3.034 -8.366 c 0 -7.189 -5.797 -13.018 -12.986 -13.018 s -13.017 5.828 -13.017 13.017 s 5.828 13.017 13.017 13.017 c 3.282 0 6.271 -1.218 8.553 -3.221 l 8.829 8.884 c 0.39 0.39 1.024 0.39 1.414 0 s 0.391 -1.024 0 -1.415 z M 12.893 24 c -6.048 0 -11 -4.951 -11 -11 s 4.952 -11 11 -11 c 6.048 0 11 4.952 11 11 s -4.951 11 -11 11 z h -4 h 4 z"></path>
	<path d="M 8 8 L 4 19 L 3 18 L 7 7 L 8 8"></path>
	<path d="M 18 8 L 14 19 L 13 18 L 17 7 L 18 8"></path>
	<path d="M 5 18 A 1 1 0 0 0 6 19 A 1 1 0 0 0 7 18 A 1 1 0 0 0 6 17 A 1 1 0 0 0 5 18 "></path>
	<path d="M 8 18 A 1 1 0 0 0 9 19 A 1 1 0 0 0 10 18 A 1 1 0 0 0 9 17 A 1 1 0 0 0 8 18 "></path>
	<path d="M 11 18 A 1 1 0 0 0 12 19 A 1 1 0 0 0 13 18 A 1 1 0 0 0 12 17 A 1 1 0 0 0 11 18 "></path>
	<path d="M 15 18 A 1 1 0 0 0 16 19 A 1 1 0 0 0 17 18 A 1 1 0 0 0 16 17 A 1 1 0 0 0 15 18 "></path>
	<path d="M 18 18 A 1 1 0 0 0 19 19 A 1 1 0 0 0 20 18 A 1 1 0 0 0 19 17 A 1 1 0 0 0 18 18 "></path>
	<path d="M 21 18 A 1 1 0 0 0 22 19 A 1 1 0 0 0 23 18 A 1 1 0 0 0 22 17 A 1 1 0 0 0 21 18 "></path>
</svg>