<?xml version="1.0" encoding="utf-8"?>
<!-- Generator: Adobe Illustrator 28.4.1, SVG Export Plug-In . SVG Version: 6.00 Build 0)  -->
<svg version="1.1" id="Layer_1" xmlns="http://www.w3.org/2000/svg" xmlns:xlink="http://www.w3.org/1999/xlink" x="0px" y="0px"
	 viewBox="0 0 800 800" style="enable-background:new 0 0 800 800;" xml:space="preserve">
<style type="text/css">
	.st0{fill:none;stroke:#23A24D;stroke-width:66.6667;stroke-linecap:round;stroke-miterlimit:133.3333;}
	.st1{fill:none;stroke:#000000;stroke-width:66.6667;stroke-linecap:round;stroke-miterlimit:133.3333;}
	.st2{stroke:#000000;stroke-width:50;stroke-linecap:round;stroke-miterlimit:133.3333;}
	.st3{fill:none;stroke:#494C4E;stroke-width:66.6667;stroke-linecap:round;stroke-miterlimit:133.3333;}
</style>
<path class="st0" d="M420,300h267.6c39.6,0,71.8,32.1,71.8,71.8v296.4c0,39.6-32,71.7-71.6,71.8H338.4c-39.6,0-71.8-32.1-71.8-71.8
	c0,0,0,0,0-0.1V507.4"/>
<path class="st1" d="M145,506.6H141c-40.1,0.2-73.1-31.7-74.3-71.8V138.4c0-39.6,32.1-71.8,71.7-71.8c0,0,0,0,0,0h382.7
	c39.6,0,71.8,32.1,71.8,71.8c0,0,0,0,0,0.1v32.1"/>
<path class="st2" d="M242.8,283.3l200,200"/>
<path class="st3" d="M0,0"/>
<path d="M437.9,430.9l31.7-32c4.2-4.1,9.7-6.4,15.6-6.4c12.1,0.2,21.9,9.9,22.1,22.1v110.3c0,12.2-9.9,22-22.1,22.1H375
	c-8.9,0-17-5.4-20.3-13.7c-3.4-8.2-1.6-17.6,4.6-24l32-31.8l7.5-7.7L437.9,430.9z"/>
</svg>
