<?xml version="1.0" encoding="utf-8"?>
<!-- Generator: Adobe Illustrator 28.4.1, SVG Export Plug-In . SVG Version: 6.00 Build 0)  -->
<svg version="1.1" id="Layer_1" xmlns="http://www.w3.org/2000/svg" xmlns:xlink="http://www.w3.org/1999/xlink" x="0px" y="0px"
	 viewBox="0 0 800 800" style="enable-background:new 0 0 800 800;" xml:space="preserve">
<style type="text/css">
	.st0{fill:none;stroke:#000000;stroke-width:66.6667;stroke-miterlimit:133.3333;}
</style>
<path class="st0" d="M633.3,333.3V200c0-18.4-14.9-33.3-33.3-33.3H334.5c-10.1,0-19.7-4.6-26-12.5L275,112.5
	c-6.3-7.9-15.9-12.5-26-12.5H100c-18.4,0-33.3,14.9-33.3,33.3V500c0,18.4,14.9,33.3,33.3,33.3h66.7"/>
<path class="st0" d="M166.7,666.7V300c0-18.4,14.9-33.3,33.3-33.3h149c10.1,0,19.7,4.6,26,12.5l33.5,41.7c6.3,7.9,15.9,12.5,26,12.5
	H700c18.4,0,33.3,14.9,33.3,33.3v300c0,18.4-14.9,33.3-33.3,33.3H200C181.6,700,166.7,685.1,166.7,666.7z"/>
</svg>
