<?xml version="1.0" encoding="utf-8"?>
<!-- Uploaded to: SVG Repo, www.svgrepo.com, Generator: SVG Repo Mixer Tools -->
<svg width="800px" height="800px" viewBox="0 0 24 24" fill="none" xmlns="http://www.w3.org/2000/svg">
<g opacity="0.2"><rect x="0" y="0" width="24" height="24" fill="#FFFFFF"/></g>

<g clip-path="url(#clip0_429_11154)">
<path d="M 9 20 C 12 20 13 18 13 16 V 9 C 13 7 12 5 9 5 C 6 5 5 7 5 9 V 16 C 5 18 6 20 9 20 Z" stroke="#000000" stroke-width="2.5" stroke-linejoin="round"/>
</g>
<defs>
<clipPath id="clip0_429_11154">
<rect width="24" height="24" fill="white"/>
</clipPath>
</defs>

<path d="M16.3,18.7c0.2,0.2,0.5,0.3,0.7,0.3s0.5-0.1,0.7-0.3l2-2c0.4-0.4,0.4-1,0-1.4s-1-0.4-1.4,0L18,15.6V6c0-0.6-0.4-1-1-1   s-1,0.4-1,1v9.6l-0.3-0.3c-0.4-0.4-1-0.4-1.4,0s-0.4,1,0,1.4L16.3,18.7z" fill="#000000"/>

</svg>