<?xml version="1.0" encoding="utf-8"?>
<!-- Generator: Adobe Illustrator 28.4.1, SVG Export Plug-In . SVG Version: 6.00 Build 0)  -->
<svg version="1.1" id="Layer_1" xmlns="http://www.w3.org/2000/svg" xmlns:xlink="http://www.w3.org/1999/xlink" x="0px" y="0px"
	 viewBox="0 0 800 800" style="enable-background:new 0 0 800 800;" xml:space="preserve">
<style type="text/css">
	.st0{fill:none;stroke:#404040;stroke-width:50;stroke-miterlimit:66.6667;}
	.st1{fill:none;stroke:#000000;stroke-width:50;stroke-miterlimit:66.6667;}
	.st2{fill:none;stroke:#000000;stroke-width:25;stroke-linejoin:bevel;stroke-miterlimit:125;}
	.st3{fill:none;stroke:#000000;stroke-width:25;stroke-miterlimit:125;}
</style>
<path class="st0" d="M197.2,512.5L67,642.6c-4,4-4.9,9.6-2,12.5l78.7,78.7c2.9,2.9,8.5,2,12.5-2l130.1-130.1c4-4,4.9-9.6,2-12.5
	l-78.7-78.7C206.7,507.6,201.1,508.5,197.2,512.5z"/>
<path class="st1" d="M472,343.2L341.8,473.4c-4,4-4.9,9.6-2,12.5l78.7,78.7c2.9,2.9,8.5,2,12.5-2l130.1-130.1c4-4,4.9-9.6,2-12.5
	l-78.7-78.7C481.5,338.4,475.9,339.3,472,343.2z"/>
<path class="st0" d="M643.8,68.2L513.7,198.3c-4,4-4.9,9.6-2,12.5l78.7,78.7c2.9,2.9,8.5,2,12.5-2L733,157.4c4-4,4.9-9.6,2-12.5
	l-78.7-78.7C653.4,63.3,647.8,64.2,643.8,68.2z"/>
<g>
	<polyline class="st2" points="286.7,267.6 206.2,206.2 267.6,286.7 	"/>
	<g>
		<line class="st3" x1="206.2" y1="206.2" x2="378.4" y2="378.4"/>
	</g>
</g>
</svg>
