<?xml version="1.0"?>
<svg width="16" height="16" xmlns="http://www.w3.org/2000/svg" xmlns:svg="http://www.w3.org/2000/svg">
 <g class="layer">
  <title>Layer 1</title>
  <path clip-rule="evenodd" d="m6,2.984l0,-0.984l-0.09,0c-0.313,0 -0.616,0.062 -0.909,0.185a2.33,2.33 0 0 0 -0.775,0.53a2.23,2.23 0 0 0 -0.493,0.753l0,0.001a3.542,3.542 0 0 0 -0.198,0.83l0,0.002a6.08,6.08 0 0 0 -0.024,0.863c0.012,0.29 0.018,0.58 0.018,0.869c0,0.203 -0.04,0.393 -0.117,0.572l0,0.001a1.504,1.504 0 0 1 -0.765,0.787a1.376,1.376 0 0 1 -0.558,0.115l-0.089,0l0,0.984l0.09,0c0.195,0 0.38,0.04 0.556,0.121l0.001,0.001c0.178,0.078 0.329,0.184 0.455,0.318l0.002,0.002c0.13,0.13 0.233,0.285 0.307,0.465l0.001,0.002c0.078,0.18 0.117,0.368 0.117,0.566c0,0.29 -0.006,0.58 -0.018,0.869c-0.012,0.296 -0.004,0.585 0.024,0.87l0,0.001c0.033,0.283 0.099,0.558 0.197,0.824l0,0.001c0.106,0.273 0.271,0.524 0.494,0.753c0.223,0.23 0.482,0.407 0.775,0.53c0.293,0.123 0.596,0.185 0.91,0.185l0.089,0l0,-0.984l-0.09,0c-0.2,0 -0.387,-0.038 -0.563,-0.115a1.613,1.613 0 0 1 -0.457,-0.32a1.659,1.659 0 0 1 -0.309,-0.467c-0.074,-0.18 -0.11,-0.37 -0.11,-0.573c0,-0.228 0.003,-0.453 0.011,-0.672c0.008,-0.228 0.008,-0.45 0,-0.665a4.639,4.639 0 0 0 -0.055,-0.64a2.682,2.682 0 0 0 -0.168,-0.609a2.284,2.284 0 0 0 -0.737,-0.955a2.284,2.284 0 0 0 0.738,-0.955c0.08,-0.192 0.135,-0.393 0.168,-0.602c0.033,-0.21 0.051,-0.423 0.055,-0.64c0.008,-0.22 0.008,-0.442 0,-0.666c-0.008,-0.224 -0.012,-0.45 -0.012,-0.678a1.47,1.47 0 0 1 0.877,-1.354a1.33,1.33 0 0 1 0.563,-0.121l0.089,0zm4,10.032l0,0.984l0.09,0c0.313,0 0.616,-0.062 0.909,-0.185c0.293,-0.123 0.552,-0.3 0.775,-0.53c0.223,-0.23 0.388,-0.48 0.493,-0.753l0,-0.001c0.1,-0.266 0.165,-0.543 0.198,-0.83l0,-0.002c0.028,-0.28 0.036,-0.567 0.024,-0.863c-0.012,-0.29 -0.018,-0.58 -0.018,-0.869c0,-0.203 0.04,-0.393 0.117,-0.572l0,-0.001a1.502,1.502 0 0 1 0.765,-0.787a1.38,1.38 0 0 1 0.558,-0.115l0.089,0l0,-0.984l-0.09,0c-0.196,0 -0.381,-0.04 -0.557,-0.121l-0.001,-0.001a1.376,1.376 0 0 1 -0.455,-0.318l-0.002,-0.002a1.415,1.415 0 0 1 -0.307,-0.465l0,-0.002a1.405,1.405 0 0 1 -0.118,-0.566c0,-0.29 0.006,-0.58 0.018,-0.869a6.174,6.174 0 0 0 -0.024,-0.87l0,-0.001a3.537,3.537 0 0 0 -0.197,-0.824l0,-0.001a2.23,2.23 0 0 0 -0.494,-0.753a2.331,2.331 0 0 0 -0.775,-0.53a2.325,2.325 0 0 0 -0.91,-0.185l-0.088,0l0,0.984l0.09,0c0.2,0 0.387,0.038 0.562,0.115c0.174,0.082 0.326,0.188 0.457,0.32c0.127,0.134 0.23,0.29 0.309,0.467c0.074,0.18 0.11,0.37 0.11,0.573c0,0.228 -0.003,0.452 -0.011,0.672c-0.008,0.228 -0.008,0.45 0,0.665c0.004,0.222 0.022,0.435 0.055,0.64c0.033,0.214 0.089,0.416 0.168,0.609a2.285,2.285 0 0 0 0.738,0.955a2.285,2.285 0 0 0 -0.738,0.955a2.689,2.689 0 0 0 -0.168,0.602c-0.033,0.21 -0.051,0.423 -0.055,0.64a9.15,9.15 0 0 0 0,0.666c0.008,0.224 0.012,0.45 0.012,0.678a1.471,1.471 0 0 1 -0.877,1.354a1.33,1.33 0 0 1 -0.563,0.121l-0.089,0z" fill="#696969" fill-rule="evenodd" id="svg_1"/>
  <path d="m1.760168,2.312703l1.873037,-3.425954l1.873037,3.425954l-0.936519,0l0,3.442439l-1.873037,0l0,-3.442439l-0.936519,0z" fill="#00FF00" id="svg_2" stroke="#00FF00" stroke-width="0" transform="rotate(-90 3.63321 2.32095)"/>
 </g>
</svg>