<?xml version="1.0" encoding="utf-8"?>
<!-- Generator: Adobe Illustrator 28.4.1, SVG Export Plug-In . SVG Version: 6.00 Build 0)  -->
<svg version="1.1" id="Layer_1" xmlns="http://www.w3.org/2000/svg" xmlns:xlink="http://www.w3.org/1999/xlink" x="0px" y="0px"
	 viewBox="0 0 800 800" style="enable-background:new 0 0 800 800;" xml:space="preserve">
<style type="text/css">
	.st0{fill:none;stroke:#000000;stroke-width:30;stroke-linecap:round;stroke-linejoin:round;stroke-miterlimit:133.3333;}
	.st1{font-family:'Stencil';}
	.st2{font-size:221.6077px;}
	.st3{fill:none;stroke:#000000;stroke-width:10;stroke-linecap:round;stroke-linejoin:round;stroke-miterlimit:133.3333;}
</style>
<path class="st0" d="M249.7,117.6H98.5c-5.6,0-10.1,4.5-10.1,10.1v624.8c0,5.6,4.5,10.1,10.1,10.1h151.2 M491.5,117.6h151.2
	c5.6,0,10.1,4.5,10.1,10.1v151.2"/>
<path class="st0" d="M487.6,735.7l-88.1,17.6l17.6-88.1c1.6-7.8,5.4-15,11-20.6l164.2-164.2l80.6-80.6l80.1,80.1l-80.6,80.6
	L508.2,724.7C502.5,730.3,495.4,734.2,487.6,735.7z"/>
<path class="st0" d="M249.7,117.6c0-44.5,36.1-80.6,80.6-80.6h80.6c44.5,0,80.6,36.1,80.6,80.6v80.6H249.7V117.6z"/>
<text id="svg_4" transform="matrix(1.097 0 0 1 144.5107 398.6953)" class="st1 st2">aka</text>
<path class="st3" d="M163.8,432.1H595"/>
<path class="st3" d="M163.8,510H487"/>
<path class="st3" d="M163.8,598h235.6"/>
</svg>
