<?xml version="1.0"?>
<svg width="24" height="24" xmlns="http://www.w3.org/2000/svg" xmlns:svg="http://www.w3.org/2000/svg">
 <g class="layer">
  <title>Layer 1</title>
  <path clip-rule="evenodd" d="m9.98966,10.91c0.45854,-0.301 1.07604,-0.3559 1.61514,-0.0216l3.3716,2.0901c0.5372,0.3331 0.7736,0.9089 0.7736,1.4317c0,0.5228 -0.2364,1.0986 -0.7736,1.4316l-3.3716,2.0902c-0.5391,0.3342 -1.1566,0.2794 -1.61514,-0.0217c-0.45066,-0.2959 -0.73966,-0.8169 -0.73966,-1.41l0,-4.1803c0,-0.593 0.289,-1.1141 0.73966,-1.41zm0.82324,1.2539c-0.0184,0.0121 -0.0629,0.0564 -0.0629,0.1561l0,4.1803c0,0.0997 0.0445,0.144 0.0629,0.1561l0.0013,0.0008l3.3718,-2.0903c0.0212,-0.0131 0.064,-0.0584 0.064,-0.1567c0,-0.0984 -0.0428,-0.1437 -0.064,-0.1568l-3.3715,-2.0901l-0.0016,0.0006z" fill="#696969" fill-rule="evenodd" id="svg_1"/>
  <path clip-rule="evenodd" d="m8.69935,1.25001c-0.21985,-0.00006 -0.38841,-0.00011 -0.53576,0.0157c-1.35416,0.14533 -2.39064,1.25733 -2.45354,2.60436c-1.19088,0.35552 -2.03947,1.45743 -2.05477,2.72123c-0.60083,0.18034 -1.11907,0.46476 -1.54332,0.92302c-0.65199,0.70425 -0.85404,1.57217 -0.86173,2.58598c-0.0074,0.9747 0.16628,2.2064 0.38196,3.736l0.43899,3.1136c0.16861,1.1961 0.30558,2.1677 0.51871,2.9291c0.22297,0.7966 0.55163,1.452 1.16014,1.9559c0.60369,0.4998 1.3199,0.7153 2.16644,0.8169c0.81854,0.0982 1.84827,0.0982 3.13035,0.0982l5.90628,0c1.2821,0 2.3119,0 3.1304,-0.0982c0.8466,-0.1016 1.5628,-0.3171 2.1665,-0.8169c0.6085,-0.5039 0.9371,-1.1593 1.1601,-1.9559c0.2131,-0.7614 0.3501,-1.733 0.5187,-2.9291l0.439,-3.1136c0.2157,-1.5296 0.3894,-2.7613 0.382,-3.736c-0.0077,-1.01381 -0.2098,-1.88173 -0.8618,-2.58598c-0.4243,-0.45837 -0.9427,-0.74281 -1.5437,-0.92314c-0.0154,-1.26368 -0.8638,-2.36547 -2.0546,-2.72105c-0.0629,-1.34706 -1.0994,-2.45909 -2.4535,-2.60442c-0.1474,-0.01581 -0.3159,-0.01576 -0.5358,-0.0157l-6.60105,0zm10.11115,5.0778c-0.1371,-0.60763 -0.6799,-1.0778 -1.3488,-1.0778l-10.92383,0c-0.66891,0 -1.21169,0.47018 -1.34885,1.07784c0.92579,-0.07786 2.06071,-0.07785 3.42692,-0.07784l6.76806,0c1.366,-0.00001 2.5008,-0.00002 3.4265,0.0778zm-2.0428,-2.5778c-0.1066,-0.52368 -0.5414,-0.93381 -1.0916,-0.99286c-0.0563,-0.00604 -0.1365,-0.00714 -0.4173,-0.00714l-6.51781,0c-0.28086,0 -0.36106,0.0011 -0.41734,0.00714c-0.55021,0.05905 -0.98503,0.46918 -1.09155,0.99286l9.5356,0zm-13.55503,4.78335c0.3029,-0.32718 0.75839,-0.54419 1.64345,-0.66191c0.90114,-0.11986 2.10745,-0.12144 3.81627,-0.12144l6.65521,0c1.7088,0 2.9151,0.00158 3.8163,0.12144c0.885,0.11772 1.3405,0.33473 1.6434,0.66191c0.2959,0.31957 0.4563,0.75446 0.4625,1.57834c0.0065,0.8501 -0.1496,1.9711 -0.376,3.5766l-0.4229,3c-0.1778,1.2608 -0.3023,2.1327 -0.4853,2.7864c-0.1762,0.6295 -0.3836,0.9658 -0.6722,1.2048c-0.2935,0.243 -0.6876,0.3989 -1.3886,0.483c-0.7187,0.0863 -1.6583,0.0875 -3.0002,0.0875l-5.80924,0c-1.34189,0 -2.28143,-0.0012 -3.00017,-0.0875c-0.70102,-0.0841 -1.09505,-0.24 -1.38855,-0.483c-0.28869,-0.239 -0.49606,-0.5753 -0.67227,-1.2048c-0.18297,-0.6537 -0.30747,-1.5256 -0.48524,-2.7864l-0.42297,-3c-0.22635,-1.6055 -0.38243,-2.7265 -0.37598,-3.5766c0.00626,-0.82388 0.16663,-1.25877 0.46249,-1.57834z" fill="#808080" fill-rule="evenodd" id="svg_2"/>
  <path d="m15.843755,5.960653l-1.468755,-3.365073l-1.468755,3.365073l0.734378,0l0,3.381265l1.468755,0l0,-3.381265l0.734378,0z" fill="#00ffff" id="E0FFFF" stroke="#E0FFFF" stroke-width="5" transform="rotate(90 14.375 5.96875)"/>
  <path d="m14.303133,5.962025l-2.187505,-3.365073l-2.187505,3.365073l1.093753,0l0,3.381265l2.187505,0l0,-3.381265l1.093753,0z" fill="#000000" id="E0FFFF" stroke="#00CED1" stroke-width="2" transform="rotate(90 12.1156 5.97012)"/>
 </g>
</svg>
