<?xml version="1.0" encoding="utf-8"?><!-- Uploaded to: SVG Repo, www.svgrepo.com, Generator: SVG Repo Mixer Tools -->
<svg width="800px" height="800px" viewBox="0 0 32 32" xmlns="http://www.w3.org/2000/svg">
<title>folder_type_log_opened</title>
<rect x="5" y="4" width="21" height="24" style="fill:#00bd02"/>
<rect x="5.7" y="4.7" width="20" height="22.5" style="fill:#fff"/>
<rect x="5" y="4.7" width="21" height="2.5" style="fill:#00bd02"/>

<rect x="12" y="13.837" width="6.376" height="0.781" style="fill:#00bd02"/>
<rect x="12" y="15.853" width="9.758" height="0.781" style="fill:#00bd02"/>
<rect x="12" y="17.935" width="8.288" height="0.781" style="fill:#00bd02"/>
<rect x="12" y="20.147" width="11.06" height="0.781" style="fill:#00bd02"/>
<rect x="12" y="22.424" width="7.677" height="0.781" style="fill:#00bd02"/>
<rect x="12" y="24.44" width="9.498" height="0.781" style="fill:#00bd02"/>

<rect x="7" y="13.837" width="3.5" height="0.781" style="fill:#00bd02"/>
<rect x="7" y="15.853" width="3.5" height="0.781" style="fill:#00bd02"/>
<rect x="7" y="15.853" width="3.5" height="0.781" style="fill:#00bd02"/>
<rect x="7" y="17.87"  width="3.5" height="0.781" style="fill:#00bd02"/>
<rect x="7" y="19.887" width="3.5" height="0.781" style="fill:#00bd02"/>
<rect x="7" y="22.424" width="3.5" height="0.781" style="fill:#00bd02"/>
<rect x="7" y="24.44"  width="3.5" height="0.781" style="fill:#00bd02"/>

</svg>