<?xml version="1.0" encoding="utf-8"?>
<!-- Generator: Adobe Illustrator 25.4.1, SVG Export Plug-In . SVG Version: 6.00 Build 0)  -->
<svg version="1.1" id="Layer_1" xmlns="http://www.w3.org/2000/svg" xmlns:xlink="http://www.w3.org/1999/xlink" x="0px" y="0px"
	 viewBox="0 0 24 24" style="enable-background:new 0 0 24 24;" xml:space="preserve">
<style type="text/css">
	.st0{fill:none;stroke:#000000;stroke-width:1;}
	.st1{stroke:#3F3F3F;stroke-width:1.2;}
	.st2{fill:none;stroke:#000000;stroke-width:1.2;}
	.st3{font-family:'MyriadPro-Regular';}
	.st4{font-size:3.3177px;}
</style>
<path class="st0" d="M3.9,1.3H19c0.7,0,1.3,0.6,1.3,1.3v17.6c0,0.7-0.6,1.3-1.3,1.3H3.9c-0.7,0-1.3-0.6-1.3-1.3V2.6
	C2.7,1.9,3.2,1.3,3.9,1.3z"/>
<circle cx="13.4" cy="5.4" r="0.2"/>
<line class="st1" x1="14" y1="5" x2="17" y2="5"/>
<line class="st2" x1="7" y1="7.2" x2="18" y2="7.2"/>
<circle class="st2" cx="14.6" cy="16.5" r="3"/>
<line class="st2" x1="16.2" y1="18.5" x2="18.2" y2="20.5"/>
<text transform="matrix(1.1413 0 0 1 5 18.0156)" class="st3 st4">Log</text>
<line class="st1" x1="11" y1="5" x2="13" y2="5"/>
<line class="st1" x1="8" y1="5" x2="10" y2="5"/>
<circle cx="13.4" cy="9.8" r="0.2"/>
<line class="st1" x1="14" y1="9.4" x2="17" y2="9.4"/>
<line class="st2" x1="7" y1="11.6" x2="18" y2="11.6"/>
<line class="st1" x1="11" y1="9.4" x2="13" y2="9.4"/>
<line class="st1" x1="8" y1="9.4" x2="10" y2="9.4"/>
<line class="st1" x1="5" y1="5" x2="7" y2="5"/>
<line class="st1" x1="5" y1="9.5" x2="7" y2="9.5"/>
</svg>
