<svg xmlns="http://www.w3.org/2000/svg" viewBox="1634 440 16 16">  <g id="timerBlack" transform="translate(1442 360)">    <circle id="Fill1" fill="white" cx="6.5" cy="6.5" r="6.5" transform="translate(193.5 82.5)"/>    <rect id="Fill2" fill="white" width="1" height="5" transform="translate(199 85)"/>    <rect id="Fill3" fill="white" width="3" height="1" transform="translate(200 89)"/>    <path fill="black" d="M12.867-13.094a7.928,7.928,0,0,1,1.625,2.324A6.646,6.646,0,0,1,15.063-8a6.89,6.89,0,0,1-.25,1.863,7,7,0,0,1-.707,1.672,7.032,7.032,0,0,1-1.094,1.414A7.032,7.032,0,0,1,11.6-1.957a7,7,0,0,1-1.672.707A6.89,6.89,0,0,1,8.063-1,6.89,6.89,0,0,1,6.2-1.25a7,7,0,0,1-1.672-.707A7.032,7.032,0,0,1,3.113-3.051,7.032,7.032,0,0,1,2.02-4.465a7,7,0,0,1-.707-1.672A6.89,6.89,0,0,1,1.063-8,6.869,6.869,0,0,1,1.27-9.687a7.078,7.078,0,0,1,.586-1.547,6.957,6.957,0,0,1,.918-1.348,7.1,7.1,0,0,1,1.2-1.1,6.958,6.958,0,0,1,1.445-.8,6.941,6.941,0,0,1,1.641-.445V-16h-2v-1h5v1h-2v1a7.059,7.059,0,0,1,2.113.32,6.664,6.664,0,0,1,1.91.953l1.625-1.625.7.7ZM8.063-2a5.8,5.8,0,0,0,2.332-.473A6.1,6.1,0,0,0,12.3-3.762,6.1,6.1,0,0,0,13.59-5.668,5.8,5.8,0,0,0,14.063-8a5.8,5.8,0,0,0-.473-2.332A6.1,6.1,0,0,0,12.3-12.238a6.1,6.1,0,0,0-1.906-1.289A5.8,5.8,0,0,0,8.063-14a5.8,5.8,0,0,0-2.332.473,6.1,6.1,0,0,0-1.906,1.289,6.1,6.1,0,0,0-1.289,1.906A5.8,5.8,0,0,0,2.063-8a5.8,5.8,0,0,0,.473,2.332A6.1,6.1,0,0,0,3.824-3.762,6.1,6.1,0,0,0,5.73-2.473,5.8,5.8,0,0,0,8.063-2Z" transform="translate(191.938 97)"/>  </g></svg>