<svg width="16" height="16" viewBox="0 0 16 16" xmlns="http://www.w3.org/2000/svg">
<path style="fill: #000000" d="M 11 7.394 L 13.0177 9.4109 L 12.4109 10.0169 L 11.4286 9.0346 V 12.2857 H 8 V 11.4286 H 10.5714 V 9.0346 L 9.5891 10.0169 L 8.9823 9.4109 L 11 7.394 Z M 15 4 V 9 H 14 V 4 H 12 V 2 H 9 V 8 H 8 V 1 H 13 L 15 3 Z M 14 3 L 13 2 V 3 H 14 Z M 2 12.2857 H 7.1429 V 11.4286 H 2 V 12.2857 Z M 2 14 H 7.1429 V 13.1429 H 2 V 14 Z M 2 10.5714 H 7.1429 V 9.7143 H 2 V 10.5714 Z"/>
<path style="fill: #007ACC" d="M11 7.38538L13.0177 9.40223L12.4109 10.0082L11.4286 9.02595V12.2771H8V11.4199H10.5714V9.02595L9.58914 10.0082L8.98229 9.40223L11 7.38538Z"/>
</svg>
