<?xml version="1.0" encoding="utf-8"?>
<!-- Generator: Adobe Illustrator 28.4.1, SVG Export Plug-In . SVG Version: 6.00 Build 0)  -->
<svg version="1.1" id="Layer_1" xmlns="http://www.w3.org/2000/svg" xmlns:xlink="http://www.w3.org/1999/xlink" x="0px" y="0px"
	 viewBox="0 0 800 800" style="enable-background:new 0 0 800 800;" xml:space="preserve">
<style type="text/css">
	.st0{fill:none;stroke:#000000;stroke-width:50;stroke-linecap:round;stroke-linejoin:round;stroke-miterlimit:133.3333;}
</style>
<line class="st0" x1="66.7" y1="578.7" x2="733.3" y2="578.7"/>
<path class="st0" d="M166.7,578.7V185.3c0-3.7,3-6.7,6.7-6.7H260c3.7,0,6.7,3,6.7,6.7v393.3"/>
<path class="st0" d="M366.7,578.7V54.2c0-4.9,3-8.9,6.7-8.9H460c3.7,0,6.7,4,6.7,8.9v524.4"/>
<path class="st0" d="M566.7,578.7v-295c0-2.8,3-5,6.7-5H660c3.7,0,6.7,2.2,6.7,5v295"/>
<path d="M500.6,778.2H462l-10.1-31.4h-57.9l-10,31.4h-38.4L402.8,621h41.9L500.6,778.2z M442.5,715.4L426,663.2
	c-1.3-4-2.2-8.7-2.7-14.1h-0.9c-0.3,4.6-1.2,9.2-2.8,13.7l-16.8,52.6H442.5z M166.7,778.2V621h57.5c17.6,0,31.2,3.2,40.6,9.6
	c9.5,6.4,14.2,15.4,14.2,27.1c0,8.4-2.9,15.8-8.6,22.2c-5.8,6.3-13.1,10.7-22.1,13.2v0.5c11.4,1.4,20.4,5.5,27.2,12.4
	c6.8,6.9,10.2,15.3,10.2,25.2c0,14.5-5.2,25.9-15.6,34.4c-10.4,8.5-24.6,12.7-42.6,12.7H166.7z M199.6,648v35.9h15.2
	c7.1,0,12.7-1.7,16.8-5.1c4.1-3.4,6.1-8.1,6.1-14.1c0-11.1-8.4-16.7-25.2-16.7H199.6z M199.6,710.9v40.4h19c8.1,0,14.4-1.9,19-5.6
	c4.6-3.7,6.9-8.8,6.9-15.2c0-6.1-2.3-10.9-6.8-14.4c-4.5-3.5-10.8-5.2-18.9-5.2H199.6z"/>
</svg>
