<svg width="16" height="16" viewBox="0 0 16 16" xmlns="http://www.w3.org/2000/svg">
<path d="M12.1011 12.3841C11.984 12.5012 11.794 12.5012 11.6769 12.3841L3.61587 4.32305C3.49871 4.20589 3.49871 4.01594 3.61587 3.89878L3.89871 3.61594C4.01587 3.49878 4.20582 3.49878 4.32297 3.61594L12.384 11.677C12.5011 11.7941 12.5011 11.9841 12.384 12.1012L12.1011 12.3841Z" fill="#7B818F"/>
<path d="M3.61594 12.1011C3.49878 11.984 3.49878 11.794 3.61594 11.6769L11.677 3.61587C11.7941 3.49871 11.9841 3.49871 12.1012 3.61587L12.3841 3.89871C12.5012 4.01587 12.5012 4.20582 12.3841 4.32297L4.32304 12.384C4.20589 12.5011 4.01594 12.5011 3.89878 12.384L3.61594 12.1011Z" fill="#7B818F"/>
</svg>
