<?xml version="1.0" encoding="utf-8"?><!-- Uploaded to: SVG Repo, www.svgrepo.com, Generator: SVG Repo Mixer Tools -->
<svg width="24" height="24" viewBox="0 0 24 24" fill="none" xmlns="http://www.w3.org/2000/svg">
<g opacity="0.3"><rect x="0" y="0" width="24" height="24" fill="#FFFFFF"/></g>
  <path
    d="M9.17154 16.8182L7.75732 18.2324L12 22.475L16.2426 18.2324L14.8284 16.8182L12 19.6466L9.17154 16.8182Z"
    fill="#000000"
  />
  <path
    d="M14.8284 7.182L16.2426 5.76779L12 1.52515L7.75733 5.76779L9.17155 7.182L12 4.35357L14.8284 7.182Z"
    fill="#000000"
  />

    <path
    d="M7.18188 9.17154L5.76766 7.75732L1.52502 12L5.76766 16.2426L7.18188 14.8284L4.35345 12L7.18188 9.17154Z"
    fill="#000000"
  />
  <path
    d="M16.8181 14.8284L18.2323 16.2426L22.4749 12L18.2323 7.75733L16.8181 9.17155L19.6465 12L16.8181 14.8284Z"
    fill="#000000"
  />
  <!-- 上下顶点连接线 -->
  <path
    d="M12 5.52515L12 18.47485"
    stroke="#000000"
  />
  <!-- 左右顶点连接线 -->
  <path
    d="M5.52502 12L18.4749 12"
    stroke="#000000"
  />
</svg>