<svg width="322.401" height="150.402" viewBox="0 0 322.401 150.402" xmlns="http://www.w3.org/2000/svg"><g id="svgGroup" stroke-linecap="round" fill-rule="evenodd" font-size="9pt" stroke="#000" stroke-width="0.25mm" fill="#000" style="stroke:#000;stroke-width:0.25mm;fill:#000"><path d="M 0 94.8 L 0 8 L 19 8 L 19 91.8 A 78.963 78.963 0 0 0 19.801 103.421 Q 20.723 109.606 22.707 114.626 A 35.311 35.311 0 0 0 27.2 122.8 Q 35.4 133.8 51.8 133.8 A 42.771 42.771 0 0 0 61.808 132.702 A 26.909 26.909 0 0 0 77.2 123.1 A 34.763 34.763 0 0 0 82.793 112.31 Q 85.6 103.709 85.6 91.8 L 85.6 8 L 104 8 L 104 94 Q 104 111.6 97.5 124.3 A 47.183 47.183 0 0 1 86.262 138.792 A 44.856 44.856 0 0 1 79.3 143.7 A 50.047 50.047 0 0 1 62.178 149.608 A 65.631 65.631 0 0 1 51.8 150.4 A 65.413 65.413 0 0 1 35.789 148.55 A 44.984 44.984 0 0 1 13.8 136 A 46.638 46.638 0 0 1 2.883 116.707 Q 0.721 109.463 0.18 100.762 A 96.193 96.193 0 0 1 0 94.8 Z M 126 139.6 L 133.6 124.6 Q 138.8 129 146.7 131.9 A 48.146 48.146 0 0 0 161.922 134.775 A 54.929 54.929 0 0 0 163.6 134.8 Q 174.8 134.8 180.5 131.1 A 14.898 14.898 0 0 0 183.567 128.514 A 10.105 10.105 0 0 0 186.2 121.6 A 14.246 14.246 0 0 0 185.572 117.305 A 12.424 12.424 0 0 0 184.1 114.2 A 12.769 12.769 0 0 0 182.243 112.012 Q 180.075 109.934 176.4 107.9 A 56.925 56.925 0 0 0 172.412 105.914 Q 168.18 103.99 162.203 101.891 A 207.202 207.202 0 0 0 160.2 101.2 A 93.233 93.233 0 0 1 151.405 97.714 Q 147.177 95.766 143.825 93.59 A 38.669 38.669 0 0 1 138.3 89.3 Q 131 82.4 131 70.2 A 24.24 24.24 0 0 1 138.896 52.17 A 34.926 34.926 0 0 1 141.5 49.9 A 35.531 35.531 0 0 1 153.572 43.807 Q 161.009 41.6 170.6 41.6 Q 180.6 41.6 188.4 43.7 A 77.539 77.539 0 0 1 196.669 46.411 A 62.221 62.221 0 0 1 202.4 49 L 197.4 63.8 A 49.057 49.057 0 0 0 190.064 60.269 A 60.383 60.383 0 0 0 185.1 58.6 A 50.048 50.048 0 0 0 176.134 56.905 A 63.674 63.674 0 0 0 169.8 56.6 Q 163.129 56.6 158.515 58.328 A 17.018 17.018 0 0 0 154 60.8 Q 150.415 63.589 149.21 66.73 A 9.058 9.058 0 0 0 148.6 70 A 9.841 9.841 0 0 0 151.59 77.103 A 14.165 14.165 0 0 0 152.8 78.2 Q 156.93 81.544 168.797 85.467 A 168.919 168.919 0 0 0 169.2 85.6 Q 186.317 91.306 194.466 98.058 A 29.893 29.893 0 0 1 196.8 100.2 A 27.194 27.194 0 0 1 204.569 118.693 A 35.79 35.79 0 0 1 204.6 120.2 Q 204.6 133.697 194.098 141.71 A 33.237 33.237 0 0 1 193.3 142.3 A 40.104 40.104 0 0 1 180.547 148.246 Q 172.797 150.4 163 150.4 A 79.98 79.98 0 0 1 151.277 149.578 A 61.896 61.896 0 0 1 141.7 147.4 Q 132.873 144.613 126.895 140.271 A 36.458 36.458 0 0 1 126 139.6 Z M 245.4 139.4 L 245.4 148 L 228.6 148 L 228.6 0 L 246.6 0 L 246.6 54.8 Q 249.679 51.259 254.95 47.896 A 66.628 66.628 0 0 1 258.3 45.9 A 33.167 33.167 0 0 1 268.761 42.256 A 44.849 44.849 0 0 1 276.6 41.6 Q 288.6 41.6 299.1 47.9 Q 309.6 54.2 316 66.1 Q 322.119 77.477 322.388 93.516 A 88.548 88.548 0 0 1 322.4 95 Q 322.4 107.4 318.4 117.6 A 58.733 58.733 0 0 1 312.077 129.609 A 50.965 50.965 0 0 1 307.7 135.1 A 49.788 49.788 0 0 1 295.437 144.928 A 46.605 46.605 0 0 1 292.6 146.4 A 40.011 40.011 0 0 1 277.867 150.321 A 38.419 38.419 0 0 1 275.4 150.4 Q 266.4 150.4 258.5 147.1 Q 250.6 143.8 245.4 139.4 Z M 246.6 70.8 L 246.6 126.4 A 35.98 35.98 0 0 0 253.86 130.77 A 43.604 43.604 0 0 0 257.4 132.2 A 38.924 38.924 0 0 0 269.728 134.391 A 44.076 44.076 0 0 0 270.6 134.4 A 33.98 33.98 0 0 0 280.631 132.964 A 29.494 29.494 0 0 0 287.9 129.6 A 31.903 31.903 0 0 0 298.203 118.78 A 39.295 39.295 0 0 0 299.7 116 A 41.736 41.736 0 0 0 303.395 103.906 A 54.956 54.956 0 0 0 304 95.6 A 56.094 56.094 0 0 0 303.206 85.915 Q 302.218 80.28 300.001 75.617 A 34.676 34.676 0 0 0 299.7 75 Q 295.4 66.4 288.3 61.8 Q 281.2 57.2 272.6 57.2 A 29.482 29.482 0 0 0 261.347 59.326 A 28.108 28.108 0 0 0 257.1 61.5 Q 250.2 65.8 246.6 70.8 Z" vector-effect="non-scaling-stroke"/></g></svg>