<svg width="495.201" height="147.001" viewBox="0 0 495.201 147.001" xmlns="http://www.w3.org/2000/svg"><g id="svgGroup" stroke-linecap="round" fill-rule="evenodd" font-size="9pt" stroke="#000" stroke-width="0.25mm" fill="#000" style="stroke:#000;stroke-width:0.25mm;fill:#000"><path d="M 61.6 147.001 L 38 147.001 L 0 11.601 L 18.8 5.601 L 50.4 126.801 L 80.2 21.601 L 104 21.601 L 133.6 126.801 L 165 6.201 L 182.6 11.601 L 144.8 147.001 L 121.2 147.001 L 91.6 41.801 L 61.6 147.001 Z M 392.6 147.001 L 373.6 147.001 L 373.6 7.001 L 456.6 7.001 L 456.6 23.401 L 392.6 23.401 L 392.6 66.201 L 446 66.201 L 446 81.801 L 392.6 81.801 L 392.6 147.001 Z M 219.6 147.001 L 201.6 147.001 L 201.6 43.001 L 219.6 43.001 L 219.6 147.001 Z M 491.6 147.001 L 473.6 147.001 L 473.6 43.001 L 491.6 43.001 L 491.6 147.001 Z M 329.6 86.601 L 261.6 86.601 L 261.6 70.201 L 329.6 70.201 L 329.6 86.601 Z M 201.874 21.577 A 11.945 11.945 0 0 0 210.6 25.201 Q 216.4 25.201 219.8 21.701 A 11.554 11.554 0 0 0 222.65 16.768 A 15.022 15.022 0 0 0 223.2 12.601 A 14.52 14.52 0 0 0 223.199 12.439 A 12.121 12.121 0 0 0 219.5 3.701 A 14.789 14.789 0 0 0 219.384 3.587 A 12.117 12.117 0 0 0 210.6 0.001 A 16.527 16.527 0 0 0 207.288 0.317 A 11.322 11.322 0 0 0 201.4 3.401 A 11.176 11.176 0 0 0 198.458 8.666 A 15.974 15.974 0 0 0 198 12.601 Q 198 17.601 201.7 21.401 A 14.936 14.936 0 0 0 201.874 21.577 Z M 473.874 21.577 A 11.945 11.945 0 0 0 482.6 25.201 Q 488.4 25.201 491.8 21.701 A 11.554 11.554 0 0 0 494.65 16.768 A 15.022 15.022 0 0 0 495.2 12.601 A 14.52 14.52 0 0 0 495.199 12.439 A 12.121 12.121 0 0 0 491.5 3.701 A 14.789 14.789 0 0 0 491.384 3.587 A 12.117 12.117 0 0 0 482.6 0.001 A 16.527 16.527 0 0 0 479.288 0.317 A 11.322 11.322 0 0 0 473.4 3.401 A 11.176 11.176 0 0 0 470.458 8.666 A 15.974 15.974 0 0 0 470 12.601 Q 470 17.601 473.7 21.401 A 14.936 14.936 0 0 0 473.874 21.577 Z" vector-effect="non-scaling-stroke"/></g></svg>