<svg width="462.801" height="150.4" viewBox="0 0 462.801 150.4" xmlns="http://www.w3.org/2000/svg"><g id="svgGroup" stroke-linecap="round" fill-rule="evenodd" font-size="9pt" stroke="#000" stroke-width="0.25mm" fill="#000" style="stroke:#000;stroke-width:0.25mm;fill:#000"><path d="M 61.6 150.4 L 38 150.4 L 0 15 L 18.8 9 L 50.4 130.2 L 80.2 25 L 104 25 L 133.6 130.2 L 165 9.6 L 182.6 15 L 144.8 150.4 L 121.2 150.4 L 91.6 45.2 L 61.6 150.4 Z M 391.6 150.4 L 373.6 150.4 L 373.6 65.8 L 357.6 65.8 L 357.6 50.2 L 373.6 50.2 L 373.6 38 A 50.989 50.989 0 0 1 374.852 26.364 Q 377.068 16.905 383.204 10.406 A 32.765 32.765 0 0 1 383.4 10.2 A 32.734 32.734 0 0 1 404.209 0.249 A 44.925 44.925 0 0 1 409 0 A 59.964 59.964 0 0 1 416.021 0.39 Q 419.511 0.802 422.543 1.649 A 35.768 35.768 0 0 1 423.4 1.9 Q 429.6 3.8 435.2 6.6 L 429.8 21.8 A 77.917 77.917 0 0 0 422.579 18.489 A 87.771 87.771 0 0 0 420.8 17.8 Q 416 16 410.2 16 Q 401.8 16 396.7 21.3 A 16.924 16.924 0 0 0 392.806 28.038 Q 391.977 30.652 391.718 33.813 A 36.581 36.581 0 0 0 391.6 36.8 L 391.6 50.2 L 422.4 50.2 L 422.4 65.8 L 391.6 65.8 L 391.6 150.4 Z M 219.6 150.4 L 201.6 150.4 L 201.6 46.4 L 219.6 46.4 L 219.6 150.4 Z M 459.2 150.4 L 441.2 150.4 L 441.2 46.4 L 459.2 46.4 L 459.2 150.4 Z M 329.6 90 L 261.6 90 L 261.6 73.6 L 329.6 73.6 L 329.6 90 Z M 201.874 24.976 A 11.945 11.945 0 0 0 210.6 28.6 Q 216.4 28.6 219.8 25.1 A 11.554 11.554 0 0 0 222.65 20.167 A 15.022 15.022 0 0 0 223.2 16 A 14.52 14.52 0 0 0 223.199 15.838 A 12.121 12.121 0 0 0 219.5 7.1 A 14.789 14.789 0 0 0 219.384 6.986 A 12.117 12.117 0 0 0 210.6 3.4 A 16.527 16.527 0 0 0 207.288 3.716 A 11.322 11.322 0 0 0 201.4 6.8 A 11.176 11.176 0 0 0 198.458 12.065 A 15.974 15.974 0 0 0 198 16 Q 198 21 201.7 24.8 A 14.936 14.936 0 0 0 201.874 24.976 Z M 441.474 24.976 A 11.945 11.945 0 0 0 450.2 28.6 Q 456 28.6 459.4 25.1 A 11.554 11.554 0 0 0 462.25 20.167 A 15.022 15.022 0 0 0 462.8 16 A 14.52 14.52 0 0 0 462.799 15.838 A 12.121 12.121 0 0 0 459.1 7.1 A 14.789 14.789 0 0 0 458.984 6.986 A 12.117 12.117 0 0 0 450.2 3.4 A 16.527 16.527 0 0 0 446.888 3.716 A 11.322 11.322 0 0 0 441 6.8 A 11.176 11.176 0 0 0 438.058 12.065 A 15.974 15.974 0 0 0 437.6 16 Q 437.6 21 441.3 24.8 A 14.936 14.936 0 0 0 441.474 24.976 Z" vector-effect="non-scaling-stroke"/></g></svg>