<?xml version="1.0" encoding="utf-8"?>
<!-- Generator: Adobe Illustrator 25.4.1, SVG Export Plug-In . SVG Version: 6.00 Build 0)  -->
<svg version="1.1" id="Layer_1" xmlns="http://www.w3.org/2000/svg" xmlns:xlink="http://www.w3.org/1999/xlink" x="0px" y="0px"
	 viewBox="0 0 800 800" style="enable-background:new 0 0 800 800;" xml:space="preserve">
<style type="text/css">
	.st0{fill:#73C329;}
	.st1{fill:#F13353;}
	.st2{fill:#808080;}
	.st3{fill:#76B83F;}
</style>
<path d="M350,100v100h400V100H350z M350,350v100h400V350H350z"/>
<path class="st0" d="M225.5,74.4L124,175.8L74.2,126l-24.9,24.9l74.7,74.7L250.4,99.3L225.5,74.4z"/>
<path class="st1" d="M228.8,498.5c-5.2,0.1-10.2-2.1-13.8-5.9L57.4,335c-7.6-7.1-8-19.1-0.8-26.7c0.3-0.3,0.6-0.6,0.8-0.8
	c7.1-7.6,19.1-8,26.7-0.8c0.3,0.3,0.6,0.6,0.8,0.8L242.6,465c7.6,7.1,8,19.1,0.8,26.7c-0.3,0.3-0.6,0.6-0.8,0.8
	C239,496.4,234,498.6,228.8,498.5L228.8,498.5z"/>
<path class="st1" d="M71.2,498.5c-5.2,0.1-10.2-2.1-13.8-5.9c-7.6-7.1-8-19.1-0.8-26.7c0.3-0.3,0.6-0.6,0.8-0.8L215,307.5
	c7.6-7.6,20-7.6,27.6,0s7.6,20,0,27.6l0,0L85,492.6C81.5,496.4,76.5,498.6,71.2,498.5L71.2,498.5z"/>
<rect x="350" y="599.5" class="st2" width="400" height="100"/>
<path class="st2" d="M99.9,550c-27.7,0-50,22.3-50,50v99c0,27.5,22.3,50,50,50h100c27.7,0,50-22.5,50-50v-99c0-27.7-22.3-50-50-50
	H99.9z"/>
<path class="st3" d="M651.3,28.9c4.6,0,7.7,3.1,10.8,9.3L750,214.5l-21.6,43.3l-61.7-123.7V400h-30.9V134.1l-61.7,123.7l-21.5-43.3
	l87.9-176.3C643.6,32,646.7,28.9,651.3,28.9z"/>
</svg>
