<?xml version="1.0" encoding="utf-8"?>
<!-- Generator: Adobe Illustrator 28.4.1, SVG Export Plug-In . SVG Version: 6.00 Build 0)  -->
<svg version="1.1" id="Layer_1" xmlns="http://www.w3.org/2000/svg" xmlns:xlink="http://www.w3.org/1999/xlink" x="0px" y="0px"
	 viewBox="0 0 800 800" style="enable-background:new 0 0 800 800;" xml:space="preserve">
<style type="text/css">
	.st0{fill:none;stroke:#000000;stroke-width:66.6667;stroke-miterlimit:133.3333;}
</style>
<g id="SVGRepo_bgCarrier">
</g>
<g id="SVGRepo_tracerCarrier">
</g>
<g id="SVGRepo_iconCarrier">
	<path class="st0" d="M466.7,633.3h66.7c36.8,0,66.7-29.8,66.7-66.7v-81.3c0-30.6,20.8-57.3,50.5-64.7l50.5-12.6
		c8.4-2.1,8.4-14.1,0-16.2l-50.5-12.6c-29.7-7.4-50.5-34.1-50.5-64.7V166.7H466.7"/>
	<path class="st0" d="M333.3,166.7h-66.7c-36.8,0-66.7,29.8-66.7,66.7v81.3c0,30.6-20.8,57.3-50.5,64.7L99,391.9
		c-8.4,2.1-8.4,14.1,0,16.2l50.5,12.6c29.7,7.4,50.5,34.1,50.5,64.7v147.9h133.3"/>
</g>
</svg>
