<?xml version="1.0" encoding="utf-8"?>
<!-- Generator: Adobe Illustrator 28.4.1, SVG Export Plug-In . SVG Version: 6.00 Build 0)  -->
<svg version="1.1" id="Layer_1" xmlns="http://www.w3.org/2000/svg" xmlns:xlink="http://www.w3.org/1999/xlink" x="0px" y="0px"
	 viewBox="0 0 800 800" style="enable-background:new 0 0 800 800;" xml:space="preserve">
<style type="text/css">
	.st0{fill:#FFFFFF;fill-opacity:1.000000e-02;stroke:#000000;stroke-miterlimit:10;}
	.st1{fill:none;stroke:#000000;stroke-width:66.6667;stroke-linecap:round;stroke-linejoin:round;stroke-miterlimit:66.6667;}
	.st2{fill:none;stroke:#000000;stroke-width:66.6667;stroke-linecap:round;stroke-miterlimit:66.6667;}
	.st3{fill-rule:evenodd;clip-rule:evenodd;fill:#FFB900;}
	.st4{fill-rule:evenodd;clip-rule:evenodd;fill:#FFD75E;}
	.st5{fill-rule:evenodd;clip-rule:evenodd;fill:#DA7B16;}
	.st6{fill:#FFFFFF;}
	.st7{fill:#788B9C;}
</style>
<g id="SVGRepo_bgCarrier">
</g>
<g id="SVGRepo_tracerCarrier">
</g>
<rect class="st0" width="800" height="800"/>
<path class="st1" d="M107.3,511.8l95.1-61.3v285.3"/>
<path class="st1" d="M559.1,511.8l95.1-61.3v285.3"/>
<path class="st2" d="M392.7,498v23.8"/>
<path class="st2" d="M392.7,664.4v23.8"/>
<g id="YellowFolder">
	<g id="Group-Copy-24">
		<path id="Rectangle-Copy-75" class="st3" d="M45.4,92.9h106.5c5.6,0,10.9,2.2,14.8,6.1l34.2,34.2c1,1,2.3,1.5,3.6,1.5h155
			c5.8,0,10.5,4.7,10.5,10.5v188.5c0,5.8-4.7,10.5-10.5,10.5H45.4c-5.8,0-10.5-4.7-10.5-10.5V103.3C34.9,97.5,39.6,92.9,45.4,92.9z"
			/>
		<path id="Rectangle-Copy-76" class="st4" d="M34.9,176.6h117c5.6,0,10.9-2.2,14.8-6.1l34.2-34.2c1-1,2.3-1.5,3.6-1.5h155
			c5.8,0,10.5,4.7,10.5,10.5v188.5c0,5.8-4.7,10.5-10.5,10.5H45.4c-5.8,0-10.5-4.7-10.5-10.5V176.6z"/>
		<path id="Rectangle" class="st5" d="M34.9,323.2h335v10.5c0,5.8-4.7,10.5-10.5,10.5H45.4c-5.8,0-10.5-4.7-10.5-10.5V323.2z"/>
	</g>
</g>
<g>
	<polygon class="st6" points="533.6,366.8 533.6,70.2 691.4,70.2 759.1,137.9 759.1,366.8 	"/>
	<g>
		<path class="st7" d="M688.9,76.1l64.3,64.3v220.6H539.6V76.1H688.9 M693.9,64.2H527.7v308.6h237.4V135.4L693.9,64.2L693.9,64.2z"
			/>
	</g>
</g>
<g>
	<polygon class="st6" points="687.9,141.4 687.9,70.2 691.4,70.2 759.1,137.9 759.1,141.4 	"/>
	<g>
		<path class="st7" d="M693.9,81l54.4,54.4h-54.4V81 M693.9,64.2H682v83.1h83.1v-11.9L693.9,64.2L693.9,64.2z"/>
	</g>
</g>
</svg>
