<?xml version="1.0" encoding="utf-8"?>
<!-- Generator: Adobe Illustrator 28.4.1, SVG Export Plug-In . SVG Version: 6.00 Build 0)  -->
<svg version="1.1" id="Layer_1" xmlns="http://www.w3.org/2000/svg" xmlns:xlink="http://www.w3.org/1999/xlink" x="0px" y="0px"
	 viewBox="0 0 800 800" style="enable-background:new 0 0 800 800;" xml:space="preserve">
<style type="text/css">
	.st0{fill:#FFF6F4;stroke:#000000;stroke-width:4;stroke-miterlimit:10;}
	.st1{fill:none;stroke:#000000;stroke-width:4;stroke-miterlimit:10;}
	.st2{fill:#41FF1F;stroke:#E7E7E7;stroke-width:4;stroke-miterlimit:10;}
</style>
<g>
	<rect x="66.7" y="66.7" class="st0" width="666.6" height="666.6"/>
	<line class="st1" x1="66.7" y1="511.1" x2="733.3" y2="511.1"/>
	<line class="st1" x1="66.7" y1="288.9" x2="733.3" y2="288.9"/>
	<line class="st1" x1="511.1" y1="66.7" x2="511.1" y2="733.3"/>
	<line class="st1" x1="288.9" y1="66.7" x2="288.9" y2="733.3"/>
</g>
<polygon class="st2" points="106.1,398.8 168.8,451.6 258.5,361.9 244.9,348.4 169.1,424 104.9,366.5 "/>
<polygon class="st2" points="323.6,397.9 386.3,450.7 476,361 462.4,347.4 386.6,423.1 322.4,365.6 "/>
<polygon class="st2" points="554.6,397.9 617.3,450.7 707,361 693.4,347.4 617.6,423.1 553.4,365.6 "/>
<polygon class="st2" points="554.6,178.9 617.3,231.7 707,142 693.4,128.4 617.6,204.1 553.4,146.6 "/>
<polygon class="st2" points="106.1,619.4 168.8,672.2 258.5,582.5 244.9,568.9 169.1,644.6 104.9,587.1 "/>
</svg>
