<?xml version="1.0" encoding="utf-8"?>
<!-- Generator: Adobe Illustrator 28.4.1, SVG Export Plug-In . SVG Version: 6.00 Build 0)  -->
<svg version="1.1" id="Layer_1" xmlns="http://www.w3.org/2000/svg" xmlns:xlink="http://www.w3.org/1999/xlink" x="0px" y="0px"
	 viewBox="0 0 800 800" style="enable-background:new 0 0 800 800;" xml:space="preserve">
<style type="text/css">
	.st0{fill:#000000;stroke:#000000;stroke-width:4;stroke-miterlimit:10;}
	.st1{fill:none;}
	.st2{enable-background:new    ;}
	.st3{fill:#000000;stroke:#000000;stroke-width:4;stroke-miterlimit:10;}
</style>
<path class="st0" d="M665.8,397.1c0,147.1-119.6,266.7-266.7,266.7c-43.5,0-85.8-10.7-123.9-30.5l-25.2,38.1l-82.2-162.6l181.7,12.1
	l-26.2,39.6c23.5,11,49.3,16.7,75.5,16.7c99.3,0,180-80.8,180-180s-80.8-180-180-180s-180,80.8-180,180h-86.5
	c0-147.1,119.7-266.7,266.7-266.7S665.8,250,665.8,397.1z"/>
<rect x="349.7" y="373.4" class="st1" width="216" height="131"/>
<g class="st2">
	<path class="st3" d="M258.9,421l16.7-2.6c0.9,6.7,3.6,11.8,7.9,15.4c4.3,3.6,10.3,5.4,18,5.4c7.8,0,13.5-1.6,17.3-4.7
		c3.8-3.2,5.6-6.9,5.6-11.1c0-3.8-1.7-6.8-5-9c-2.3-1.5-8.1-3.4-17.3-5.7c-12.4-3.1-21-5.8-25.8-8.1c-4.8-2.3-8.4-5.5-10.9-9.5
		c-2.5-4-3.7-8.5-3.7-13.4c0-4.4,1-8.6,3.1-12.4c2-3.8,4.8-6.9,8.3-9.4c2.6-1.9,6.2-3.6,10.8-4.9c4.5-1.3,9.4-2,14.6-2
		c7.8,0,14.7,1.1,20.6,3.4s10.3,5.3,13.1,9.2c2.8,3.9,4.8,9,5.8,15.5l-16.5,2.3c-0.8-5.1-2.9-9.2-6.5-12c-3.6-2.9-8.7-4.3-15.3-4.3
		c-7.8,0-13.3,1.3-16.6,3.9c-3.3,2.6-5,5.6-5,9c0,2.2,0.7,4.2,2.1,5.9c1.4,1.8,3.5,3.3,6.5,4.5c1.7,0.6,6.7,2.1,15,4.3
		c12,3.2,20.3,5.8,25.1,7.9c4.7,2,8.4,5,11.1,8.9c2.7,3.9,4,8.7,4,14.5c0,5.6-1.6,11-4.9,15.9c-3.3,5-8,8.8-14.2,11.6
		s-13.2,4.1-21.1,4.1c-13,0-22.9-2.7-29.7-8.1C265.1,439.6,260.7,431.6,258.9,421z"/>
	<path class="st3" d="M427.1,414.3l16.6,2.2c-1.8,11.5-6.5,20.5-14,26.9c-7.5,6.5-16.7,9.7-27.6,9.7c-13.7,0-24.7-4.5-33-13.4
		c-8.3-8.9-12.5-21.7-12.5-38.4c0-10.8,1.8-20.2,5.4-28.3c3.6-8.1,9-14.2,16.3-18.2c7.3-4,15.2-6.1,23.8-6.1
		c10.8,0,19.7,2.7,26.6,8.2c6.9,5.5,11.3,13.3,13.3,23.4l-16.5,2.5c-1.6-6.7-4.3-11.8-8.3-15.1c-4-3.4-8.8-5.1-14.4-5.1
		c-8.5,0-15.5,3.1-20.8,9.2c-5.3,6.1-8,15.8-8,29c0,13.4,2.6,23.2,7.7,29.2c5.1,6.1,11.8,9.1,20.1,9.1c6.6,0,12.2-2,16.6-6.1
		C423.1,429,425.9,422.7,427.1,414.3z"/>
	<path class="st3" d="M458.2,450.8V351h15.2v14.2c7.3-11,17.9-16.5,31.8-16.5c6,0,11.5,1.1,16.6,3.2c5,2.2,8.8,5,11.3,8.5
		c2.5,3.5,4.3,7.7,5.3,12.5c0.6,3.1,0.9,8.6,0.9,16.5v61.4h-16.9v-60.7c0-6.9-0.7-12.1-2-15.5c-1.3-3.4-3.7-6.1-7-8.2
		c-3.4-2-7.3-3.1-11.8-3.1c-7.2,0-13.4,2.3-18.7,6.9c-5.2,4.6-7.9,13.3-7.9,26v54.5H458.2z"/>
</g>
<rect x="348.7" y="373.4" class="st1" width="216" height="131"/>
</svg>
