<?xml version="1.0" encoding="utf-8"?>
<!-- Generator: Adobe Illustrator 28.4.1, SVG Export Plug-In . SVG Version: 6.00 Build 0)  -->
<svg version="1.1" id="Layer_1" xmlns="http://www.w3.org/2000/svg" xmlns:xlink="http://www.w3.org/1999/xlink" x="0px" y="0px"
	 viewBox="0 0 800 800" style="enable-background:new 0 0 800 800;" xml:space="preserve">
<style type="text/css">
	.st0{fill:#00D900;stroke:#007F07;stroke-width:4;stroke-miterlimit:10;}
	.st1{display:none;}
	.st2{fill:#15E900;}
</style>
<g>
	<path class="st0" d="M647.9,341.1c0-7-5.7-12.6-12.6-12.6H332.4c-7,0-12.6,5.7-12.6,12.6c0,7,5.7,12.6,12.6,12.6h302.9
		C642.3,353.7,647.9,348,647.9,341.1z"/>
	<path d="M382.9,446.3c-7,0-12.6,5.7-12.6,12.6s5.7,12.6,12.6,12.6h1.7c7,0,12.6-5.7,12.6-12.6s-5.7-12.6-12.6-12.6L382.9,446.3
		L382.9,446.3z"/>
	<path d="M635.3,564.2H483.8c-7,0-12.6,5.7-12.6,12.6c0,7,5.7,12.6,12.6,12.6h151.5c7,0,12.6-5.7,12.6-12.6
		C647.9,569.9,642.3,564.2,635.3,564.2z"/>
	<path class="st0" d="M164.1,471.6h168.3c7,0,12.6-5.7,12.6-12.6s-5.7-12.6-12.6-12.6H164.1c-7,0-12.6,5.7-12.6,12.6
		S157.1,471.6,164.1,471.6z"/>
	<path d="M635.3,446.3H483.8c-7,0-12.6,5.7-12.6,12.6s5.7,12.6,12.6,12.6h151.5c7,0,12.6-5.7,12.6-12.6S642.3,446.3,635.3,446.3z"/>
	<path d="M328.2,223.2c0-7-5.7-12.6-12.6-12.6H164.1c-7,0-12.6,5.7-12.6,12.6c0,7,5.7,12.6,12.6,12.6h151.5
		C322.5,235.8,328.2,230.1,328.2,223.2z"/>
	<path d="M431.7,471.6h1.7c7,0,12.6-5.7,12.6-12.6s-5.7-12.6-12.6-12.6h-1.7c-7,0-12.6,5.7-12.6,12.6S424.7,471.6,431.7,471.6z"/>
	<path d="M280.2,328.4c-7,0-12.6,5.7-12.6,12.6c0,7,5.7,12.6,12.6,12.6h1.7c7,0,12.6-5.7,12.6-12.6c0-7-5.7-12.6-12.6-12.6H280.2z"
		/>
	<path d="M164.1,353.7h67.3c7,0,12.6-5.7,12.6-12.6c0-7-5.7-12.6-12.6-12.6h-67.3c-7,0-12.6,5.7-12.6,12.6S157.1,353.7,164.1,353.7z
		"/>
	<rect x="71.3" y="69.8" class="st1" width="646.5" height="17.6"/>
	<path d="M642.7,223.2c0-7-8.8-12.6-19.7-12.6H386.4c-10.9,0-19.7,5.7-19.7,12.6c0,7,8.8,12.6,19.7,12.6H623
		C633.9,235.8,642.7,230.1,642.7,223.2z"/>
	<path d="M427.5,576.8c0-7-8.8-12.6-19.7-12.6H171.2c-10.9,0-19.7,5.7-19.7,12.6c0,7,8.8,12.6,19.7,12.6h236.6
		C418.7,589.5,427.5,583.8,427.5,576.8z"/>
</g>
<path class="st2" d="M620.5,323.6c-8.7,7.3-21.6,6.1-28.9-2.5c-2.2-2.6-3.6-5.6-4.3-8.8l-3.5,0.4l5.5-12.9l8.3,11.3l-3.6,0.4
	c0.5,1.9,1.5,3.7,2.8,5.3c4.9,5.9,13.7,6.6,19.5,1.7c5.9-4.9,6.6-13.7,1.7-19.5c-4.9-5.9-13.7-6.6-19.5-1.7l-4.3-5.1
	c8.7-7.3,21.7-6.1,28.9,2.5C630.3,303.4,629.1,316.3,620.5,323.6z"/>
<path class="st2" d="M317.8,441.1c-8.7,7.3-21.6,6.1-28.9-2.5c-2.2-2.6-3.6-5.6-4.3-8.8l-3.5,0.4l5.5-12.9l8.3,11.3l-3.6,0.4
	c0.5,1.9,1.5,3.7,2.8,5.3c4.9,5.9,13.7,6.6,19.5,1.7s6.6-13.7,1.7-19.5c-4.9-5.9-13.7-6.6-19.5-1.7l-4.3-5.1
	c8.7-7.3,21.7-6.1,28.9,2.5C327.6,420.9,326.5,433.9,317.8,441.1z"/>
</svg>
