<?xml version="1.0" encoding="utf-8"?>
<!-- Generator: Adobe Illustrator 28.4.1, SVG Export Plug-In . SVG Version: 6.00 Build 0)  -->
<svg version="1.1" id="Layer_1" xmlns="http://www.w3.org/2000/svg" xmlns:xlink="http://www.w3.org/1999/xlink" x="0px" y="0px"
	 viewBox="0 0 800 800" style="enable-background:new 0 0 800 800;" xml:space="preserve">
<style type="text/css">
	.st0{fill:#00D900;stroke:#007F07;stroke-width:4;stroke-miterlimit:10;}
	.st1{fill:#15E900;}
</style>
<g>
	<g>
		<path class="st0" d="M786,313.9c0-10.8-8.8-19.4-19.4-19.4H300.1c-10.8,0-19.4,8.8-19.4,19.4c0,10.8,8.8,19.4,19.4,19.4h466.5
			C777.4,333.3,786,324.5,786,313.9z"/>
		<path d="M377.9,475.9c-10.8,0-19.4,8.8-19.4,19.4s8.8,19.4,19.4,19.4h2.6c10.8,0,19.4-8.8,19.4-19.4s-8.8-19.4-19.4-19.4H377.9
			L377.9,475.9z"/>
		<path d="M766.6,657.5H533.3c-10.8,0-19.4,8.8-19.4,19.4c0,10.8,8.8,19.4,19.4,19.4h233.3c10.8,0,19.4-8.8,19.4-19.4
			C786,666.3,777.4,657.5,766.6,657.5z"/>
		<path class="st0" d="M40.9,514.9h259.2c10.8,0,19.4-8.8,19.4-19.4s-8.8-19.4-19.4-19.4H40.9c-10.8,0-19.4,8.8-19.4,19.4
			S30.1,514.9,40.9,514.9z"/>
		<path d="M766.6,475.9H533.3c-10.8,0-19.4,8.8-19.4,19.4s8.8,19.4,19.4,19.4h233.3c10.8,0,19.4-8.8,19.4-19.4
			S777.4,475.9,766.6,475.9z"/>
		<path d="M293.6,132.3c0-10.8-8.8-19.4-19.4-19.4H40.9c-10.8,0-19.4,8.8-19.4,19.4c0,10.8,8.8,19.4,19.4,19.4h233.3
			C284.9,151.7,293.6,142.9,293.6,132.3z"/>
		<path d="M453,514.9h2.6c10.8,0,19.4-8.8,19.4-19.4s-8.8-19.4-19.4-19.4H453c-10.8,0-19.4,8.8-19.4,19.4S442.3,514.9,453,514.9z"/>
		<path d="M219.7,294.3c-10.8,0-19.4,8.8-19.4,19.4c0,10.8,8.8,19.4,19.4,19.4h2.6c10.8,0,19.4-8.8,19.4-19.4
			c0-10.8-8.8-19.4-19.4-19.4H219.7z"/>
		<path d="M40.9,333.3h103.7c10.8,0,19.4-8.8,19.4-19.4c0-10.8-8.8-19.4-19.4-19.4H40.9c-10.8,0-19.4,8.8-19.4,19.4
			S30.1,333.3,40.9,333.3z"/>
		<path d="M778,132.3c0-10.8-13.6-19.4-30.3-19.4H383.3c-16.8,0-30.3,8.8-30.3,19.4c0,10.8,13.6,19.4,30.3,19.4h364.4
			C764.5,151.7,778,142.9,778,132.3z"/>
		<path d="M446.6,676.9c0-10.8-13.6-19.4-30.3-19.4H51.8c-16.8,0-30.3,8.8-30.3,19.4c0,10.8,13.6,19.4,30.3,19.4h364.4
			C433,696.4,446.6,687.7,446.6,676.9z"/>
	</g>
	<path class="st1" d="M729.6,277.6c-30.3,25.4-75.2,21.2-100.6-8.7c-7.7-9-12.5-19.5-15-30.6l-12.2,1.4l19.1-44.9l28.9,39.3
		l-12.5,1.4c1.7,6.6,5.2,12.9,9.7,18.4c17,20.5,47.7,23,67.8,5.9c20.5-17,23-47.7,5.9-67.8c-17-20.5-47.7-23-67.8-5.9l-15-17.7
		c30.3-25.4,75.5-21.2,100.6,8.7C763.7,207.3,759.6,252.2,729.6,277.6z"/>
	<path class="st1" d="M292.9,459.2c-30.3,25.4-75.2,21.2-100.6-8.7c-7.7-9-12.5-19.5-15-30.6l-12.2,1.4l19.1-44.9l28.9,39.3
		l-12.5,1.4c1.7,6.6,5.2,12.9,9.7,18.4c17,20.5,47.7,23,67.8,5.9c20.5-17,23-47.7,5.9-67.8c-17-20.5-47.7-23-67.8-5.9l-15-17.7
		c30.3-25.4,75.5-21.2,100.6,8.7C327,388.9,322.8,433.8,292.9,459.2z"/>
</g>
</svg>
