<?xml version="1.0" encoding="utf-8"?>
<!-- Generator: Adobe Illustrator 25.4.1, SVG Export Plug-In . SVG Version: 6.00 Build 0)  -->
<svg version="1.1" id="Layer_1" xmlns="http://www.w3.org/2000/svg" xmlns:xlink="http://www.w3.org/1999/xlink" x="0px" y="0px"
	 viewBox="0 0 384 384" style="enable-background:new 0 0 384 384;" xml:space="preserve">
<style type="text/css">
	.st0{fill:#FFFFFF;}
</style>
<path d="M323.8,192.6c7.6,0,14.9-0.1,22.3,0c12-0.4,19.2,16.2,10.4,24.4c-4.2,3.4-9.1,5.8-15.1,5.4v148c0,7.4-1,8.4-8.4,8.4H51
	c-7.4,0-8.4-1-8.4-8.4V222.5c-21.4,2.8-26.5-27.8-4.7-29.9c7.3-0.2,14.7,0,22.4,0V132c-23.1,4.2-29.5-27.5-5.9-29.8
	c26.9-0.3,53.1,0,80.3-0.1c-21.9-38.7-2.3-86.3,41.8-95.6c24.7-3,49.9-0.7,74.8-1.3c4.2-0.7,6.8,2.5,6.8,6.3c0.8,7.6-27,3-33.1,4.2
	c28.8,24.1,34.8,52.7,18.5,86.4h84.9c9.5,0,16.1,6.3,16.1,15.1c0,11.2-10.7,16.2-20.7,14.8L323.8,192.6z M53.4,222.4v145.7h94.4
	c0-27.3-0.1-54.4,0-81.6c0-10.9,6.2-17.1,17.2-17.2c95.7-0.9,66.6-7.7,71.3,98.8h94.3V222.4H53.4z M241.9,69.1
	C241.4-0.6,137.8-1.2,136,68C136.7,137.5,239.8,138.6,241.9,69.1z M191.6,211.7c51.5-0.1,103,0.3,154.5-0.1
	c7.1-1.2,1.9-10.1-3.5-8.5c-101.3,0-202.6,0-303.7,0c-2.8,0.1-4.6,1.5-4.6,4.4s1.9,4.1,4.7,4.2C89.9,211.8,140.7,211.7,191.6,211.7z
	 M272.8,182.9c8.4-0.8,24.1,3.9,24.1-9.1c1.7-43.4-2-30-39.6-32.1c-14.6-0.1-7.3,22.6-8.9,32C248.3,186.8,264.3,182.1,272.8,182.9
	L272.8,182.9z M191.3,141.7c-8.2,1-24-4.2-24.3,8.3c1.4,9.1-5.5,33,8.4,32.9c38.4-2,41.5,11.3,39.9-32.6
	C215.2,137.6,199.5,142.6,191.3,141.7z M109.6,141.7c-8.2,0.9-24.1-4-24.1,8.5c1.6,9.4-5.7,32.7,8.6,32.7
	c38.1-2,41.4,11.1,39.6-32.8C133.6,137.6,117.7,142.6,109.6,141.7L109.6,141.7z M224.6,121.5h104.2c6.6,0.6,7-9.5-0.5-8.8h-91.4
	C231.7,113.1,229.2,118.2,224.6,121.5L224.6,121.5z M153.6,121.5c-5.7-3.7-8.1-9.4-14.9-8.9H57.4c-3.4-0.9-6.5,2-7,4.8
	s2.1,2.9,3.5,3.9C87.3,121.8,119.9,121.3,153.6,121.5L153.6,121.5z M217.5,328.9c-0.2-4.7,1.8-12.5-4.9-13.1
	c-2.8-0.2-5.2,1.8-5.4,4.6c0,0.1,0,0.3,0,0.4c-0.3,5.1-0.3,10.3-0.1,15.4c-0.2,6.8,10.8,6.7,10.4-0.2
	C217.6,333.6,217.6,331.2,217.5,328.9L217.5,328.9z"/>
<path class="st0" d="M189.1,46.4c13.5-0.2,13.3-20.6-0.3-20.5S175.8,46.4,189.1,46.4L189.1,46.4z M168.4,58.5
	c-0.3-13.7-20.6-13.2-20.5,0.3C148,72.3,168.4,71.8,168.4,58.5z M219.9,68.9c13.3-0.5,13.3-20.4,0-20.7S206.4,68.8,219.9,68.9z
	 M188.9,79.1c13.3,0.1,13.7-20,0.4-20.5S175.2,78.8,188.9,79.1z M180.1,94.8c0.4-13.4-20.8-13.3-20.4,0S180.4,108.1,180.1,94.8
	L180.1,94.8z M208.2,105c13.1,0.2,13.1-20.7-0.1-20.4S194.7,105.5,208.2,105z"/>
<path d="M97.4,302.2c11.2-0.1,29.2-2.8,29.3,13.3c2.7,47.2-5.2,37.6-45.5,38.4C61.6,352.7,69,327.8,68,314.6
	C68.6,299.2,86.5,302.3,97.4,302.2z"/>
<path d="M288.7,302.2c10.9,0.1,28.8-3.1,29.5,12.4c-1.2,12.9,6.5,37.7-12.7,39.2c-40.9-0.8-48.6,9.3-46-38.6
	C259.8,299.5,277.7,302.1,288.7,302.2z"/>
<path d="M97.6,235.9c11.4-0.1,29.4-2.4,29.1,13.9c2.7,47.2-5.9,36.8-45.7,37.7c-19.2-1-11.9-25.3-13.1-38.2
	C68,233.1,86.2,236,97.6,235.9z"/>
<path d="M288.9,287.6c-11.8,0.1-30,2.5-29.4-14.4c-2.6-46.8,6.2-36.1,45.4-37.2c19.5,0.8,12.2,25.3,13.4,38.2
	C318.2,290.3,300.1,287.5,288.9,287.6z"/>
<path d="M189.1,46.4c-13.3,0-13.8-20-0.3-20.5S202.6,46.2,189.1,46.4z"/>
<path d="M168.4,58.5c0,13.3-20,13.6-20.5,0.3S168.1,44.8,168.4,58.5z"/>
<path d="M219.9,68.9c-13.5-0.1-13.6-20.5,0-20.7S233.2,68.4,219.9,68.9z"/>
<path d="M188.9,79.1c-13.7-0.3-13.1-20.8,0.4-20.5S202.2,79.2,188.9,79.1z"/>
<path d="M180.1,94.8c0.3,13.3-20.6,13.3-20.4,0S180.5,81.4,180.1,94.8z"/>
<path d="M208.2,105c-13.5,0.5-13.5-20.8-0.1-20.4S221.3,105.2,208.2,105z"/>
</svg>
