<?xml version="1.0" encoding="utf-8"?><!-- Uploaded to: SVG Repo, www.svgrepo.com, Generator: SVG Repo Mixer Tools -->
<svg width="800px" height="800px" viewBox="0 0 24 28" xmlns="http://www.w3.org/2000/svg">
<path d="M 21 6 z m 2 -3 v 18 L 23 25 H 1 V 3 z M 6 20 z m 5.677 0 l 0.029 -0.09 l 0.046 -0.13 a 1.807 1.807 0 0 0 0.122 -0.62 c -0.056 -0.087 -0.397 -0.166 -0.58 -0.208 a 1.413 1.413 0 0 1 -1.046 -0.585 a 1.52 1.52 0 0 1 0.505 -1.928 c 0.253 -0.253 0.408 -0.42 0.408 -0.596 a 0.496 0.496 0 0 0 -0.081 -0.267 h -0.007 a 0.808 0.808 0 0 0 -0.323 0.084 a 1.788 1.788 0 0 1 -0.695 0.146 a 1.02 1.02 0 0 1 -1.068 -0.96 a 1.754 1.754 0 0 1 0.27 -0.881 a 0.9 0.9 0 0 0 0.158 -0.44 a 1.234 1.234 0 0 0 -0.056 -0.328 a 2.126 2.126 0 0 1 -0.086 -0.563 a 1.32 1.32 0 0 1 1.28 -1.352 a 1.45 1.45 0 0 1 1.246 0.959 c 0.051 0.092 0.119 0.216 0.466 0.216 c 0.365 0 0.643 -0.594 0.643 -0.892 a 1.106 1.106 0 0 1 1.068 -1.139 a 1.35 1.35 0 0 1 0.849 0.342 c 0.147 0.111 0.215 0.156 0.293 0.156 c 0.146 0 0.215 -0.071 0.429 -0.451 a 2.138 2.138 0 0 1 0.812 -0.92 c 0.433 -0.233 0.433 -0.68 0.281 -1.421 A 0.934 0.934 0 0 1 16.63 8 H 2 v 12 z M 22 16.588 a 2.857 2.857 0 0 1 -1.377 -0.775 a 1.816 1.816 0 0 1 -0.437 -0.689 a 1.303 1.303 0 0 0 -0.153 -0.296 a 0.71 0.71 0 0 0 -0.37 0.202 a 1.467 1.467 0 0 1 -0.981 0.382 a 1.384 1.384 0 0 1 -0.608 -0.165 a 0.46 0.46 0 0 0 -0.377 -0.049 v 0.61 a 1.34 1.34 0 0 1 -0.484 0.97 c -0.17 0.172 -0.217 0.231 -0.217 0.324 c 0.001 -0.048 0.064 0.024 0.108 0.074 a 1.068 1.068 0 0 1 0.332 0.679 c 0 0.754 -0.714 0.951 -1.098 1.057 a 1.41 1.41 0 0 0 -0.422 0.158 c 0.02 -0.014 0.07 0.067 0.108 0.117 a 1.084 1.084 0 0 1 0.287 0.654 a 0.697 0.697 0 0 1 -0.02 0.159 H 22 z M 22 8 h -4.444 a 1.974 1.974 0 0 1 -0.758 2.367 a 1.372 1.372 0 0 0 -0.446 0.56 a 1.408 1.408 0 0 1 -1.234 0.921 a 1.356 1.356 0 0 1 -0.85 -0.342 c -0.146 -0.11 -0.214 -0.156 -0.292 -0.156 c -0.07 0 -0.144 0.11 -0.144 0.215 c 0 0.74 -0.611 1.816 -1.568 1.816 a 1.33 1.33 0 0 1 -1.26 -0.666 c -0.223 -0.4 -0.306 -0.51 -0.45 -0.51 a 0.4 0.4 0 0 0 -0.357 0.43 a 1.236 1.236 0 0 0 0.056 0.328 a 2.126 2.126 0 0 1 0.086 0.562 a 1.755 1.755 0 0 1 -0.27 0.882 a 0.9 0.9 0 0 0 -0.158 0.44 a 0.258 0.258 0 0 0 0.144 0.035 a 0.878 0.878 0 0 0 0.36 -0.083 a 1.502 1.502 0 0 1 0.79 -0.128 a 1.107 1.107 0 0 1 0.88 1.172 a 1.78 1.78 0 0 1 -0.68 1.25 c -0.411 0.411 -0.49 0.54 -0.33 0.86 c 0.03 0.005 0.27 0.062 0.429 0.099 c 0.484 0.113 1.294 0.302 1.294 1.107 a 2.58 2.58 0 0 1 -0.15 0.841 h 2.663 c 0.022 -0.051 0.046 -0.106 0.06 -0.143 a 3.316 3.316 0 0 0 -0.08 -0.107 a 1.122 1.122 0 0 1 -0.294 -0.675 c 0 -0.752 0.686 -0.941 1.096 -1.054 a 1.71 1.71 0 0 0 0.41 -0.147 c -0.022 -0.004 -0.068 -0.059 -0.102 -0.097 a 1.06 1.06 0 0 1 -0.33 -0.675 a 1.345 1.345 0 0 1 0.486 -0.975 c 0.17 -0.17 0.216 -0.23 0.216 -0.32 v -0.695 a 0.987 0.987 0 0 1 1.08 -0.868 a 1.405 1.405 0 0 1 0.61 0.165 a 0.711 0.711 0 0 0 0.219 0.08 a 0.578 0.578 0 0 0 0.41 -0.186 a 1.464 1.464 0 0 1 0.98 -0.383 c 0.602 0 0.828 0.526 0.963 0.839 a 1.218 1.218 0 0 0 0.197 0.36 a 2.846 2.846 0 0 0 0.768 0.532 z m 0 -4 H 2 v 3 h 20 z M 2 21 L 2 24 L 22 24 L 22 21 L 2 21 M 3 5 L 4 5 L 4 6 L 3 6 L 3 5 M 3 22 L 4 22 L 4 23 L 3 23 L 3 22"/>
<path fill="none" d="M0 0h24v24H0z"/></svg>