<?xml version="1.0" encoding="utf-8"?>
<!-- Generator: Adobe Illustrator 28.4.1, SVG Export Plug-In . SVG Version: 6.00 Build 0)  -->
<svg version="1.1" id="Capa_1" xmlns="http://www.w3.org/2000/svg" xmlns:xlink="http://www.w3.org/1999/xlink" x="0px" y="0px"
	 viewBox="0 0 355.5 355.5" style="enable-background:new 0 0 355.5 355.5;" xml:space="preserve">
<style type="text/css">
	.st0{fill:#006DF0;}
	.st1{fill:#0052B4;}
	.st2{fill:#FFFFFF;}
	.st3{fill-rule:evenodd;clip-rule:evenodd;}
</style>
<g id="XMLID_487_">
	<path id="XMLID_488_" class="st0" d="M307.9,267c-28.3,41.9-76.2,69.4-130.6,69.4c-87,0-157.5-70.5-157.5-157.5"/>
	<path id="XMLID_489_" class="st1" d="M177.4,225.6c0,0-0.1,71.7-0.1,110.8c54.3,0,102.3-27.5,130.6-69.4L177.4,225.6z"/>
	<path id="XMLID_37_" class="st0" d="M47.6,88.5c28.3-41.9,76.2-69.4,130.6-69.4c87,0,157.5,70.5,157.5,157.5"/>
	<path id="XMLID_490_" class="st1" d="M177.1,19.1C123.2,19.5,75.7,46.9,47.6,88.5l129.5,39.6V19.1z"/>
	<circle id="XMLID_491_" class="st2" cx="177.4" cy="178.8" r="110"/>
	<polygon id="XMLID_32_" class="st1" points="104.8,212.2 0,242.2 26.2,135.5 	"/>
	<polygon id="XMLID_3_" class="st1" points="250.7,143.3 355.5,113.4 329.4,220 	"/>
</g>
<polygon class="st3" points="115.1,113.4 115.1,140.7 160,140.7 160,268.5 194.9,268.5 194.9,140.7 240.4,140.7 240.4,113.4 "/>
</svg>
