<svg width="349.603" height="144.803" viewBox="0 0 349.603 144.803" xmlns="http://www.w3.org/2000/svg"><g id="svgGroup" stroke-linecap="round" fill-rule="evenodd" font-size="9pt" stroke="#000" stroke-width="0.25mm" fill="#000" style="stroke:#000;stroke-width:0.25mm;fill:#000"><path d="M 0 89.2 L 0 2.4 L 19 2.4 L 19 86.2 A 78.963 78.963 0 0 0 19.801 97.821 Q 20.723 104.007 22.707 109.026 A 35.311 35.311 0 0 0 27.2 117.2 Q 35.4 128.2 51.8 128.2 A 42.771 42.771 0 0 0 61.808 127.103 A 26.909 26.909 0 0 0 77.2 117.5 A 34.763 34.763 0 0 0 82.793 106.71 Q 85.6 98.11 85.6 86.2 L 85.6 2.4 L 104 2.4 L 104 88.4 Q 104 106 97.5 118.7 A 47.183 47.183 0 0 1 86.262 133.193 A 44.856 44.856 0 0 1 79.3 138.1 A 50.047 50.047 0 0 1 62.178 144.009 A 65.631 65.631 0 0 1 51.8 144.8 A 65.413 65.413 0 0 1 35.789 142.951 A 44.984 44.984 0 0 1 13.8 130.4 A 46.638 46.638 0 0 1 2.883 111.107 Q 0.721 103.863 0.18 95.163 A 96.193 96.193 0 0 1 0 89.2 Z M 125 130.6 L 134.6 114.6 Q 141.8 120.6 150.8 124.4 A 46.697 46.697 0 0 0 161.541 127.42 A 64.236 64.236 0 0 0 171.8 128.2 Q 182.338 128.2 189.663 124.987 A 27.401 27.401 0 0 0 194.6 122.2 A 20.56 20.56 0 0 0 200.193 116.39 Q 202.825 112.178 202.989 106.732 A 24.232 24.232 0 0 0 203 106 Q 203 100.2 200.6 95.7 Q 198.212 91.223 191.368 86.943 A 51.798 51.798 0 0 0 191.3 86.9 Q 184.4 82.6 171 77.6 A 180.825 180.825 0 0 1 161.785 73.739 Q 153.644 70.041 148 66.3 A 43.863 43.863 0 0 1 141.821 61.405 Q 138.387 58.106 136.276 54.375 A 26.605 26.605 0 0 1 135.7 53.3 A 33.333 33.333 0 0 1 132.659 43.957 A 45.856 45.856 0 0 1 132 36 Q 132 26 137.5 17.9 A 34.355 34.355 0 0 1 146.406 9.025 A 46.771 46.771 0 0 1 153.7 4.9 Q 163.395 0.461 176.784 0.044 A 90.456 90.456 0 0 1 179.6 0 Q 192 0 201.9 2.5 Q 211.8 5 221.2 9.6 L 214.2 25.8 A 62.991 62.991 0 0 0 205.949 21.763 A 83.372 83.372 0 0 0 198.3 19.1 Q 189.2 16.4 179.2 16.4 A 54.374 54.374 0 0 0 171.14 16.96 Q 166.876 17.601 163.4 18.973 A 25.233 25.233 0 0 0 158.4 21.6 A 19.803 19.803 0 0 0 154.073 25.53 A 14.719 14.719 0 0 0 150.8 35 A 20.929 20.929 0 0 0 151.385 40.044 A 17.123 17.123 0 0 0 153 44.2 Q 155.111 48.039 161.182 51.693 A 47.005 47.005 0 0 0 161.7 52 Q 167.129 55.174 177.092 59.046 A 260.029 260.029 0 0 0 181.2 60.6 Q 192.241 64.705 200.026 69.111 A 71.007 71.007 0 0 1 205.9 72.8 Q 215 79.2 218.8 86.7 A 35.157 35.157 0 0 1 222.283 98.426 A 44.311 44.311 0 0 1 222.6 103.8 A 43.42 43.42 0 0 1 221.265 114.801 A 34.209 34.209 0 0 1 216.1 126 A 39.236 39.236 0 0 1 202.237 138.046 A 48.713 48.713 0 0 1 198.1 140 A 61.043 61.043 0 0 1 183.28 144.008 A 80.054 80.054 0 0 1 171.8 144.8 A 94.734 94.734 0 0 1 156.249 143.575 A 76.098 76.098 0 0 1 145.2 140.9 A 76.412 76.412 0 0 1 134.467 136.536 A 56.865 56.865 0 0 1 125 130.6 Z M 250.6 142 L 250.6 2.8 Q 257.6 2 268 1.4 Q 276.938 0.885 288.091 0.812 A 570.686 570.686 0 0 1 291.8 0.8 Q 308.6 0.8 320.318 4.978 A 45.207 45.207 0 0 1 331.2 10.5 A 33.421 33.421 0 0 1 340.325 19.814 Q 344.708 26.681 344.982 35.602 A 39.053 39.053 0 0 1 345 36.8 A 34.104 34.104 0 0 1 343.746 46.24 A 27.595 27.595 0 0 1 339.1 55.5 A 36.573 36.573 0 0 1 331.335 62.92 Q 327.761 65.49 323.294 67.605 A 63.327 63.327 0 0 1 322 68.2 A 60.434 60.434 0 0 1 331.272 72.321 Q 336.378 75.161 340.094 78.78 A 33.74 33.74 0 0 1 342.6 81.5 Q 349.6 90 349.6 102.4 A 38.66 38.66 0 0 1 346.625 117.795 Q 342.92 126.432 334.6 132.7 A 49.361 49.361 0 0 1 319.846 140.121 Q 313.047 142.303 304.769 143.258 A 120.388 120.388 0 0 1 291 144 Q 278.8 144 267.9 143.4 Q 257 142.8 250.6 142 Z M 292.4 77.6 L 269.6 77.6 L 269.6 127 A 188.365 188.365 0 0 0 283.475 128.032 A 230.322 230.322 0 0 0 292.4 128.2 Q 304.081 128.2 312.403 125.444 A 34.541 34.541 0 0 0 320.2 121.8 A 21.755 21.755 0 0 0 327.036 115.09 Q 329.706 110.848 330.123 105.3 A 28.005 28.005 0 0 0 330.2 103.2 A 23.456 23.456 0 0 0 328.456 94.001 Q 326.252 88.775 321.265 85.025 A 28.054 28.054 0 0 0 320.4 84.4 Q 313.146 79.367 301.289 78.059 A 81.242 81.242 0 0 0 292.4 77.6 Z M 269.6 17.2 L 269.6 62.8 L 291.6 62.8 A 61.32 61.32 0 0 0 301.668 62.025 Q 306.964 61.142 311.27 59.254 A 30.522 30.522 0 0 0 316.7 56.2 A 24.379 24.379 0 0 0 322.183 50.966 A 19.116 19.116 0 0 0 326 39.2 A 21.595 21.595 0 0 0 324.652 31.402 Q 322.478 25.742 316.8 22.1 A 33.285 33.285 0 0 0 307.827 18.172 Q 303.685 17.001 298.741 16.526 A 74.652 74.652 0 0 0 291.6 16.2 Q 285 16.2 279.6 16.5 Q 274.2 16.8 269.6 17.2 Z" vector-effect="non-scaling-stroke"/></g></svg>