<?xml version="1.0" encoding="utf-8"?>
<!-- Generator: Adobe Illustrator 25.4.1, SVG Export Plug-In . SVG Version: 6.00 Build 0)  -->
<svg version="1.1" id="Layer_1" xmlns="http://www.w3.org/2000/svg" xmlns:xlink="http://www.w3.org/1999/xlink" x="0px" y="0px"
	 viewBox="0 0 800 800" style="enable-background:new 0 0 800 800;" xml:space="preserve">
<path d="M110.7,164.2c-2.8,2.9-2.8,4.8-2.8,100.1s0,97.2,2.8,100.1c2.6,2.6,4.7,2.9,21.3,2.9s18.8-0.3,21.3-2.9
	c2.7-2.7,2.8-4.8,2.8-52.6c0-27.4,0.4-49.7,1.1-49.7c0.6,0,8.7,13.4,17.9,29.8c30.6,54,41,71.7,43.2,73.5c1.6,1.3,8.4,1.9,22.5,1.9
	c17.8,0,20.6-0.3,23.5-2.7l3.4-2.7v-97.5v-97.5l-3.4-2.7c-2.8-2.3-5.7-2.7-20.8-2.7c-15.1,0-17.9,0.4-20.8,2.7l-3.4,2.7l-0.7,42.2
	l-0.7,42.2l-24.7-43.6c-18.2-32-25.7-43.9-28.2-44.9c-2-0.7-14.4-1.3-27.6-1.3C115.4,161.3,113.3,161.6,110.7,164.2z"/>
<path d="M329.2,163.2c-5.3,2-5.3,1.7-5.3,101.1c0,89.2,0.1,96,2.4,98.9c2.3,3,2.8,3,53.1,3.1c41.3,0,52.6-0.4,59.8-2.1
	c29.2-7.3,46.5-30.8,44.5-61.2c-0.9-14.4-5.5-24.7-15.8-35.2l-7.6-8l5.7-6c10.7-11.1,15.5-27.5,12.7-44.2c-2-12.6-6.3-21-15.2-30
	c-8.8-8.8-18.2-13.8-30.2-15.8C424.6,162.2,333,161.7,329.2,163.2z M418.8,214.8c4.4,4.7,4.9,9.6,1.9,15.8
	c-2.7,5.6-6.1,6.4-25.4,6.4h-16l-0.4-13.3l-0.4-13.1h18.2h18.3L418.8,214.8z M417.9,288.3c5.6,2.6,8.8,7.3,8.8,13.4
	c0,12.1-5.6,15-29.4,15.1l-18,0.1l-0.4-15.4l-0.4-15.3H396C407.9,286.3,414.8,286.8,417.9,288.3z"/>
<path d="M580.3,164.9c-3.5,2.1-2.7-0.4-35.3,117.3c-11.3,40.8-20.6,75.6-20.6,77.2c0,6.9,3.1,7.8,23.3,7.8
	c22.3,0,20.3,1.6,26.7-22.3l4.2-15.6h22.2h22.1l4.5,16.6c2.4,9.1,5.1,17.7,6.1,19c1.4,2,5,2.3,24.4,2.3c24.7,0,26.5-0.6,26.5-8
	c0-5.3-50.7-190.7-52.8-193.3C629.1,163.2,584.9,162.2,580.3,164.9z M605.5,262.4c1.7,7,3.2,13.7,3.2,14.6c0,1.3-2.5,1.9-8.2,1.9
	h-8.2l0.9-4c2.6-12.6,7.2-27.5,8.1-26.5C601.8,249,603.7,255.2,605.5,262.4z"/>
<path d="M118.4,435.6c-2.8,2.9-2.8,4.8-2.8,100.1s0,97.2,2.8,100.1c2.6,2.6,4.7,2.9,21.3,2.9s18.8-0.3,21.3-2.9
	c2.7-2.7,2.8-4.8,2.8-52.6c0-27.4,0.4-49.7,1.1-49.7c0.6,0,8.7,13.4,17.9,29.8c30.6,54,41,71.7,43.2,73.5c1.6,1.3,8.4,1.9,22.5,1.9
	c17.8,0,20.6-0.3,23.5-2.7l3.4-2.7v-97.5v-97.5l-3.4-2.7c-2.8-2.3-5.7-2.7-20.8-2.7c-15.1,0-17.9,0.4-20.8,2.7l-3.4,2.7l-0.7,42.2
	l-0.7,42.2l-24.7-43.6c-18.2-32-25.7-43.9-28.2-44.9c-2-0.7-14.4-1.3-27.6-1.3C123.1,432.7,121,433,118.4,435.6z"/>
<path d="M337,434.6c-5.3,2-5.3,1.7-5.3,101.1c0,89.2,0.1,96,2.4,98.9c2.3,3,2.8,3,53.1,3.1c41.3,0,52.6-0.4,59.8-2.1
	c29.2-7.3,46.5-30.8,44.5-61.2c-0.9-14.4-5.5-24.7-15.8-35.2l-7.6-8l5.7-6c10.7-11.1,15.5-27.5,12.7-44.2c-2-12.6-6.3-21-15.2-30
	c-8.8-8.8-18.2-13.8-30.2-15.8C432.3,433.6,340.7,433.1,337,434.6z M426.6,486.2c4.4,4.7,4.9,9.6,1.9,15.8
	c-2.7,5.6-6.1,6.4-25.4,6.4h-16l-0.4-13.3l-0.4-13.1h18.2h18.3L426.6,486.2z M425.6,559.7c5.6,2.6,8.8,7.3,8.8,13.4
	c0,12.1-5.6,15-29.4,15.1l-18,0.1l-0.4-15.4l-0.4-15.3h17.5C415.6,557.7,422.6,558.3,425.6,559.7z"/>
<path d="M588.1,436.3c-3.5,2.1-2.7-0.4-35.3,117.3c-11.3,40.8-20.6,75.6-20.6,77.2c0,6.9,3.1,7.8,23.3,7.8
	c22.3,0,20.3,1.6,26.7-22.3l4.2-15.6h22.2h22.1l4.5,16.6c2.4,9.1,5.1,17.7,6.1,19c1.4,2,5,2.3,24.4,2.3c24.7,0,26.5-0.6,26.5-8
	c0-5.3-50.7-190.7-52.8-193.3C636.8,434.6,592.7,433.6,588.1,436.3z M613.3,533.8c1.7,7,3.2,13.7,3.2,14.6c0,1.3-2.5,1.9-8.2,1.9
	h-8.2l0.9-4c2.6-12.6,7.2-27.5,8.1-26.5C609.5,520.4,611.4,526.6,613.3,533.8z"/>
</svg>
