<?xml version="1.0" encoding="utf-8"?>
<!-- Generator: Adobe Illustrator 28.4.1, SVG Export Plug-In . SVG Version: 6.00 Build 0)  -->
<svg version="1.1" id="Layer_1" xmlns="http://www.w3.org/2000/svg" xmlns:xlink="http://www.w3.org/1999/xlink" x="0px" y="0px"
	 viewBox="0 0 322.4 150.4" style="enable-background:new 0 0 322.4 150.4;" xml:space="preserve">
<style type="text/css">
	.st0{fill-rule:evenodd;clip-rule:evenodd;stroke:#000000;stroke-width:0.7087;stroke-linecap:round;}
</style>
<g id="svgGroup">
	<path vector-effect="non-scaling-stroke" class="st0" d="M0,94.8V8h19v83.8c0,3.9,0.2,7.8,0.8,11.6c0.6,4.1,1.6,7.9,2.9,11.2
		c1.1,2.9,2.6,5.7,4.5,8.2c5.5,7.3,13.7,11,24.6,11c3.4,0,6.7-0.3,10-1.1c6.1-1.3,11.5-4.7,15.4-9.6c2.5-3.2,4.4-6.9,5.6-10.8
		c1.9-5.7,2.8-12.6,2.8-20.5V8H104v86c0,11.7-2.2,21.8-6.5,30.3c-2.8,5.5-6.6,10.4-11.2,14.5c-2.2,1.9-4.5,3.5-7,4.9
		c-5.3,3-11.1,5-17.1,5.9c-3.4,0.5-6.9,0.8-10.4,0.8c-5.4,0-10.8-0.6-16-1.8c-8.4-2-16-6.3-22-12.6c-5.1-5.5-8.9-12.1-10.9-19.3
		c-1.4-4.8-2.3-10.1-2.7-15.9C0.1,98.8,0,96.8,0,94.8z M126,139.6l7.6-15c3.5,2.9,7.8,5.4,13.1,7.3c4.9,1.8,10,2.7,15.2,2.9
		c0.6,0,1.1,0,1.7,0c7.5,0,13.1-1.2,16.9-3.7c1.1-0.7,2.2-1.6,3.1-2.6c1.7-1.9,2.7-4.4,2.6-6.9c0-1.5-0.2-2.9-0.6-4.3
		c-0.3-1.1-0.8-2.1-1.5-3.1c-0.5-0.8-1.2-1.5-1.9-2.2c-1.4-1.4-3.4-2.8-5.8-4.1c-1.3-0.7-2.6-1.4-4-2c-2.8-1.3-6.2-2.6-10.2-4
		c-0.7-0.2-1.3-0.5-2-0.7c-3-1-5.9-2.2-8.8-3.5c-2.8-1.3-5.3-2.7-7.6-4.1c-2-1.3-3.8-2.7-5.5-4.3c-4.9-4.6-7.3-11-7.3-19.1
		c0-6.9,2.8-13.4,7.9-18c0.8-0.8,1.7-1.6,2.6-2.3c3.6-2.8,7.7-4.9,12.1-6.1c5-1.5,10.6-2.2,17-2.2c6.7,0,12.6,0.7,17.8,2.1
		c2.8,0.7,5.6,1.7,8.3,2.7c2,0.8,3.9,1.6,5.7,2.6l-5,14.8c-2.3-1.4-4.8-2.6-7.3-3.5c-1.6-0.6-3.3-1.2-5-1.7c-2.9-0.8-5.9-1.4-9-1.7
		c-2.1-0.2-4.2-0.3-6.3-0.3c-4.4,0-8.2,0.6-11.3,1.7c-1.6,0.6-3.1,1.4-4.5,2.5c-2.4,1.9-4,3.8-4.8,5.9c-0.4,1-0.6,2.2-0.6,3.3
		c0,2.7,1.1,5.2,3,7.1c0.4,0.4,0.8,0.8,1.2,1.1c2.8,2.2,8.1,4.7,16,7.3c0.1,0,0.3,0.1,0.4,0.1c11.4,3.8,19.8,8,25.3,12.5
		c0.8,0.7,1.6,1.4,2.3,2.1c4.9,4.9,7.6,11.6,7.8,18.5c0,0.5,0,1,0,1.5c0,9-3.5,16.2-10.5,21.5c-0.3,0.2-0.5,0.4-0.8,0.6
		c-3.9,2.7-8.2,4.7-12.8,5.9c-5.2,1.4-11,2.2-17.5,2.2c-3.9,0-7.8-0.3-11.7-0.8c-3.2-0.5-6.4-1.2-9.6-2.2
		c-5.9-1.9-10.8-4.2-14.8-7.1C126.6,140.1,126.3,139.8,126,139.6z M245.4,139.4v8.6h-16.8V0h18v54.8c2.1-2.4,4.8-4.7,8.3-6.9
		c1.1-0.7,2.2-1.4,3.3-2c3.3-1.8,6.8-3,10.5-3.6c2.6-0.4,5.2-0.7,7.8-0.7c8,0,15.5,2.1,22.5,6.3s12.6,10.3,16.9,18.2
		c4.1,7.6,6.2,16.7,6.4,27.4c0,0.5,0,1,0,1.5c0,8.3-1.3,15.8-4,22.6c-1.6,4.2-3.8,8.3-6.3,12c-1.3,1.9-2.8,3.8-4.4,5.5
		c-3.5,3.9-7.7,7.2-12.3,9.8c-0.9,0.5-1.9,1-2.8,1.5c-4.6,2.2-9.6,3.6-14.7,3.9c-0.8,0.1-1.6,0.1-2.5,0.1c-6,0-11.6-1.1-16.9-3.3
		S248.9,142.3,245.4,139.4z M246.6,70.8v55.6c2.2,1.7,4.7,3.2,7.3,4.4c1.2,0.5,2.3,1,3.5,1.4c4,1.4,8.1,2.1,12.3,2.2
		c0.3,0,0.6,0,0.9,0c3.4,0,6.8-0.5,10-1.4c2.6-0.8,5-1.9,7.3-3.4c4.2-2.7,7.8-6.4,10.3-10.8c0.5-0.9,1-1.8,1.5-2.8
		c1.8-3.8,3.1-7.9,3.7-12.1c0.4-2.7,0.6-5.5,0.6-8.3c0-3.2-0.2-6.5-0.8-9.7c-0.7-3.8-1.7-7.2-3.2-10.3c-0.1-0.2-0.2-0.4-0.3-0.6
		c-2.9-5.7-6.7-10.1-11.4-13.2c-4.7-3.1-10-4.6-15.7-4.6c-3.9,0-7.7,0.7-11.3,2.1c-1.5,0.6-2.9,1.3-4.2,2.2
		C252.5,64.4,249,67.5,246.6,70.8z"/>
</g>
</svg>
