<?xml version="1.0" encoding="utf-8"?>
<!-- Generator: Adobe Illustrator 28.4.1, SVG Export Plug-In . SVG Version: 6.00 Build 0)  -->
<svg version="1.1" id="Layer_1" xmlns="http://www.w3.org/2000/svg" xmlns:xlink="http://www.w3.org/1999/xlink" x="0px" y="0px"
	 viewBox="0 0 800 800" style="enable-background:new 0 0 800 800;" xml:space="preserve">
<path d="M697.8,339.6h-55.4l-14.5-45.1h-83l-14.3,45.1h-55.1l82-225.5h60.2L697.8,339.6z M614.4,249.4l-23.7-74.8
	c-1.8-5.7-3.1-12.4-3.8-20.3h-1.3c-0.4,6.6-1.7,13.2-4,19.6l-24.1,75.4H614.4z M116.2,687V461.4h82.5c25.3,0,44.7,4.6,58.3,13.8
	c13.6,9.2,20.4,22.2,20.4,38.9c0,12.1-4.1,22.7-12.4,31.8c-8.3,9.1-18.8,15.4-31.7,19v0.7c16.3,2,29.3,7.9,39.1,17.8
	c9.7,9.9,14.6,21.9,14.6,36.1c0,20.7-7.5,37.2-22.4,49.3c-14.9,12.2-35.3,18.2-61.1,18.2H116.2z M167.7,500.1v51.6h21.8
	c10.2,0,18.3-2.4,24.2-7.4c5.9-4.9,8.8-11.6,8.8-20.2c0-16-12.1-24-36.2-24H167.7z M167.7,590.3v58H195c11.6,0,20.7-2.7,27.3-8
	c6.6-5.3,9.9-12.6,9.9-21.8c0-8.8-3.2-15.7-9.7-20.7c-6.5-5-15.5-7.5-27.2-7.5H167.7z M320.9,124.2c57.8-16.6,116.6-14.2,169.6,3.5
	l-42.7,50.9c-35.4-7.7-73.1-7-110.3,3.7c-77.6,22.2-134,82.3-155.1,154.5l111.7-32l-41.4,74.7L107.5,421L65.9,275.8l41.4-74.7
	l26.4,92C165.6,213.8,232.4,149.5,320.9,124.2z M479.1,675.8c-57.8,16.6-116.6,14.2-169.6-3.5l42.7-50.9c35.4,7.7,73.1,7,110.3-3.7
	c77.6-22.2,134-82.3,155.1-154.5l-111.7,32l41.4-74.7L692.5,379l41.6,145.2l-41.4,74.7l-26.4-92
	C634.4,586.2,567.6,650.5,479.1,675.8z"/>
</svg>
