<?xml version="1.0" encoding="utf-8"?>
<!-- Generator: Adobe Illustrator 28.4.1, SVG Export Plug-In . SVG Version: 6.00 Build 0)  -->
<svg version="1.1" id="Layer_1" xmlns="http://www.w3.org/2000/svg" xmlns:xlink="http://www.w3.org/1999/xlink" x="0px" y="0px"
	 viewBox="0 0 15 15" style="enable-background:new 0 0 15 15;" xml:space="preserve">
<style type="text/css">
	.st0{fill-rule:evenodd;clip-rule:evenodd;fill:#6F6F6F;}
	.st1{fill-rule:evenodd;clip-rule:evenodd;}
	.st2{fill-rule:evenodd;clip-rule:evenodd;fill:#FFFFFF;}
</style>
<path class="st0" d="M0,5.8h14.8v0.4H0V5.8z"/>
<path class="st1" d="M4.2,1.5c0.2,0,0.4,0.2,0.5,0.4l3.2,10c0.1,0.3,0,0.7-0.3,0.8s-0.5,0-0.6-0.3L6,9.1H2.6l-1,3.3
	c-0.1,0.3-0.4,0.5-0.6,0.3c-0.3-0.1-0.4-0.5-0.3-0.8l3.2-10C3.8,1.7,4,1.5,4.2,1.5z"/>
<polygon class="st2" points="4.2,3.8 5.6,8.1 2.9,8.1 "/>
<path class="st1" d="M11.5,6C9.9,6,8.6,7.5,8.6,9.4c0,2,1.3,3.4,2.9,3.4c0.8,0,1.7-0.3,2.2-1v0.5c0,0.2,0.2,0.4,0.4,0.4
	s0.4-0.2,0.4-0.4V6.5c0-0.2-0.2-0.4-0.4-0.4s-0.4,0.2-0.4,0.4V7C13.2,6.4,12.4,6,11.5,6z"/>
<path class="st2" d="M13.7,10.6V8.1c-0.4-0.7-1.2-1.2-2-1.2c-1,0-2,0.9-2,2.5c0,1.5,1,2.5,2,2.5C12.6,11.9,13.3,11.3,13.7,10.6z"/>
<path class="st1" d="M0.1,12.7H15v0.4H0.1V12.7z"/>
</svg>
