<?xml version="1.0" encoding="utf-8"?>
<!-- Generator: Adobe Illustrator 28.4.1, SVG Export Plug-In . SVG Version: 6.00 Build 0)  -->
<svg version="1.1" id="Layer_1" xmlns="http://www.w3.org/2000/svg" xmlns:xlink="http://www.w3.org/1999/xlink" x="0px" y="0px"
	 viewBox="0 0 800 800" style="enable-background:new 0 0 800 800;" xml:space="preserve">
<style type="text/css">
	.st0{fill:none;stroke:#000000;stroke-width:50;stroke-miterlimit:66.6667;}
	.st1{fill:none;stroke:#808080;stroke-width:50;stroke-miterlimit:66.6667;}
	.st2{fill:none;stroke:#808080;stroke-width:50;stroke-miterlimit:125;}
</style>
<path class="st0" d="M196.7,511.5L66.5,641.6c-4,4-4.9,9.6-2,12.5l78.7,78.7c2.9,2.9,8.5,2,12.5-2l130.1-130.1c4-4,4.9-9.6,2-12.5
	l-78.7-78.7C206.2,506.6,200.6,507.5,196.7,511.5z"/>
<path class="st1" d="M420.5,289.9L290.4,420c-4,4-4.9,9.6-2,12.5l78.7,78.7c2.9,2.9,8.5,2,12.5-2l130.1-130.1c4-4,4.9-9.6,2-12.5
	L433,287.9C430.1,285,424.5,285.9,420.5,289.9z"/>
<path class="st0" d="M643.3,67.2L513.2,197.3c-4,4-4.9,9.6-2,12.5l78.7,78.7c2.9,2.9,8.5,2,12.5-2l130.1-130.1c4-4,4.9-9.6,2-12.5
	l-78.7-78.7C652.9,62.3,647.3,63.2,643.3,67.2z"/>
<line class="st2" x1="266.4" y1="410.4" x2="62.9" y2="355.9"/>
<line class="st2" x1="330.4" y1="329.9" x2="181.5" y2="181"/>
<line class="st2" x1="410.9" y1="265.9" x2="356.4" y2="62.4"/>
</svg>
