<?xml version="1.0" encoding="utf-8"?>
<!-- Generator: Adobe Illustrator 28.4.1, SVG Export Plug-In . SVG Version: 6.00 Build 0)  -->
<svg version="1.1" id="Layer_1" xmlns="http://www.w3.org/2000/svg" xmlns:xlink="http://www.w3.org/1999/xlink" x="0px" y="0px"
	 viewBox="0 0 800 800" style="enable-background:new 0 0 800 800;" xml:space="preserve">
<path d="M265,674.4c-56.2-21.4-101.8-58.6-133.6-104.6l64.7-15.1c23.7,27.4,54.3,49.5,90.5,63.2c75.4,28.8,156.6,14.6,216.8-30.5
	L394.8,546l77.9-34.9L613.8,565l-53.9,141.1L481.9,741l34.1-89.4C443,695.9,351,707.3,265,674.4z M478.7,122.7
	c56.5,20.6,102.6,57.2,135,102.7l-64.5,16c-24.1-27.1-55-48.7-91.3-62c-75.8-27.8-156.8-12.4-216.3,33.5l109.1,39.9l-77.5,36
	l-141.8-52L183.3,95l77.5-36l-32.9,89.9C300.5,103.7,392.3,91,478.7,122.7z"/>
<path d="M44.7,491.1L127,299.3h30.7l87.7,191.8h-32.3l-24.7-58H99l-23.7,58C75.4,491.1,44.7,491.1,44.7,491.1z M106.6,412.4h72.6
	l-22.1-53.1c-7-15.9-11.8-29.5-15.1-39.6c-2.7,12.1-6.5,24.6-11.3,36.7L106.6,412.4z"/>
<path d="M330.2,491.1V299.3h80.2c16.1,0,29.6,1.9,39.3,5.8c9.7,3.9,17.8,9.7,23.1,17.9c5.4,8.2,8.6,16.4,8.6,25.1
	c0,8.2-2.7,15.9-7.5,23.2c-4.8,7.2-12.4,13-22.6,17.4c12.9,3.4,22.6,9.2,29.6,17.4c7,8.2,10.2,17.9,10.2,29c0,9.2-2.2,17.4-6.5,25.1
	c-4.3,7.7-9.7,13.5-15.6,17.9c-6.5,4.3-14,7.2-23.1,9.7c-9.1,1.9-21,3.4-34.4,3.4L330.2,491.1L330.2,491.1z M358.2,380h46.3
	c12.4,0,21.5-1,26.9-2.4c7-1.9,12.4-5.3,16.1-9.7c3.8-4.3,5.4-10.1,5.4-16.9c0-6.3-1.6-12.1-4.8-16.9c-3.2-4.8-8.1-8.2-14.5-10.1
	c-6.5-1.9-17.2-2.9-32.3-2.9h-42.5V380H358.2z M358.2,468.4h53.3c9.1,0,15.6-0.5,19.4-1c6.5-1,11.8-2.9,16.1-5.3
	c4.3-2.4,8.1-5.8,10.8-10.6c2.7-4.8,4.3-10.1,4.3-15.9c0-7.2-2.2-13.5-5.9-18.8c-4.3-5.3-9.7-9.2-17.2-11.1
	c-7-1.9-17.8-3.4-31.2-3.4h-49.5V468.4z"/>
<path d="M726.8,424.5l28.5,6.3c-5.9,20.8-16.7,36.7-31.7,47.8c-15.6,11.1-34.4,16.4-56.5,16.4c-23.1,0-42-4.3-56-12.6
	c-14.5-8.2-25.3-20.8-32.8-36.7c-7.5-15.9-11.3-33.3-11.3-51.7c0-19.8,4.3-37.2,12.9-52.2c8.6-15,20.4-26.1,36-33.8
	s32.8-11.6,51.6-11.6c21.5,0,39.3,4.8,53.8,14.5s24.7,23.7,30.7,41.1l-28,5.8c-4.8-14-12.4-24.2-21.5-30.4
	c-9.7-6.3-21.5-9.7-35.5-9.7c-16.7,0-30.1,3.4-41.4,10.6c-11.3,7.2-18.8,16.4-23.1,28.5c-4.3,12.1-6.5,24.2-6.5,36.7
	c0,16.4,2.7,30.4,8.1,42.5c5.4,12.1,13.5,21.3,24.7,27.5c11.3,5.8,23.1,9.2,36,9.2c15.6,0,29.1-3.9,40.4-12.1
	S722.5,440.5,726.8,424.5z"/>
</svg>
