<?xml version="1.0" encoding="utf-8"?>
<!-- Generator: Adobe Illustrator 28.4.1, SVG Export Plug-In . SVG Version: 6.00 Build 0)  -->
<svg version="1.1" id="Layer_1" xmlns="http://www.w3.org/2000/svg" xmlns:xlink="http://www.w3.org/1999/xlink" x="0px" y="0px"
	 viewBox="0 0 800 800" style="enable-background:new 0 0 800 800;" xml:space="preserve">
<style type="text/css">
	.st0{stroke:#000000;stroke-width:20;stroke-miterlimit:10;}
	.st1{fill:none;stroke:#000000;stroke-width:25;stroke-linejoin:bevel;stroke-miterlimit:125;}
	.st2{fill:none;stroke:#000000;stroke-width:25;stroke-miterlimit:125;}
</style>
<path class="st0" d="M21.3,375l125.3-325h46.7l133.5,325h-49.1l-37.7-98.2H104L68,375C68,375,21.3,375,21.3,375z M115.5,241.5H226
	l-33.6-90.1c-10.6-27-18-49.9-22.9-67.1c-4.1,20.5-9.8,41.8-17.2,62.2L115.5,241.5z"/>
<path class="st0" d="M544.5,755.2V432.1h121.3c24.4,0,44.8,3.3,59.4,9.8c14.7,6.5,26.9,16.3,35,30.1c8.1,13.8,13,27.7,13,42.3
	c0,13.8-4.1,26.9-11.4,39.1c-7.3,12.2-18.7,22-34.2,29.3c19.5,5.7,34.2,15.5,44.8,29.3c10.6,13.8,15.5,30.1,15.5,48.8
	c0,15.5-3.3,29.3-9.8,42.3c-6.5,13-14.7,22.8-23.6,30.1c-9.8,7.3-21.2,12.2-35,16.3c-13.8,3.3-31.7,5.7-52.1,5.7L544.5,755.2
	L544.5,755.2z M586.8,568h70c18.7,0,32.6-1.6,40.7-4.1c10.6-3.3,18.7-9,24.4-16.3s8.1-17.1,8.1-28.5c0-10.6-2.4-20.4-7.3-28.5
	c-4.9-8.1-12.2-13.8-22-17.1c-9.8-3.3-26-4.9-48.8-4.9h-64.3V568H586.8z M586.8,717h80.6c13.8,0,23.6-0.8,29.3-1.6
	c9.8-1.6,17.9-4.9,24.4-9s12.2-9.8,16.3-17.9s6.5-17.1,6.5-26.9c0-12.2-3.3-22.8-9-31.7c-6.5-9-14.7-15.5-26-18.7
	c-10.6-3.3-26.9-5.7-47.2-5.7h-74.9V717z"/>
<path class="st0" d="M671.4,315.2c-11.2,9.3-21.8,16.2-32.3,20.5c-10.6,3.7-21.8,5.6-33.6,5.6c-19.9,0-34.8-5-45.4-14.3
	c-10.6-9.3-15.6-21.8-15.6-36.7c0-8.7,1.9-16.8,6.2-24.3c3.7-7.5,9.3-13.1,15.6-17.4c6.2-4.4,13.7-7.5,21.8-10
	c6.2-1.9,14.9-3.1,26.7-4.4c24.3-3.1,42.3-6.2,54.1-10.6c0-4.4,0-6.8,0-8.1c0-12.4-3.1-21.1-8.7-26.1c-7.5-6.8-19.3-10.6-34.8-10.6
	c-14.3,0-24.9,2.5-31.7,7.5c-6.8,5-11.8,13.7-14.9,26.7l-29.9-4.4c2.5-12.4,6.8-23,13.1-30.5c6.2-8.1,14.9-13.7,26.7-18
	c11.8-4.4,25.5-6.2,40.4-6.2c15.6,0,28,1.9,37.3,5.6c9.3,3.7,16.8,8.1,21.1,13.7c4.4,5.6,7.5,12.4,9.3,20.5c1.2,5,1.2,14.3,1.2,28
	v40.4c0,28,0.6,46,1.9,53.5c1.2,7.5,3.7,14.9,7.5,21.8h-31.7C674.5,330.7,672.6,323.3,671.4,315.2z M668.9,247.4
	c-11.2,4.4-27.4,8.1-49.8,11.2c-12.4,1.9-21.1,3.7-26.7,6.2c-5,2.5-9.3,5.6-11.8,10c-2.5,4.4-4.4,9.3-4.4,14.3
	c0,8.1,3.1,14.9,9.3,20.5c6.2,5.6,14.9,8.1,26.7,8.1c11.8,0,21.8-2.5,31.1-7.5c9.3-5,15.6-11.8,19.9-21.1c3.1-6.8,5-16.8,5-30.5
	v-11.2H668.9z"/>
<path class="st0" d="M109.5,744.4H73.2V424.2h39.5v114.5c16.9-21,37.9-31.5,63.7-31.5c14.5,0,27.4,3.2,40.3,8.9
	c12.9,5.6,23.4,13.7,31.5,24.2c8.1,10.5,14.5,22.6,19.4,37.9c4.8,15.3,7.3,30.7,7.3,47.6c0,39.5-9.7,70.2-29.8,92
	c-19.4,21.8-43.6,32.3-71,32.3c-27.4,0-49.2-11.3-64.5-34.7L109.5,744.4L109.5,744.4z M109.5,626.7c0,28.2,4,47.6,11.3,60.5
	c12.1,20.2,29,30.7,50,30.7c16.9,0,32.3-7.3,44.4-22.6c12.9-15.3,18.6-37.1,18.6-67c0-30.7-5.6-52.4-17.7-67s-26.6-21.8-43.6-21.8
	c-16.9,0-32.3,7.3-44.4,22.6C115.1,576.7,109.5,598.4,109.5,626.7z"/>
<g>
	<polyline class="st1" points="426.9,282.5 504.6,272 426.9,261.6 	"/>
	<g>
		<line class="st2" x1="504.6" y1="272" x2="315.9" y2="272"/>
	</g>
</g>
<g>
	<polyline class="st1" points="432.6,639.2 510.3,628.7 432.6,618.2 	"/>
	<g>
		<line class="st2" x1="510.3" y1="628.7" x2="321.6" y2="628.7"/>
	</g>
</g>
</svg>
