<?xml version="1.0" encoding="utf-8"?>
<!-- Generator: Adobe Illustrator 28.4.1, SVG Export Plug-In . SVG Version: 6.00 Build 0)  -->
<svg version="1.1" id="Layer_1" xmlns="http://www.w3.org/2000/svg" xmlns:xlink="http://www.w3.org/1999/xlink" x="0px" y="0px"
	 viewBox="0 0 800 800" style="enable-background:new 0 0 800 800;" xml:space="preserve">
<style type="text/css">
	.st0{fill:none;stroke:#000000;stroke-width:25;stroke-linejoin:bevel;stroke-miterlimit:125;}
	.st1{fill:none;stroke:#000000;stroke-width:25;stroke-miterlimit:125;}
	.st2{fill:none;stroke:#000000;stroke-width:20;stroke-miterlimit:66.6667;}
</style>
<g>
	<polyline class="st0" points="247.7,351.1 237,271.5 226.3,351.1 	"/>
	<g>
		<line class="st1" x1="237" y1="271.5" x2="237" y2="464.8"/>
	</g>
</g>
<path class="st2" d="M720.9,91.4H79.1c-19.7,0-35.7,2.2-35.7,4.8v72.2c0,2.7,16,4.8,35.7,4.8h641.8c19.7,0,35.7-2.2,35.7-4.8V96.2
	C756.6,93.5,740.6,91.4,720.9,91.4z"/>
<path class="st2" d="M720.9,569.7H79.1c-19.7,0-35.7,2.2-35.7,4.8v72.2c0,2.7,16,4.8,35.7,4.8h641.8c19.7,0,35.7-2.2,35.7-4.8v-72.2
	C756.6,571.8,740.6,569.7,720.9,569.7z"/>
<g>
	<polyline class="st0" points="551.3,388.5 562,468.1 572.7,388.5 	"/>
	<g>
		<line class="st1" x1="562" y1="468.1" x2="562" y2="274.8"/>
	</g>
</g>
</svg>
