<?xml version="1.0" encoding="utf-8"?>
<!-- Generator: Adobe Illustrator 16.0.0, SVG Export Plug-In . SVG Version: 6.00 Build 0)  -->
<!DOCTYPE svg PUBLIC "-//W3C//DTD SVG 1.1//EN" "http://www.w3.org/Graphics/SVG/1.1/DTD/svg11.dtd">
<svg version="1.1" id="图层_1" xmlns="http://www.w3.org/2000/svg" xmlns:xlink="http://www.w3.org/1999/xlink" x="0px" y="0px"
	 viewBox="0 0 34 34" enable-background="new 0 0 34 34" xml:space="preserve">
<path fill="#2F80B6" d="M0,0h34v34H0V0z"/>
<path fill="#FFFFFF" d="M26.708,24.994c-0.128,0-0.258,0-0.388,0c-2.38-0.908-3.067-3.461-5.207-4.518
	c-0.954-0.471-2.478-0.498-3.993-0.498c-2.091,0-3.592,0.105-4.768,0.945c-1.773,1.266-2.525,3.332-4.672,4.07
	c-0.114,0-0.228,0-0.34,0C5.1,24.062,6.2,18.776,6.659,16.951c0.311-1.235,0.566-2.189,0.876-3.226
	c0.483-1.62,0.853-3.494,2.237-4.222c1.562-0.817,3.092,0.229,4.478,0.596c1.409,0.373,2.966,0.425,4.38,0.248
	c1.301-0.162,2.312-0.943,3.504-1.242c0.314-0.077,0.565-0.103,0.827-0.099c2.132,0.037,2.512,1.875,3.114,3.575
	c0.826,2.324,1.752,5.051,1.9,7.747C28.085,22.363,28.095,24.549,26.708,24.994z M23.011,11.887
	c1.267,0.318,1.486-1.942,0.049-1.589C22.106,10.532,22.521,11.764,23.011,11.887z M9.287,11.44
	c-0.879,1.163,0.042,2.76,1.362,2.731c0.967-0.022,1.667-0.746,1.558-2.135C11.908,10.748,10.03,10.452,9.287,11.44z M20.821,12.73
	c0.01,0.973,1.449,1.112,1.654,0.249c0.179-0.758-0.389-1.159-0.973-1.043C20.987,12.038,20.817,12.366,20.821,12.73z
	 M25.249,13.526c0.779-0.308,0.51-1.824-0.535-1.59C23.442,12.221,24.282,13.907,25.249,13.526z M22.961,15.164
	c1.288,0.469,1.565-1.898,0.146-1.589C22.335,13.743,22.314,14.929,22.961,15.164z M13.423,14.419
	c-2.348,0.248-1.974,3.953,0.391,3.774c0.956-0.073,1.865-0.985,1.653-2.384C15.102,15.016,14.573,14.297,13.423,14.419z
	 M20.334,17.943c0.976-0.089,1.601-1.203,1.266-2.134c-0.23-0.636-0.954-0.997-1.558-0.943
	C18.001,15.046,18.356,18.127,20.334,17.943z"/>
</svg>
