<?xml version="1.0" encoding="utf-8"?>
<!-- Uploaded to: SVG Repo, , Generator: SVG Repo Mixer Tools -->
<svg fill="#000000" width="800px" height="800px" viewBox="0 0 32 32" id="icon" xmlns="http://www.w3.org/2000/svg">
  <defs>
    <style>.cls-1{fill:none;}</style>
    <linearGradient id="opacityGradient" x1="100%" y1="100%" x2="0%" y2="0%">
      <stop offset="0%" style="stop-color:#000000;stop-opacity:1" />
      <stop offset="100%" style="stop-color:#000000;stop-opacity:0" />
    </linearGradient>
  </defs>
  <rect x="0" y="0" width="32" height="32" fill="url(#opacityGradient)"/>
  
  <title>opacity</title>
  <rect x="6" y="6" width="4" height="4"  />
  <rect x="10" y="10" width="4" height="4"/>
  <rect x="14" y="6" width="4" height="4" />
  <rect x="22" y="6" width="4" height="4" />
  <rect x="6" y="14" width="4" height="4" />
  <rect x="14" y="14" width="4" height="4"/>
  <rect x="22" y="14" width="4" height="4"/>
  <rect x="6" y="22" width="4" height="4" />
  <rect x="14" y="22" width="4" height="4"/>
  <rect x="22" y="22" width="4" height="4"/>
  <rect x="18" y="10" width="4" height="4"/>
  <rect x="10" y="18" width="4" height="4"/>
  <rect x="18" y="18" width="4" height="4"/>
</svg>