<svg id="backup_16" viewBox="0 0 16 16" fill="none" xmlns="http://www.w3.org/2000/svg">
<g opacity="0.2"><rect x="0" y="0" width="16" height="16" fill="#FFFFFF"/></g>
<path fill-rule="evenodd" clip-rule="evenodd" d="M6.37836 2.1156C7.71868 1.8364 9.11494 2.06712 10.2942 2.76265C11.4734 3.45819 12.3509 4.56854 12.755 5.87663C13.1591 7.18472 13.0608 8.5965 12.4793 9.83596C11.8978 11.0754 10.875 12.0535 9.61073 12.5789C8.34648 13.1043 6.93171 13.1393 5.64302 12.677C4.35433 12.2148 3.28438 11.2885 2.64232 10.0793C2.00027 8.87013 1.83228 7.46494 2.1712 6.13847L1.20233 5.89092C0.801785 7.45856 1.00031 9.11924 1.75911 10.5483C2.5179 11.9773 3.78239 13.072 5.30539 13.6183C6.82838 14.1646 8.50038 14.1233 9.9945 13.5023C11.4886 12.8814 12.6974 11.7255 13.3846 10.2607C14.0718 8.79586 14.188 7.12739 13.7104 5.58147C13.2328 4.03555 12.1959 2.72331 10.8022 1.90132C9.40856 1.07932 7.75843 0.806649 6.17443 1.13662C4.97278 1.38694 3.87472 1.97042 3.00009 2.8095V1.00001H2.00009V4.00001C2.00009 4.27616 2.22395 4.50001 2.50009 4.50001H5.44556V3.50001H3.72507C4.45973 2.80671 5.37649 2.32431 6.37836 2.1156Z" fill="currentColor"></path>
<path d="M9.5 9L7.5 8V4.5" stroke="currentColor"></path>
</svg>