<?xml version="1.0" encoding="iso-8859-1"?>
<!-- Uploaded to: SVG Repo, www.svgrepo.com, Generator: SVG Repo Mixer Tools -->
<svg fill="#000000" height="800px" width="800px" version="1.1" id="Layer_1" xmlns="http://www.w3.org/2000/svg" xmlns:xlink="http://www.w3.org/1999/xlink" viewBox="0 0 512 512" xml:space="preserve">
<g opacity="0.2"><rect x="0" y="0" width="512" height="512" fill="#FFFFFF"/></g>
<path d="M406.292,200.337c0.001-9.224-7.476-16.7-16.698-16.7c-3.256,0-6.553,0.997-9.263,2.804
c-17.432,11.619-37.463,17.416-57.535,17.42c-20.07-0.003-40.103-5.801-57.534-17.42c-0.003-0.002-0.008-0.004-0.012-0.007
c-23.015-15.342-49.551-23.026-76.049-23.022c-26.502-0.003-53.042,7.682-76.061,23.029l0.001,0.002
c-4.483,2.995-7.437,8.097-7.437,13.893c0,9.222,7.477,16.699,16.699,16.699c3.256,0,6.554-0.999,9.264-2.805
c17.431-11.619,37.463-17.416,57.533-17.42c20.07,0.003,40.103,5.801,57.534,17.42c23.018,15.347,49.558,23.033,76.06,23.029
c26.502,0.003,53.042-7.683,76.06-23.029l-0.001-0.001C403.338,211.235,406.292,206.133,406.292,200.337z"/>
<path d="M406.292,300.718c0.001-9.225-7.476-16.7-16.698-16.7c-3.256,0-6.553,0.997-9.263,2.804
c-17.432,11.619-37.463,17.416-57.535,17.42c-20.07-0.003-40.103-5.801-57.534-17.42c-0.003-0.002-0.008-0.004-0.012-0.007
c-23.015-15.342-49.551-23.026-76.049-23.022c-26.502-0.003-53.042,7.683-76.06,23.029l0.001,0.002
c-4.483,2.995-7.438,8.097-7.438,13.893c0,9.222,7.477,16.699,16.699,16.699c3.256,0,6.553-0.999,9.264-2.804
c17.432-11.619,37.463-17.417,57.533-17.421c20.07,0.003,40.103,5.801,57.534,17.42c23.018,15.347,49.558,23.033,76.06,23.029
c26.502,0.003,53.042-7.683,76.06-23.029l-0.001-0.001C403.338,311.616,406.292,306.514,406.292,300.718z"/>
</svg>