<?xml version="1.0" encoding="utf-8"?><!-- Uploaded to: SVG Repo, www.svgrepo.com, Generator: SVG Repo Mixer Tools -->
<svg fill="#000000" width="800px" height="800px" viewBox="0 0 256 256" id="Flat" xmlns="http://www.w3.org/2000/svg">
<g opacity="0.2"><rect x="0" y="0" width="256" height="256" fill="#FFFFFF"/></g>
  <path style="fill:#01B328;" d="M64,112a8,8,0,0,0,16,0V80h32a8,8,0,0,0,0-16H80V32a8,8,0,0,0-16,0V64H32a8,8,0,0,0,0,16H64Z"/>
  <path d="M205.65674,61.65674l-144,144a7.99984,7.99984,0,0,1-11.31348-11.31348l144-144a7.99984,7.99984,0,0,1,11.31348,11.31348Z"/>
  <path opacity="0.2" d="M136,184h80a8,8,0,0,0,0-16H136a8,8,0,0,0,0,16Z"/>
</svg>