<svg width="16" height="16" viewBox="0 0 16 16" fill="none" xmlns="http://www.w3.org/2000/svg">
<g opacity="0.2"><rect x="0" y="0" width="16" height="16" fill="#FFFFFF"/></g>
<path d="M15 8C15 11.866 11.866 15 8 15C4.13401 15 1 11.866 1 8C1 4.13401 4.13401 1 8 1C11.866 1 15 4.13401 15 8Z" stroke="#000000" stroke-linecap="round"/>
<path d="M8.89912 11.5C8.89912 11.997 8.49618 12.4 7.99912 12.4C7.50206 12.4 7.09912 11.997 7.09912 11.5C7.09912 11.0029 7.50206 10.6 7.99912 10.6C8.49618 10.6 8.89912 11.0029 8.89912 11.5Z" fill="#000000"/>
<path d="M6 6V6C6 4.89543 6.89543 4 8 4V4C9.10457 4 10 4.90042 10 6.00499V6.00499C10 7.10406 9.10902 8 8.00995 8V8C8.00445 8 8 8.00445 8 8.00995V9" stroke="#000000" stroke-width="1.2" stroke-linecap="round"/>
</svg>
