<?xml version="1.0" encoding="iso-8859-1"?>
<!-- Uploaded to: SVG Repo, www.svgrepo.com, Generator: SVG Repo Mixer Tools -->
<!DOCTYPE svg PUBLIC "-//W3C//DTD SVG 1.1//EN" "http://www.w3.org/Graphics/SVG/1.1/DTD/svg11.dtd">
<svg fill="#000000" version="1.1" id="Capa_1" xmlns="http://www.w3.org/2000/svg" xmlns:xlink="http://www.w3.org/1999/xlink" 
width="800px" height="800px" viewBox="0 0 50 50" xml:space="preserve">
<g opacity="0.2"><rect x="0" y="0" width="50" height="50" fill="#FFFFFF"/></g>
<path d="M38.529,26.286c3.226,0,6.259-1.259,8.542-3.542c3.551-3.55,4.531-9.013,2.437-13.596c-0.3-0.648-0.898-1.112-1.615-1.243
c-0.125-0.021-0.25-0.031-0.375-0.031c-0.584,0-1.134,0.227-1.55,0.641l-3.553,3.556l-1.658-0.128l-0.128-1.658l3.551-3.554
c0.509-0.503,0.736-1.229,0.609-1.941c-0.128-0.706-0.594-1.305-1.245-1.602c-1.572-0.719-3.316-1.098-5.047-1.098
c-3.226,0-6.26,1.256-8.544,3.537c-3.181,3.183-4.322,7.743-3.038,12.008l-1.594,1.594L8.815,2.725
c-0.706-0.706-1.955-0.706-2.661,0L0.551,8.329c-0.734,0.735-0.734,1.926,0,2.661l16.504,16.505L5.7,38.848
c-1.944,1.946-1.959,5.093-0.036,7.021l1.165,1.166c0.926,0.926,2.162,1.436,3.478,1.436c1.335,0,2.593-0.521,3.542-1.469
l14.591-14.592l16.803,15.547c0.368,0.367,0.849,0.552,1.331,0.552c0.481,0,0.963-0.185,1.331-0.552
c0.734-0.734,0.734-1.926,0-2.66L31.101,29.747l3.965-3.965C36.187,26.116,37.348,26.286,38.529,26.286z M4.543,9.659l2.942-2.942
l15.174,15.175l-2.942,2.942L4.543,9.659z M32.957,21.697L21.106,33.548h-0.01L10.745,43.898
c-0.123,0.121-0.276,0.187-0.444,0.187c-0.146,0-0.275-0.053-0.373-0.148l-1.165-1.165c-0.215-0.216-0.195-0.582,0.04-0.819
l10.118-10.117l0.231-0.237L31.008,19.74c0.64-0.647,0.816-1.601,0.449-2.429c-1.301-2.946-0.675-6.316,1.595-8.584
c1.394-1.395,3.229-2.188,5.191-2.251l-1.421,1.421c-0.456,0.454-0.688,1.08-0.64,1.722l0.35,4.533
c0.084,1.081,0.93,1.93,2.017,2.017l4.515,0.347c0.062,0.006,0.124,0.009,0.187,0.009c0.575,0,1.14-0.234,1.551-0.644l1.418-1.419
c-0.065,1.938-0.855,3.798-2.244,5.186c-1.454,1.456-3.39,2.257-5.446,2.257c-1.091-0.001-2.146-0.224-3.133-0.66
c-0.282-0.124-0.581-0.188-0.89-0.188C33.92,21.055,33.369,21.284,32.957,21.697z"/>
</svg>