<svg width="24" height="24" viewBox="0 0 24 24" fill="none" xmlns="http://www.w3.org/2000/svg">
<rect width="24" height="24" rx="12" fill="#8B98B8"/>
<path d="M9.36948 8.62047C9.36948 7.16817 10.5468 5.99084 11.9991 5.99084C13.4514 5.99084 14.6287 7.16817 14.6287 8.62047C14.6287 10.0728 13.4514 11.2501 11.9991 11.2501C10.5468 11.2501 9.36948 10.0728 9.36948 8.62047Z" fill="white"/>
<path fill-rule="evenodd" clip-rule="evenodd" d="M7.39928 14.8502C7.39928 13.292 8.38924 11.965 9.77453 11.4639C10.3948 11.9295 11.1656 12.2053 12.0008 12.2053C12.8361 12.2053 13.607 11.9294 14.2272 11.4637C15.6128 11.9647 16.603 13.2918 16.603 14.8502V15.5859H16.5971C16.4826 16.2829 14.4684 16.838 12.0004 16.838C9.53246 16.838 7.51826 16.2829 7.4037 15.5859H7.39928V15.5466C7.3988 15.5388 7.39856 15.531 7.39856 15.5232C7.39856 15.5153 7.3988 15.5075 7.39928 15.4997V14.8502Z" fill="white"/>
</svg>
