<?xml version="1.0" encoding="utf-8"?>
<!-- Generator: Adobe Illustrator 25.4.1, SVG Export Plug-In . SVG Version: 6.00 Build 0)  -->
<svg version="1.1" id="Layer_1" xmlns="http://www.w3.org/2000/svg" xmlns:xlink="http://www.w3.org/1999/xlink" x="0px" y="0px"
	 viewBox="0 0 800 800" style="enable-background:new 0 0 800 800;" xml:space="preserve">
<style type="text/css">
	.st0{fill:#15E900;}
	.st1{fill:#00D900;stroke:#007F07;stroke-width:8;stroke-miterlimit:10;}
	.st2{stroke:#000000;stroke-width:50;stroke-miterlimit:10;}
</style>
<g>
	<path class="st0" d="M631.7,640.8c-140.1,117.4-347.7,98-465.1-40.2C131,559,108.8,510.5,97.3,459.1l-56.4,6.5L129.2,258
		l133.6,181.7l-57.8,6.5c7.9,30.5,24,59.6,44.8,85.1c78.6,94.8,220.5,106.3,313.5,27.3c94.8-78.6,106.3-220.5,27.3-313.5
		c-78.6-94.8-220.5-106.3-313.5-27.3L207.8,136c140.1-117.4,349.1-98,465.1,40.2C789.4,315.8,770.4,523.4,631.7,640.8z"/>
	<g>
		<path class="st1" d="M265.5,407.8h259.2c10.8,0,19.4-8.8,19.4-19.4s-8.8-19.4-19.4-19.4H265.5c-10.8,0-19.4,8.8-19.4,19.4
			S254.7,407.8,265.5,407.8z"/>
		<path class="st2" d="M293.6,132.3c0-10.8-8.8-19.4-19.4-19.4H40.9c-10.8,0-19.4,8.8-19.4,19.4c0,10.8,8.8,19.4,19.4,19.4h233.3
			C284.9,151.7,293.6,142.9,293.6,132.3z"/>
		<path d="M219.7,294.3c-10.8,0-19.4,8.8-19.4,19.4c0,10.8,8.8,19.4,19.4,19.4h2.6c10.8,0,19.4-8.8,19.4-19.4
			c0-10.8-8.8-19.4-19.4-19.4H219.7z"/>
		<path class="st2" d="M40.9,333.3h103.7c10.8,0,19.4-8.8,19.4-19.4c0-10.8-8.8-19.4-19.4-19.4H40.9c-10.8,0-19.4,8.8-19.4,19.4
			S30.1,333.3,40.9,333.3z"/>
		<path class="st2" d="M504.2,652.2c0.1,10.8,9,19.3,19.6,19.2l233.3-1.9c10.8-0.1,19.3-9,19.2-19.6c-0.1-10.8-9-19.3-19.6-19.2
			l-233.3,1.9C512.7,632.7,504.1,641.6,504.2,652.2z"/>
		<path d="M576.8,489.6c10.8-0.1,19.3-9,19.2-19.6c-0.1-10.8-9-19.3-19.6-19.2l-2.6,0c-10.8,0.1-19.3,9-19.2,19.6
			c0.1,10.8,9,19.3,19.6,19.2L576.8,489.6z"/>
		<path class="st2" d="M755.2,449.1L651.5,450c-10.8,0.1-19.3,9-19.2,19.6c0.1,10.8,9,19.3,19.6,19.2l103.7-0.9
			c10.8-0.1,19.3-9,19.2-19.6S766,449,755.2,449.1z"/>
	</g>
</g>
</svg>
