<?xml version="1.0" encoding="utf-8"?>
<!-- Generator: Adobe Illustrator 28.4.1, SVG Export Plug-In . SVG Version: 6.00 Build 0)  -->
<svg version="1.1" id="Layer_1" xmlns="http://www.w3.org/2000/svg" xmlns:xlink="http://www.w3.org/1999/xlink" x="0px" y="0px"
	 viewBox="0 0 800 800" style="enable-background:new 0 0 800 800;" xml:space="preserve">
<style type="text/css">
	.st0{fill:none;stroke:#000000;stroke-width:20;stroke-miterlimit:125;stroke-dasharray:50,25;}
	.st1{fill:none;stroke:#000000;stroke-width:25;stroke-miterlimit:125;}
	.st2{fill:none;stroke:#000000;stroke-width:20;stroke-miterlimit:10;}
	.st3{fill:#FF7F50;}
	.st4{fill:none;stroke:#FFFFFF;stroke-width:20;stroke-miterlimit:10;}
</style>
<line class="st0" x1="796" y1="294" x2="8.7" y2="294"/>
<line class="st1" x1="8.7" y1="120.4" x2="796" y2="120.4"/>
<line class="st1" x1="8.7" y1="660.4" x2="796" y2="660.4"/>
<line class="st1" x1="15.5" y1="154.8" x2="158.3" y2="264"/>
<line class="st0" x1="168.8" y1="112" x2="168.8" y2="672.4"/>
<line class="st2" x1="92.2" y1="449.4" x2="92.2" y2="363.2"/>
<line class="st2" x1="296.9" y1="263.7" x2="296.9" y2="150.7"/>
<line class="st2" x1="50.3" y1="582.8" x2="50.3" y2="496.6"/>
<line class="st2" x1="92.2" y1="582.8" x2="92.2" y2="496.6"/>
<line class="st2" x1="425" y1="263.7" x2="425" y2="150.7"/>
<line class="st2" x1="466.2" y1="263.7" x2="466.2" y2="150.7"/>
<line class="st2" x1="640.6" y1="263.7" x2="640.6" y2="150.7"/>
<line class="st2" x1="607" y1="263.7" x2="607" y2="150.7"/>
<line class="st2" x1="573.5" y1="263.7" x2="573.5" y2="150.7"/>
<ellipse transform="matrix(0.7071 -0.7071 0.7071 0.7071 -196.703 557.2761)" class="st3" cx="574.3" cy="516.1" rx="100.3" ry="91.8"/>
<g>
	<path d="M514.4,456.2c36.2-36.2,92.3-38.7,125.4-5.6c33,33,30.5,89.3-5.6,125.4c-36.2,36.2-92.3,38.7-125.4,5.6
		C475.8,548.6,478.3,492.3,514.4,456.2 M504.4,446.2c-42.1,42.1-45.1,107.8-6.5,146.3c38.6,38.6,104.1,35.7,146.3-6.5
		c42.3-42.1,45.1-107.8,6.5-146.3C612.2,401,546.6,404,504.4,446.2L504.4,446.2z"/>
</g>
<line class="st4" x1="614.2" y1="556.1" x2="534.4" y2="476.1"/>
<line class="st4" x1="530.7" y1="559.8" x2="617.9" y2="472.4"/>
</svg>
