<?xml version="1.0" encoding="utf-8"?>
<!-- Generator: Adobe Illustrator 28.4.1, SVG Export Plug-In . SVG Version: 6.00 Build 0)  -->
<svg version="1.1" id="Layer_1" xmlns="http://www.w3.org/2000/svg" xmlns:xlink="http://www.w3.org/1999/xlink" x="0px" y="0px"
	 viewBox="0 0 800 800" style="enable-background:new 0 0 800 800;" xml:space="preserve">
<style type="text/css">
	.st0{fill:#90FF90;stroke:#000000;stroke-width:4;stroke-miterlimit:10;}
</style>
<g id="SVGRepo_bgCarrier">
</g>
<g id="SVGRepo_tracerCarrier">
</g>
<g id="SVGRepo_iconCarrier">
	<g>
		<g>
			<path class="st0" d="M726.3,191H590c-7.2,0-13,5.8-13,13v72.7c0,7.2,5.8,13,13,13h136.3c7.2,0,13-5.8,13-13V204
				C739.3,196.9,733.5,191,726.3,191z M713.3,263.7H603V217h110.3L713.3,263.7L713.3,263.7z"/>
		</g>
	</g>
	<g>
		<g>
			<path class="st0" d="M529.3,191H392.9c-7.2,0-13,5.8-13,13v36.3l0,0c0,0.1,0,0.1,0,0.2v36.2c0,7.2,5.8,13,13,13h136.3
				c7.2,0,13-5.8,13-13V204C542.3,196.9,536.4,191,529.3,191z M516.3,263.7H405.9v-23.3c0-0.1,0-0.1,0-0.2V217h110.3L516.3,263.7
				L516.3,263.7z"/>
		</g>
	</g>
	<g>
		<g>
			<path class="st0" d="M756.6,0H362.6c-23.9,0-43.4,19.4-43.4,43.4V197H172.6c-7.2,0-13,5.8-13,13c0,7.2,5.8,13,13,13h159.6
				c7.2,0,13-5.8,13-13V43.4c0-9.6,7.8-17.3,17.3-17.3h394.1c9.6,0,17.3,7.8,17.3,17.3v394.1c0,9.6-7.8,17.3-17.3,17.3H590
				c-7.2,0-13,5.8-13,13v288.9c0,9.6-7.8,17.3-17.3,17.3h-97.2c-7.2,0-13,5.8-13,13c0,7.2,5.8,13,13,13h97.2
				c23.9,0,43.4-19.4,43.4-43.4V480.8h153.7c23.9,0,43.4-19.4,43.4-43.4V43.4C800,19.4,780.6,0,756.6,0z"/>
		</g>
	</g>
	<g>
		<g>
			<path class="st0" d="M726.3,60.7H590c-7.2,0-13,5.8-13,13v69.6c0,7.2,5.8,13,13,13h136.3c7.2,0,13-5.8,13-13V73.7
				C739.3,66.5,733.5,60.7,726.3,60.7z M713.3,130.3H603V86.7h110.3L713.3,130.3L713.3,130.3z"/>
		</g>
	</g>
	<g>
		<g>
			<path class="st0" d="M726.3,324.4H590c-7.2,0-13,5.8-13,13v69.6c0,7.2,5.8,13,13,13h136.3c7.2,0,13-5.8,13-13v-69.6
				C739.3,330.3,733.5,324.4,726.3,324.4z M713.3,394.1H603v-43.6h110.3L713.3,394.1L713.3,394.1z"/>
		</g>
	</g>
	<g>
		<g>
			<path class="st0" d="M410.4,774h-367c-9.6,0-17.3-7.8-17.3-17.3V240.4c0-9.6,7.8-17.3,17.3-17.3h77.2c7.2,0,13-5.8,13-13
				c0-7.2-5.8-13-13-13H43.4C19.4,197,0,216.5,0,240.4v516.3C0,780.6,19.4,800,43.4,800h367c7.2,0,13-5.8,13-13S417.6,774,410.4,774
				z"/>
		</g>
	</g>
	<g>
		<g>
			<path class="st0" d="M529.3,60.7H392.9c-7.2,0-13,5.8-13,13v69.6c0,7.2,5.8,13,13,13h136.3c7.2,0,13-5.8,13-13V73.7
				C542.3,66.5,536.4,60.7,529.3,60.7z M516.3,130.3H405.9V86.7l0,0h110.3L516.3,130.3L516.3,130.3z"/>
		</g>
	</g>
	<g>
		<g>
			<path class="st0" d="M529.3,324.4H392.9c-7.2,0-13,5.8-13,13v69.6c0,7.2,5.8,13,13,13h136.3c7.2,0,13-5.8,13-13v-69.6
				C542.3,330.3,536.4,324.4,529.3,324.4z M516.3,394.1L516.3,394.1H405.9v-43.6h110.3V394.1z"/>
		</g>
	</g>
	<g>
		<g>
			<path class="st0" d="M529.3,454.8h-136h-30.6c-4.6,0-9-1.8-12.3-5.1c-3.3-3.3-5.1-7.6-5.1-12.3v-31.3V270.7c0-7.2-5.8-13-13-13
				H73.7c-7.2,0-13,5.8-13,13v455.6c0,7.2,5.8,13,13,13h455.6c7.2,0,13-5.8,13-13V467.8C542.3,460.6,536.4,454.8,529.3,454.8z
				 M320.9,449.6c1.2,4.1,3.1,8.1,5.4,11.7c4.7,7.1,11.5,12.9,19.4,16.2c0.1,0,0.2,0.1,0.2,0.1c4.8,1.9,9.9,3,15.1,3.2
				c0.2,0,0.5,0,0.7,0l-54.1,54.1c-2.4,2.4-3.8,5.7-3.8,9.2s1.4,6.8,3.8,9.2l32,32l-160.7,35.3L214.4,460l32,32
				c5.1,5.1,13.3,5.1,18.4,0l54.4-54.4c-0.6,0.6,0.2,4.7,0.3,5.5C319.8,445.2,320.3,447.4,320.9,449.6z M516.3,713.3H86.7V283.7
				h232.5v117l-63.6,63.6L216,424.8c-3.4-3.4-8.3-4.6-12.8-3.3c-4.6,1.3-8,5-9.1,9.7l-44.8,203.7c-1,4.3,0.4,8.9,3.5,12
				c2.5,2.5,5.8,3.8,9.2,3.8c0.9,0,1.9-0.1,2.8-0.3l203.7-44.8c4.6-1,8.4-4.5,9.7-9.1c1.3-4.6,0.1-9.5-3.3-12.8l-39.6-39.6
				l63.3-63.3h117.6V713.3z"/>
		</g>
	</g>
</g>
</svg>
