<?xml version="1.0" encoding="utf-8"?>
<!-- Generator: Adobe Illustrator 25.4.1, SVG Export Plug-In . SVG Version: 6.00 Build 0)  -->
<svg version="1.1" id="Layer_1" xmlns="http://www.w3.org/2000/svg" xmlns:xlink="http://www.w3.org/1999/xlink" x="0px" y="0px"
	 viewBox="0 0 800 800" style="enable-background:new 0 0 800 800;" xml:space="preserve">
<style type="text/css">
	.st0{fill:#F2F2F2;stroke:#000000;stroke-width:20;stroke-miterlimit:125;}
	.st1{opacity:0.25;}
	.st2{fill:#DBB065;}
	.st3{fill:#967A44;}
	.st4{fill:#F5CE85;}
	.st5{opacity:0.25;fill:none;stroke:#231F20;stroke-width:25;stroke-miterlimit:125;}
	.st6{opacity:0.25;fill:none;stroke:#231F20;stroke-width:20;stroke-miterlimit:125;}
	.st7{fill:none;stroke:#000000;stroke-width:25;stroke-miterlimit:125;}
	.st8{fill:none;stroke:#000000;stroke-width:20;stroke-miterlimit:125;}
</style>
<rect x="22.1" y="51.7" class="st0" width="755.7" height="216.5"/>
<g class="st1">
	<g>
		<path class="st2" d="M186.6,470.4V329.5h50.8l18.4,18.4H352v119.4c0,1.7-1.4,3.1-3.1,3.1H186.6z"/>
		<g>
			<path class="st3" d="M236.3,332.6l16.6,16.6l1.8,1.8h2.5h91.9v116.4H189.8V332.6H236.3 M238.8,326.5h-55.1v147H349
				c3.4,0,6.1-2.7,6.1-6.1V344.8h-98L238.8,326.5L238.8,326.5z"/>
		</g>
	</g>
	<g>
		<path class="st4" d="M186.6,470.4V360.1h53l18.4-12.3h94v119.4c0,1.7-1.4,3.1-3.1,3.1L186.6,470.4L186.6,470.4z"/>
		<g>
			<path class="st3" d="M349,351v116.4H189.8V363.2h49h1.9l1.5-1L259,351H349 M355.1,344.8h-98l-18.4,12.3h-55.1v116.4H349
				c3.4,0,6.1-2.7,6.1-6.1V344.8L355.1,344.8z"/>
		</g>
	</g>
</g>
<line class="st5" x1="409.5" y1="400" x2="730" y2="400"/>
<polyline class="st6" points="70,450.2 121.6,400 70,349.9 "/>
<g>
	<g>
		<path class="st2" d="M186.6,230.4V89.5h50.8l18.4,18.4H352v119.4c0,1.7-1.4,3.1-3.1,3.1L186.6,230.4L186.6,230.4z"/>
		<g>
			<path class="st3" d="M236.3,92.6l16.6,16.6l1.8,1.8h2.5h91.9v116.4H189.8V92.6H236.3 M238.8,86.5h-55.1v147H349
				c3.4,0,6.1-2.7,6.1-6.1V104.8h-98L238.8,86.5L238.8,86.5z"/>
		</g>
	</g>
	<g>
		<path class="st4" d="M186.6,230.4V120.1h53l18.4-12.3h94v119.4c0,1.7-1.4,3.1-3.1,3.1L186.6,230.4L186.6,230.4z"/>
		<g>
			<path class="st3" d="M349,111v116.4H189.8V123.2h49h1.9l1.5-1L259,111H349 M355.1,104.8h-98l-18.4,12.3h-55.1v116.4H349
				c3.4,0,6.1-2.7,6.1-6.1V104.8L355.1,104.8z"/>
		</g>
	</g>
</g>
<line class="st7" x1="409.5" y1="160" x2="730" y2="160"/>
<polyline class="st8" points="70,210.2 121.6,160 70,109.9 "/>
<g class="st1">
	<g>
		<path class="st2" d="M186.6,710.4V569.5h50.8l18.4,18.4H352v119.4c0,1.7-1.4,3.1-3.1,3.1H186.6z"/>
		<g>
			<path class="st3" d="M236.3,572.6l16.6,16.6l1.8,1.8h2.5h91.9v116.4H189.8V572.6H236.3 M238.8,566.5h-55.1v147H349
				c3.4,0,6.1-2.7,6.1-6.1V584.8h-98L238.8,566.5L238.8,566.5z"/>
		</g>
	</g>
	<g>
		<path class="st4" d="M186.6,710.4V600.1h53l18.4-12.3h94v119.4c0,1.7-1.4,3.1-3.1,3.1L186.6,710.4L186.6,710.4z"/>
		<g>
			<path class="st3" d="M349,591v116.4H189.8V603.2h49h1.9l1.5-1L259,591H349 M355.1,584.8h-98l-18.4,12.3h-55.1v116.4H349
				c3.4,0,6.1-2.7,6.1-6.1V584.8L355.1,584.8z"/>
		</g>
	</g>
</g>
<line class="st5" x1="409.5" y1="640" x2="730" y2="640"/>
<polyline class="st6" points="70,690.2 121.6,640 70,589.9 "/>
</svg>
