<?xml version="1.0" encoding="utf-8"?>
<!-- Generator: Adobe Illustrator 28.4.1, SVG Export Plug-In . SVG Version: 6.00 Build 0)  -->
<svg version="1.1" id="Layer_1" xmlns="http://www.w3.org/2000/svg" xmlns:xlink="http://www.w3.org/1999/xlink" x="0px" y="0px"
	 viewBox="0 0 800 800" style="enable-background:new 0 0 800 800;" xml:space="preserve">
<style type="text/css">
	.st0{fill:none;stroke:#939393;stroke-width:20;stroke-miterlimit:125;}
	.st1{fill:#DBB065;}
	.st2{fill:#967A44;}
	.st3{fill:#F5CE85;}
	.st4{fill:none;stroke:#AF8000;stroke-width:25;stroke-miterlimit:125;}
	.st5{fill:none;stroke:#AF8000;stroke-width:25;stroke-miterlimit:125;stroke-dasharray:50,25;}
	.st6{fill:none;stroke:#AF8000;stroke-width:25;stroke-miterlimit:125;stroke-dasharray:37.5,25;}
	.st7{opacity:0.25;fill:#C4C4C4;stroke:#F1FFBF;stroke-width:25;stroke-miterlimit:125;enable-background:new    ;}
	.st8{opacity:0.25;fill:#0FFFFF;stroke:#007DC9;stroke-width:25;stroke-miterlimit:125;enable-background:new    ;}
</style>
<g>
	<polyline class="st0" points="92.1,212.6 143.8,162.4 92.1,112.3 	"/>
	<g>
		<path class="st1" d="M182.9,227.3V86.4h50.8l18.4,18.4h96.2v119.4c0,1.7-1.4,3.1-3.1,3.1H182.9z"/>
		<g>
			<path class="st2" d="M232.5,89.5l16.6,16.6l1.8,1.8h2.5h91.9v116.4H186V89.5H232.5 M235,83.4h-55.1v147h165.4
				c3.4,0,6.1-2.7,6.1-6.1V101.7h-98L235,83.4L235,83.4z"/>
		</g>
	</g>
	<g>
		<path class="st3" d="M182.9,227.3V117h53l18.4-12.3h94v119.4c0,1.7-1.4,3.1-3.1,3.1H182.9V227.3z"/>
		<g>
			<path class="st2" d="M345.3,107.9v116.4H186V120.1h49h1.9l1.5-1l16.8-11.2H345.3 M351.4,101.7h-98L235,114h-55.1v116.4h165.4
				c3.4,0,6.1-2.7,6.1-6.1V101.7L351.4,101.7z"/>
		</g>
	</g>
	<g>
		<polyline class="st4" points="701.3,155.2 701.3,147.9 684.5,147.9 		"/>
		<line class="st5" x1="667.7" y1="147.9" x2="423.3" y2="147.9"/>
		<polyline class="st4" points="414.9,147.9 398,147.9 398,155.2 		"/>
		<line class="st6" x1="398" y1="162.4" x2="398" y2="173.3"/>
		<polyline class="st4" points="398,176.9 398,184.2 414.9,184.2 		"/>
		<line class="st5" x1="431.7" y1="184.2" x2="676.1" y2="184.2"/>
		<polyline class="st4" points="684.5,184.2 701.3,184.2 701.3,176.9 		"/>
		<line class="st6" x1="701.3" y1="173.3" x2="701.3" y2="158.8"/>
	</g>
</g>
<g>
	<g>
		<path class="st1" d="M182.9,465.3V324.4h50.8l18.4,18.4h96.2v119.4c0,1.7-1.4,3.1-3.1,3.1H182.9z"/>
		<g>
			<path class="st2" d="M232.5,327.5l16.6,16.6l1.8,1.8h2.5h91.9v116.4H186V327.5H232.5 M235,321.4h-55.1v147h165.4
				c3.4,0,6.1-2.7,6.1-6.1V339.7h-98L235,321.4L235,321.4z"/>
		</g>
	</g>
	<g>
		<path class="st3" d="M182.9,465.3V355h53l18.4-12.3h94v119.4c0,1.7-1.4,3.1-3.1,3.1L182.9,465.3L182.9,465.3z"/>
		<g>
			<path class="st2" d="M345.3,345.9v116.4H186V358.1h49h1.9l1.5-1l16.8-11.2L345.3,345.9 M351.4,339.7h-98L235,352h-55.1v116.4
				h165.4c3.4,0,6.1-2.7,6.1-6.1V339.7L351.4,339.7z"/>
		</g>
	</g>
	<g>
		<polyline class="st4" points="701.3,393.2 701.3,385.9 684.2,385.9 		"/>
		<line class="st5" x1="667" y1="385.9" x2="417.7" y2="385.9"/>
		<polyline class="st4" points="409.1,385.9 391.9,385.9 391.9,393.2 		"/>
		<line class="st6" x1="391.9" y1="400.4" x2="391.9" y2="411.3"/>
		<polyline class="st4" points="391.9,414.9 391.9,422.2 409.1,422.2 		"/>
		<line class="st5" x1="426.3" y1="422.2" x2="675.6" y2="422.2"/>
		<polyline class="st4" points="684.2,422.2 701.3,422.2 701.3,414.9 		"/>
		<line class="st6" x1="701.3" y1="411.3" x2="701.3" y2="396.8"/>
	</g>
	<polyline class="st0" points="92.1,450.6 143.8,400.4 92.1,350.3 	"/>
</g>
<g>
	<g>
		<path class="st1" d="M182.9,688.3V547.4h50.8l18.4,18.4h96.2v119.4c0,1.7-1.4,3.1-3.1,3.1H182.9z"/>
		<g>
			<path class="st2" d="M232.5,550.5l16.6,16.6l1.8,1.8h2.5h91.9v116.4H186V550.5H232.5 M235,544.4h-55.1v147h165.4
				c3.4,0,6.1-2.7,6.1-6.1V562.7h-98L235,544.4L235,544.4z"/>
		</g>
	</g>
	<g>
		<path class="st3" d="M182.9,688.3V578h53l18.4-12.3h94v119.4c0,1.7-1.4,3.1-3.1,3.1L182.9,688.3L182.9,688.3z"/>
		<g>
			<path class="st2" d="M345.3,568.9v116.4H186V581.1h49h1.9l1.5-1l16.8-11.2H345.3 M351.4,562.7h-98L235,575h-55.1v116.4h165.4
				c3.4,0,6.1-2.7,6.1-6.1V562.7L351.4,562.7z"/>
		</g>
	</g>
	<g>
		<polyline class="st4" points="692.8,616.2 692.8,608.9 676.2,608.9 		"/>
		<line class="st5" x1="659.7" y1="608.9" x2="419.8" y2="608.9"/>
		<polyline class="st4" points="411.5,608.9 395,608.9 395,616.2 		"/>
		<line class="st6" x1="395" y1="623.4" x2="395" y2="634.3"/>
		<polyline class="st4" points="395,637.9 395,645.2 411.5,645.2 		"/>
		<line class="st5" x1="428.1" y1="645.2" x2="668" y2="645.2"/>
		<polyline class="st4" points="676.2,645.2 692.8,645.2 692.8,637.9 		"/>
		<line class="st6" x1="692.8" y1="634.3" x2="692.8" y2="619.8"/>
	</g>
	<polyline class="st0" points="92.1,677.2 143.8,627 92.1,576.9 	"/>
</g>
<path class="st7" d="M645.3,496.3H152.7c-55.2,0-100-44.8-100-100l0,0c0-55.2,44.8-100,100-100h492.5c55.2,0,100,44.8,100,100l0,0
	C745.3,451.5,700.4,496.3,645.3,496.3z"/>
<path class="st8" d="M645.3,258.1H152.7c-55.2,0-100-44.8-100-100l0,0c0-55.2,44.8-100,100-100h492.5c55.2,0,100,44.8,100,100l0,0
	C745.3,213.4,700.4,258.1,645.3,258.1z"/>
</svg>
