<?xml version="1.0" encoding="utf-8"?>
<!-- Generator: Adobe Illustrator 25.4.1, SVG Export Plug-In . SVG Version: 6.00 Build 0)  -->
<svg version="1.1" id="Layer_1" xmlns="http://www.w3.org/2000/svg" xmlns:xlink="http://www.w3.org/1999/xlink" x="0px" y="0px"
	 viewBox="0 0 800 800" style="enable-background:new 0 0 800 800;" xml:space="preserve">
<style type="text/css">
	.st0{fill:#F2F2F2;stroke:#000000;stroke-width:20;stroke-miterlimit:125;}
	.st1{fill:none;stroke:#080000;stroke-width:20;stroke-miterlimit:125;}
	.st2{fill:#DBB065;}
	.st3{fill:#967A44;}
	.st4{fill:#F5CE85;}
	.st5{fill:none;stroke:#231F20;stroke-width:25;stroke-miterlimit:125;}
	.st6{fill:none;stroke:#231F20;stroke-width:20;stroke-miterlimit:125;}
	.st7{fill:none;stroke:#000000;stroke-width:25;stroke-miterlimit:125;}
</style>
<rect x="22.1" y="51.7" class="st0" width="755.7" height="216.5"/>
<polyline class="st1" points="57.9,134.1 108.1,185.8 158.2,134.1 "/>
<g>
	<g>
		<path class="st2" d="M305.8,470.4V329.5h50.8l18.4,18.4h96.2v119.4c0,1.7-1.4,3.1-3.1,3.1H305.8z"/>
		<g>
			<path class="st3" d="M355.4,332.6l16.6,16.6l1.8,1.8h2.5h91.9v116.4H308.9V332.6H355.4 M357.9,326.5h-55.1v147h165.4
				c3.4,0,6.1-2.7,6.1-6.1V344.8h-98L357.9,326.5L357.9,326.5z"/>
		</g>
	</g>
	<g>
		<path class="st4" d="M305.8,470.4V360.1h53l18.4-12.3h94v119.4c0,1.7-1.4,3.1-3.1,3.1L305.8,470.4L305.8,470.4z"/>
		<g>
			<path class="st3" d="M468.2,351v116.4H308.9V363.2h49h1.9l1.5-1l16.8-11.2L468.2,351 M474.3,344.8h-98l-18.4,12.3h-55.1v116.4
				h165.4c3.4,0,6.1-2.7,6.1-6.1V344.8L474.3,344.8z"/>
		</g>
	</g>
</g>
<line class="st5" x1="528.7" y1="400" x2="729.2" y2="400"/>
<polyline class="st6" points="189.3,450.2 240.8,400 189.3,349.9 "/>
<g>
	<g>
		<path class="st2" d="M198.8,230.4V89.5h50.8l18.4,18.4h96.2v119.4c0,1.7-1.4,3.1-3.1,3.1L198.8,230.4L198.8,230.4z"/>
		<g>
			<path class="st3" d="M248.4,92.6l16.6,16.6l1.8,1.8h2.5h91.9v116.4H201.9V92.6H248.4 M250.9,86.5h-55.1v147h165.4
				c3.4,0,6.1-2.7,6.1-6.1V104.8h-98L250.9,86.5L250.9,86.5z"/>
		</g>
	</g>
	<g>
		<path class="st4" d="M198.8,230.4V120.1h53l18.4-12.3h94v119.4c0,1.7-1.4,3.1-3.1,3.1L198.8,230.4L198.8,230.4z"/>
		<g>
			<path class="st3" d="M361.2,111v116.4H201.9V123.2h49h1.9l1.5-1l16.8-11.2H361.2 M367.3,104.8h-98l-18.4,12.3h-55.1v116.4h165.4
				c3.4,0,6.1-2.7,6.1-6.1V104.8L367.3,104.8z"/>
		</g>
	</g>
</g>
<line class="st7" x1="421.6" y1="160" x2="742.1" y2="160"/>
<g>
	<g>
		<path class="st2" d="M305.5,710.4V569.5h50.8l18.4,18.4h96.2v119.4c0,1.7-1.4,3.1-3.1,3.1H305.5z"/>
		<g>
			<path class="st3" d="M355.1,572.6l16.6,16.6l1.8,1.8h2.5H468v116.4H308.6V572.6H355.1 M357.6,566.5h-55.1v147h165.4
				c3.4,0,6.1-2.7,6.1-6.1V584.8h-98L357.6,566.5L357.6,566.5z"/>
		</g>
	</g>
	<g>
		<path class="st4" d="M305.5,710.4V600.1h53l18.4-12.3h94v119.4c0,1.7-1.4,3.1-3.1,3.1L305.5,710.4L305.5,710.4z"/>
		<g>
			<path class="st3" d="M467.9,591v116.4H308.6V603.2h49h1.9l1.5-1l16.8-11.2H467.9 M474,584.8h-98l-18.4,12.3h-55.1v116.4h165.4
				c3.4,0,6.1-2.7,6.1-6.1V584.8L474,584.8z"/>
		</g>
	</g>
</g>
<polyline class="st6" points="188.9,690.2 240.5,640 188.9,589.9 "/>
<line class="st5" x1="528.7" y1="649.2" x2="729.2" y2="649.2"/>
<line class="st5" x1="108" y1="400" x2="182.8" y2="400"/>
<line class="st5" x1="108" y1="640" x2="182.8" y2="640"/>
</svg>
