<?xml version="1.0" encoding="utf-8"?>
<!-- Generator: Adobe Illustrator 28.4.1, SVG Export Plug-In . SVG Version: 6.00 Build 0)  -->
<svg version="1.1" id="Layer_1" xmlns="http://www.w3.org/2000/svg" xmlns:xlink="http://www.w3.org/1999/xlink" x="0px" y="0px"
	 viewBox="0 0 800 800" style="enable-background:new 0 0 800 800;" xml:space="preserve">
<style type="text/css">
	.st0{fill:none;stroke:#939393;stroke-width:20;stroke-miterlimit:125;}
	.st1{fill:#DBB065;}
	.st2{fill:#967A44;}
	.st3{fill:#F5CE85;}
	.st4{fill:none;stroke:#AF8000;stroke-width:25;stroke-miterlimit:125;}
	.st5{fill:none;stroke:#AF8000;stroke-width:25;stroke-miterlimit:125;stroke-dasharray:50,25;}
	.st6{fill:none;stroke:#AF8000;stroke-width:25;stroke-miterlimit:125;stroke-dasharray:37.5,25;}
	.st7{opacity:0.25;fill:#C4C4C4;stroke:#F1FFBF;stroke-width:25;stroke-miterlimit:125;enable-background:new    ;}
	.st8{opacity:0.25;fill:#0FFFFF;stroke:#007DC9;stroke-width:25;stroke-miterlimit:125;enable-background:new    ;}
</style>
<polyline class="st0" points="33.4,195.1 83.6,246.8 133.7,195.1 "/>
<g>
	<path class="st1" d="M148.5,285.8V144.9h50.8l18.4,18.4h96.2v119.4c0,1.7-1.4,3.1-3.1,3.1H148.5z"/>
	<g>
		<path class="st2" d="M198.1,148l16.6,16.6l1.8,1.8h2.5h91.9v116.4H151.6V148H198.1 M200.6,141.9h-55.1v147h165.4
			c3.4,0,6.1-2.7,6.1-6.1V160.2h-98L200.6,141.9L200.6,141.9z"/>
	</g>
</g>
<g>
	<path class="st3" d="M148.5,285.8V175.5h53l18.4-12.3h94v119.4c0,1.7-1.4,3.1-3.1,3.1H148.5V285.8z"/>
	<g>
		<path class="st2" d="M310.9,166.4v116.4H151.6V178.6h49h1.9l1.5-1l16.8-11.2H310.9 M317,160.2h-98l-18.4,12.3h-55.1v116.4h165.4
			c3.4,0,6.1-2.7,6.1-6.1V160.2L317,160.2z"/>
	</g>
</g>
<g>
	<polyline class="st4" points="757.2,213.7 757.2,206.4 735.2,206.4 	"/>
	<line class="st5" x1="713.4" y1="206.4" x2="396.4" y2="206.4"/>
	<polyline class="st4" points="385.5,206.4 363.6,206.4 363.6,213.7 	"/>
	<line class="st6" x1="363.6" y1="220.9" x2="363.6" y2="231.8"/>
	<polyline class="st4" points="363.6,235.4 363.6,242.7 385.5,242.7 	"/>
	<line class="st5" x1="407.3" y1="242.7" x2="724.3" y2="242.7"/>
	<polyline class="st4" points="735.2,242.7 757.2,242.7 757.2,235.4 	"/>
	<line class="st6" x1="757.2" y1="231.8" x2="757.2" y2="217.3"/>
</g>
<g>
	<g>
		<path class="st1" d="M238.7,507.8V366.9h50.8l18.4,18.4h96.2v119.4c0,1.7-1.4,3.1-3.1,3.1H238.7z"/>
		<g>
			<path class="st2" d="M288.3,370l16.6,16.6l1.8,1.8h2.5h91.9v116.4H241.8V370H288.3 M290.8,363.9h-55.1v147h165.4
				c3.4,0,6.1-2.7,6.1-6.1V382.2h-98L290.8,363.9L290.8,363.9z"/>
		</g>
	</g>
	<g>
		<path class="st3" d="M238.7,507.8V397.5h53l18.4-12.3h94v119.4c0,1.7-1.4,3.1-3.1,3.1L238.7,507.8L238.7,507.8z"/>
		<g>
			<path class="st2" d="M401.1,388.4v116.4H241.8V400.6h49h1.9l1.5-1l16.8-11.2L401.1,388.4 M407.2,382.2h-98l-18.4,12.3h-55.1
				v116.4h165.4c3.4,0,6.1-2.7,6.1-6.1V382.2L407.2,382.2z"/>
		</g>
	</g>
	<g>
		<polyline class="st4" points="757.2,435.7 757.2,428.4 740,428.4 		"/>
		<line class="st5" x1="722.8" y1="428.4" x2="473.5" y2="428.4"/>
		<polyline class="st4" points="464.9,428.4 447.7,428.4 447.7,435.7 		"/>
		<line class="st6" x1="447.7" y1="442.9" x2="447.7" y2="453.8"/>
		<polyline class="st4" points="447.7,457.4 447.7,464.7 464.9,464.7 		"/>
		<line class="st5" x1="482.1" y1="464.7" x2="731.4" y2="464.7"/>
		<polyline class="st4" points="740,464.7 757.2,464.7 757.2,457.4 		"/>
		<line class="st6" x1="757.2" y1="453.8" x2="757.2" y2="439.3"/>
	</g>
	<polyline class="st0" points="147.9,493.1 199.6,442.9 147.9,392.8 	"/>
</g>
<path class="st7" d="M689,736.2H196.5c-55.2,0-100-44.8-100-100l0,0c0-55.2,44.8-100,100-100H689c55.2,0,100,44.8,100,100l0,0
	C789,691.4,744.2,736.2,689,736.2z"/>
<path class="st8" d="M674.1,324.5H128.2c-61.2,0-110.9-44.8-110.9-100l0,0c0-55.2,49.7-100,110.9-100h545.9
	c61.2,0,110.9,44.8,110.9,100l0,0C785,279.8,735.3,324.5,674.1,324.5z"/>
<g>
	<g>
		<path class="st1" d="M238.7,697.4V556.5h50.8l18.4,18.4h96.2v119.4c0,1.7-1.4,3.1-3.1,3.1H238.7z"/>
		<g>
			<path class="st2" d="M288.3,559.6l16.6,16.6l1.8,1.8h2.5h91.9v116.4H241.8V559.6H288.3 M290.8,553.5h-55.1v147h165.4
				c3.4,0,6.1-2.7,6.1-6.1V571.8h-98L290.8,553.5L290.8,553.5z"/>
		</g>
	</g>
	<g>
		<path class="st3" d="M238.7,697.4V587.1h53l18.4-12.3h94v119.4c0,1.7-1.4,3.1-3.1,3.1L238.7,697.4L238.7,697.4z"/>
		<g>
			<path class="st2" d="M401.1,578v116.4H241.8V590.2h49h1.9l1.5-1L311,578H401.1 M407.2,571.8h-98l-18.4,12.3h-55.1v116.4h165.4
				c3.4,0,6.1-2.7,6.1-6.1V571.8L407.2,571.8z"/>
		</g>
	</g>
	<g>
		<polyline class="st4" points="757.2,625.3 757.2,618 740,618 		"/>
		<line class="st5" x1="722.8" y1="618" x2="473.5" y2="618"/>
		<polyline class="st4" points="464.9,618 447.7,618 447.7,625.3 		"/>
		<line class="st6" x1="447.7" y1="632.5" x2="447.7" y2="643.4"/>
		<polyline class="st4" points="447.7,647 447.7,654.3 464.9,654.3 		"/>
		<line class="st5" x1="482.1" y1="654.3" x2="731.4" y2="654.3"/>
		<polyline class="st4" points="740,654.3 757.2,654.3 757.2,647 		"/>
		<line class="st6" x1="757.2" y1="643.4" x2="757.2" y2="628.9"/>
	</g>
	<polyline class="st0" points="147.9,682.7 199.6,632.5 147.9,582.4 	"/>
</g>
</svg>
