<!DOCTYPE svg PUBLIC "-//W3C//DTD SVG 1.1//EN" "http://www.w3.org/Graphics/SVG/1.1/DTD/svg11.dtd">

<!-- Uploaded to: SVG Repo, www.svgrepo.com, Transformed by: SVG Repo Mixer Tools -->
<svg width="800px" height="800px" viewBox="0 0 1920 1920" xmlns="http://www.w3.org/2000/svg">

<g id="SVGRepo_bgCarrier" stroke-width="0"/>

<g id="SVGRepo_tracerCarrier" stroke-linecap="round" stroke-linejoin="round"/>

<g id="SVGRepo_iconCarrier"> <path d="M 180 1800 h 1560 c 33 0 60 -26.88 60 -60 V 720 H 120 v 1020 c 0 33.12 27 60 60 60 Z M 120 180 v 420 h 480 V 120 H 180 c -33 0 -60 26.88 -60 60 Z m 600 -60 v 480 h 480 V 120 H 720 Z m 1080 60 c 0 -33.12 -27 -60 -60 -60 h -420 v 480 h 480 V 180 Z m 120 1560 c 0 99.24 -80.76 180 -180 180 H 180 c -99.24 0 -180 -80.76 -180 -180 V 180 C 0 80.76 80.76 0 180 0 h 1560 c 99.24 0 180 80.76 180 180 v 1560 Z m -510 -596.484 v 240 h -330 v -1.516 H 510 v -240 h 330 v 0.484 Z" stroke-width="100" stroke="#FF0000"/> </g>

</svg>