<svg id="Unhide" viewBox="0 0 16 16" fill="none" xmlns="http://www.w3.org/2000/svg"><mask id="path-1-inside-1_4239_3481" fill="white"><path fill-rule="evenodd" clip-rule="evenodd" d="M1.00001 8C2.26437 5.63156 4.92383 4 8.00001 4C11.0762 4 13.7356 5.63157 15 8C13.7356 10.3684 11.0762 12 8.00001 12C4.92383 12 2.26437 10.3684 1.00001 8Z"></path></mask><path d="M1 8L0.117832 7.52907L-0.133571 8L0.117832 8.47094L1 8ZM15 8L15.8822 8.47094L16.1336 8L15.8822 7.52907L15 8ZM1.88217 8.47094C2.9637 6.44499 5.27353 5 8 5V3C4.57411 3 1.56503 4.81814 0.117832 7.52907L1.88217 8.47094ZM8 5C10.7265 5 13.0363 6.44499 14.1178 8.47094L15.8822 7.52907C14.435 4.81814 11.4259 3 8 3V5ZM14.1178 7.52907C13.0363 9.55502 10.7265 11 8 11V13C11.4259 13 14.435 11.1819 15.8822 8.47094L14.1178 7.52907ZM8 11C5.27353 11 2.9637 9.55502 1.88217 7.52907L0.117832 8.47094C1.56503 11.1819 4.57411 13 8 13V11Z" fill="currentColor" mask="url(#path-1-inside-1_4239_3481)"></path><circle cx="8" cy="8" r="2" stroke="black"></circle></svg>