<?xml version="1.0" encoding="utf-8"?><!-- Uploaded to: SVG Repo, www.svgrepo.com, Generator: SVG Repo Mixer Tools -->
<svg width="800px" height="800px" viewBox="0 0 24 24" xmlns="http://www.w3.org/2000/svg">
  <path fill="none" stroke="#494c4e" stroke-linecap="round" stroke-width="2" d="M12.6 9h8.029a2.153 2.153 0 012.153 2.153v8.893a2.153 2.153 0 01-2.149 2.154h-10.48A2.153 2.153 0 018 20.045v-4.823"/>
  <path fill="none" stroke="#494c4e" stroke-linecap="round" stroke-width="2" d="M4.351 15.197h-.122A2.22 2.22 0 012 13.044V4.151a2.153 2.153 0 012.152-2.154h11.48a2.153 2.153 0 012.153 2.155v.964"/>
  <path fill="none" stroke="#494c4e" stroke-linecap="round" stroke-width="2" d="M7.285 8.5l6 6"/>
  <path fill="#23A24D" d="m 7.285 10.516 l -1.324 1.334 a 0.931 0.931 180 0 1 -0.65 0.267 a 0.934 0.934 180 0 1 -0.92 -0.92 v -4.6 a 0.923 0.923 180 0 1 0.92 -0.92 h 4.6 a 0.908 0.908 180 0 1 0.846 0.57 a 0.922 0.922 180 0 1 -0.193 1 l -1.335 1.328 l -0.313 0.322 z"/>
  <path fill="none" stroke="#23A24D" stroke-linecap="round" stroke-width="2" d="M4.351 15.197h-.122A2.22 2.22 0 012 13.044V4.151a2.153 2.153 0 012.152-2.154h11.48a2.153 2.153 0 012.153 2.155v.964"/>
</svg>