<?xml version="1.0" encoding="utf-8"?>

<!-- Uploaded to: SVG Repo, www.svgrepo.com, Generator: SVG Repo Mixer Tools -->
<svg fill="#000000" height="800px" width="800px" version="1.1" id="Layer_1" xmlns="http://www.w3.org/2000/svg" xmlns:xlink="http://www.w3.org/1999/xlink" 
	 viewBox="0 0 24 24" enable-background="new 0 0 24 24" xml:space="preserve">
<path d="M 13 3 H 4 V 9 v 0 h 18 v 14 H 4 v 3 h 28 V 7 L 17 7 z z M 21 18 v 2 h -1 h -1 h -1 v -8 h 2 v 6 H 21 z M 7 12 H 6 v 2 h 1 v 6 h 2 v -6 h 1 v -2 H 9 H 7 z M 15 12 l -1 1.61 L 13 12 v 0 h -2 v 8 h 2 v -4.21 l 1 1.61 l 1 -1.61 V 20 h 2 v -8 L 15 12 L 15 12 z M 3 15 H 2 v -3 H 0 v 8 h 2 v -3 h 1 v 3 h 2 v -8 H 3 V 15 z"/>
</svg>