<?xml version="1.0" encoding="utf-8"?><!-- Uploaded to: SVG Repo, www.svgrepo.com, Generator: SVG Repo Mixer Tools -->
<svg width="800px" height="800px" viewBox="0 0 16 16" xmlns="http://www.w3.org/2000/svg" fill="#000000"><path fill-rule="evenodd" clip-rule="evenodd" d="M 9.5 1.1 l 3.4 3.5 l 0.1 0.4 v 2 h -1 V 6 H 8 V 2 H 3 v 11 h 4 v 1 H 2.5 l -0.5 -0.5 v -12 l 0.5 -0.5 h 6.7 l 0.3 0.1 z M 9 2 v 3 h 2.9 L 9 2 z m 4 14 h -1 v -3 H 9 v -1 h 3 V 9 h 1 v 3 h 3 v 1 h -3 v 3 z z m -9 -10 L 7 6 L 7 5 L 4 5 L 4 6 z z m 0 3 L 11 9 L 11 10 L 4 10 L 4 9"/></svg>