<svg class="svg-icon" viewBox="0 0 600 600" version="1.1" xmlns="http://www.w3.org/2000/svg">
<path d="M256 545.912471v16.956235h288.015059V242.868706H256V545.912471z" fill="#FFFFFF" />
<path d="M0 512.632471V0l370.868706 371.832471h-216.937411l-13.131295 3.855059L0 512.602353z" fill="#FFFFFF" />
<path d="M290.575059 534.076235l-115.2 48.971294L25.6 228.171295l117.76-49.603765 147.215059 355.508705z" fill="#FFFFFF" />
<path d="M148.87153 276.299294l-59.000471 24.786823 99.087059 236.032 59.030588-24.756706-99.087058-236.062117zM287.015059 530.883764H511V274.883764H287.015059v256z m192-32.015059h-160.015059v-31.984941h160.015059v31.984941z m0-64h-160.015059v-31.984941h160.015059v31.984941z m0-64h-160.015059v-31.984941h160.015059v31.984941z" fill="#000000" />
<path d="M32.015059 77.101177v358.098823l95.021177-91.858823 13.763764-4.457412h152.335059L32.015059 77.101177z" fill="#000000" />
</svg>