<?xml version="1.0" encoding="utf-8"?>
<!-- Generator: Adobe Illustrator 25.4.1, SVG Export Plug-In . SVG Version: 6.00 Build 0)  -->
<svg version="1.1" id="Layer_1" xmlns="http://www.w3.org/2000/svg" xmlns:xlink="http://www.w3.org/1999/xlink" x="0px" y="0px"
	 viewBox="0 0 800 800" style="enable-background:new 0 0 800 800;" xml:space="preserve">
<style type="text/css">
	.st0{fill:#FFF59D;}
	.st1{fill:#FBC02D;}
	.st2{fill:#5C6BC0;}
	.st3{fill:#9FA8DA;}
</style>
<path class="st0" d="M66.7,366.7C66.6,550.8,215.8,700,399.9,700.1C584,700.1,733.3,551,733.3,366.9c0-0.1,0-0.1,0-0.2
	c0-184.1-149.2-333.3-333.3-333.4C215.9,33.3,66.7,182.5,66.7,366.7C66.7,366.6,66.7,366.6,66.7,366.7L66.7,366.7z"/>
<path class="st1" d="M616.7,366.7c0-128.3-110-230-241.7-215c-100,11.7-180,91.7-190,191.7c-8.3,76.7,23.3,145,76.7,188.3
	c23.3,20,38.3,48.3,38.3,80v5h200V615c0-30,13.3-60,36.7-80C585,495,616.7,435,616.7,366.7L616.7,366.7z"/>
<path class="st2" d="M350,733.3c0,27.6,22.4,50,50,50c27.6,0,50-22.4,50-50s-22.4-50-50-50C372.4,683.3,350,705.7,350,733.3z"/>
<path class="st3" d="M433.3,750h-66.7c-36.7,0-66.7-30-66.7-66.7V600h200v83.3C500,720,470,750,433.3,750z"/>
<path class="st2" d="M500,683.3L306.7,710c5,11.7,15,23.3,26.7,30L490,718.3C496.7,708.3,500,696.7,500,683.3L500,683.3z M300,645
	v33.3L500,650v-33.3L300,645z"/>
</svg>
