<?xml version="1.0" encoding="utf-8"?>
<!-- Generator: Adobe Illustrator 25.4.1, SVG Export Plug-In . SVG Version: 6.00 Build 0)  -->
<svg version="1.1" id="Layer_1" xmlns="http://www.w3.org/2000/svg" xmlns:xlink="http://www.w3.org/1999/xlink" x="0px" y="0px"
	 viewBox="0 0 800 800" style="enable-background:new 0 0 800 800;" xml:space="preserve">
<style type="text/css">
	.st0{fill-rule:evenodd;clip-rule:evenodd;}
</style>
<g id="Page-1">
	<g id="icon" transform="translate(64.000000, 64.000000)">
		<path id="Combined-Shape" class="st0" d="M569.3,436H636v66.7h-66.7V436z M169.3,569.3H236V636h-66.7V569.3z M302.7,569.3h66.7
			V636h-66.7V569.3z M169.3,36H236v66.7h-66.7V36z M436,569.3h66.7V636H436V569.3z M302.7,36h66.7v66.7h-66.7V36z M436,36h66.7v66.7
			H436V36z M569.3,302.7H636v66.7h-66.7V302.7z M36,436h66.7v66.7H36V436z M569.3,169.3H636V236h-66.7V169.3z M36,302.7h66.7v66.7
			H36V302.7z M36,169.3h66.7V236H36V169.3z M536,136v400H136V136H536z"/>
	</g>
</g>
</svg>
