<?xml version="1.0" encoding="utf-8"?>
<!-- Generator: Adobe Illustrator 25.4.1, SVG Export Plug-In . SVG Version: 6.00 Build 0)  -->
<svg version="1.1" id="Layer_1" xmlns="http://www.w3.org/2000/svg" xmlns:xlink="http://www.w3.org/1999/xlink" x="0px" y="0px"
	 viewBox="0 0 800 800" style="enable-background:new 0 0 800 800;" xml:space="preserve">
<style type="text/css">
	.st0{fill:none;stroke:#000000;stroke-width:45;stroke-miterlimit:133.3333;}
	.st1{fill:#00A651;}
</style>
<path d="M657.7,555.4c16.5-20.4,25.5-45.8,25.7-72.1c0-64.4-52.2-116.7-116.7-116.7S450,418.9,450,483.3l0,0
	c0.1,26.3,9.2,51.7,25.7,72.1c-30.6,15.7-56.6,39-75.7,67.6c-19-28.6-45.1-51.9-75.7-67.6c16.5-20.4,25.5-45.8,25.7-72.1
	c0-64.4-52.2-116.7-116.7-116.7s-116.7,52.2-116.7,116.7l0,0c0.1,26.3,9.2,51.7,25.7,72.1c-66.8,34.1-108.9,102.8-109,177.9
	c0,18.4,14.9,33.3,33.3,33.3h666.7c18.4,0,33.3-14.9,33.3-33.3C766.6,658.3,724.5,589.6,657.7,555.4z M233.3,433.3
	c27.6,0,50,22.4,50,50s-22.4,50-50,50s-50-22.4-50-50l0,0C183.3,455.7,205.7,433.3,233.3,433.3z M104.2,700
	c18.4-71.3,91.1-114.2,162.4-95.8c47,12.1,83.6,48.8,95.8,95.8H104.2z M566.7,433.3c27.6,0,50,22.4,50,50s-22.4,50-50,50
	s-50-22.4-50-50l0,0C516.7,455.7,539.1,433.3,566.7,433.3z M437.6,700c18.4-71.3,91.1-114.2,162.4-95.8c47,12.1,83.6,48.8,95.8,95.8
	H437.6z"/>
<path class="st0" d="M505,42H168.7c-96,0-96,0-96,92.4V319H505"/>
<path class="st0" d="M500.7,319h126.8c84.5,0,84.5,4.1,84.5-92.4V42H500.7"/>
<polygon points="661.5,128 661.5,103 261.5,103 261.5,153 661.5,153 "/>
<polygon points="528.5,214 528.5,189 128.5,189 128.5,239 528.5,239 "/>
<path class="st1" d="M700.1,474.6v-50h-50c-9.2,0-16.7-7.4-16.7-16.6s7.5-16.6,16.7-16.6h50v-50c0-9.2,7.4-16.7,16.6-16.7
	s16.6,7.5,16.6,16.7v50h50c9.2,0,16.7,7.4,16.7,16.6s-7.5,16.6-16.7,16.6h-50v50c0,9.2-7.4,16.6-16.6,16.6
	C707.5,491.3,700.1,483.9,700.1,474.6z"/>
<path class="st1" d="M386.6,474.6v-50h-50c-9.2,0-16.6-7.4-16.6-16.6s7.5-16.6,16.6-16.6h50v-50c0-9.2,7.5-16.7,16.6-16.7
	c9.2,0,16.6,7.5,16.6,16.7v50h50c9.2,0,16.6,7.4,16.6,16.6s-7.5,16.6-16.6,16.6h-50v50c0,9.2-7.5,16.6-16.6,16.6
	C394.1,491.3,386.6,483.9,386.6,474.6z"/>
<path d="M560.4,281.2V167.6h42.7c8.6,0,15.7,1.1,20.9,3.4c5.2,2.3,9.4,5.7,12.3,10.6c2.9,4.9,4.6,9.7,4.6,14.9c0,4.9-1.4,9.4-4,13.7
	c-2.6,4.3-6.6,7.7-12,10.3c6.9,2,12,5.4,15.7,10.3c3.7,4.9,5.4,10.6,5.4,17.2c0,5.4-1.1,10.3-3.4,14.9c-2.3,4.6-5.2,8-8.3,10.6
	c-3.4,2.6-7.4,4.3-12.3,5.7c-4.9,1.1-11.2,2-18.3,2L560.4,281.2L560.4,281.2z M575.3,215.4h24.6c6.6,0,11.4-0.6,14.3-1.4
	c3.7-1.1,6.6-3.1,8.6-5.7c2-2.6,2.9-6,2.9-10c0-3.7-0.9-7.2-2.6-10c-1.7-2.9-4.3-4.9-7.7-6c-3.4-1.1-9.2-1.7-17.2-1.7h-22.6v34.9
	H575.3z M575.3,267.8h28.3c4.9,0,8.3-0.3,10.3-0.6c3.4-0.6,6.3-1.7,8.6-3.1s4.3-3.4,5.7-6.3c1.4-2.9,2.3-6,2.3-9.4
	c0-4.3-1.1-8-3.1-11.2c-2.3-3.1-5.2-5.4-9.2-6.6c-3.7-1.1-9.4-2-16.6-2h-26.3V267.8z"/>
</svg>
