<?xml version="1.0" encoding="utf-8"?>
<!-- Generator: Adobe Illustrator 25.4.1, SVG Export Plug-In . SVG Version: 6.00 Build 0)  -->
<svg version="1.1" id="Layer_1" xmlns="http://www.w3.org/2000/svg" xmlns:xlink="http://www.w3.org/1999/xlink" x="0px" y="0px"
	 viewBox="0 0 800 800" style="enable-background:new 0 0 800 800;" xml:space="preserve">
<style type="text/css">
	.st0{fill:#ED1C24;}
</style>
<path d="M657.7,555.4c16.5-20.4,25.5-45.8,25.7-72.1c0-64.4-52.2-116.7-116.7-116.7S450,418.9,450,483.3l0,0
	c0.1,26.3,9.2,51.7,25.7,72.1c-30.6,15.7-56.6,39-75.7,67.6c-19-28.6-45.1-51.9-75.7-67.6c16.5-20.4,25.5-45.8,25.7-72.1
	c0-64.4-52.2-116.7-116.7-116.7s-116.7,52.2-116.7,116.7l0,0c0.1,26.3,9.2,51.7,25.7,72.1c-66.8,34.1-108.9,102.8-109,177.9
	c0,18.4,14.9,33.3,33.3,33.3h666.7c18.4,0,33.3-14.9,33.3-33.3C766.6,658.3,724.5,589.6,657.7,555.4z M233.3,433.3
	c27.6,0,50,22.4,50,50s-22.4,50-50,50s-50-22.4-50-50l0,0C183.3,455.7,205.7,433.3,233.3,433.3z M104.2,700
	c18.4-71.3,91.1-114.2,162.4-95.8c47,12.1,83.6,48.8,95.8,95.8H104.2z M566.7,433.3c27.6,0,50,22.4,50,50s-22.4,50-50,50
	s-50-22.4-50-50l0,0C516.7,455.7,539.1,433.3,566.7,433.3z M437.6,700c18.4-71.3,91.1-114.2,162.4-95.8c47,12.1,83.6,48.8,95.8,95.8
	H437.6z"/>
<path class="st0" d="M448.9,278.7l70.7-70.7l-70.7-70.7c-13-13-13-34.1,0-47.1s34.1-13,47.1,0l70.7,70.7l70.7-70.7
	c13-13,34.1-13,47.1,0c13,13,13,34.1,0,47.1L613.9,208l70.7,70.7c13,13,13,34.1,0,47.1s-34.1,13-47.1,0l-70.7-70.7L496,325.8
	c-13,13-34.1,13-47.1,0S435.9,291.7,448.9,278.7z"/>
</svg>
