<?xml version="1.0" encoding="utf-8"?>
<!-- Generator: Adobe Illustrator 25.4.1, SVG Export Plug-In . SVG Version: 6.00 Build 0)  -->
<svg version="1.1" id="Layer_1" xmlns="http://www.w3.org/2000/svg" xmlns:xlink="http://www.w3.org/1999/xlink" x="0px" y="0px"
	 viewBox="0 0 800 800" style="enable-background:new 0 0 800 800;" xml:space="preserve">
<style type="text/css">
	.st0{fill:#00A651;}
</style>
<path d="M133.3,200c0-73.6,59.7-133.3,133.3-133.3H300c18.4,0,33.3,14.9,33.3,33.3s-14.9,33.3-33.3,33.3h-33.3
	c-36.8,0-66.7,29.8-66.7,66.7v468.6l161.2-115.2c23.2-16.6,54.3-16.6,77.5,0L600,668.6V433.3c0-18.4,14.9-33.3,33.3-33.3
	s33.3,14.9,33.3,33.3v235.2c0,54.2-61.3,85.8-105.4,54.2L400,607.6L238.7,722.8c-44.1,31.5-105.4,0-105.4-54.2V200z"/>
<path class="st0" d="M566.7,100c0-18.4-14.9-33.3-33.3-33.3c-18.4,0-33.3,14.9-33.3,33.3v66.7h-66.7c-18.4,0-33.3,14.9-33.3,33.3
	s14.9,33.3,33.3,33.3H500V300c0,18.4,14.9,33.3,33.3,33.3c18.4,0,33.3-14.9,33.3-33.3v-66.7h66.7c18.4,0,33.3-14.9,33.3-33.3
	s-14.9-33.3-33.3-33.3h-66.7V100z"/>
</svg>
