<?xml version="1.0" encoding="utf-8"?>
<!-- Generator: Adobe Illustrator 25.4.1, SVG Export Plug-In . SVG Version: 6.00 Build 0)  -->
<svg version="1.1" id="Layer_1" xmlns="http://www.w3.org/2000/svg" xmlns:xlink="http://www.w3.org/1999/xlink" x="0px" y="0px"
	 viewBox="0 0 800 800" style="enable-background:new 0 0 800 800;" xml:space="preserve">
<style type="text/css">
	.st0{fill:#ED1C24;}
</style>
<path class="st0" d="M175.6,529.6L310.2,395L175.6,260.4c-24.8-24.8-24.8-64.9,0-89.7c24.8-24.8,64.9-24.8,89.7,0l134.6,134.6
	l134.6-134.6c24.8-24.8,64.9-24.8,89.7,0c24.8,24.8,24.8,64.9,0,89.7L489.8,395l134.6,134.6c24.8,24.8,24.8,64.9,0,89.7
	s-64.9,24.8-89.7,0L400.1,484.7L265.3,619.3c-24.8,24.8-64.9,24.8-89.7,0S150.9,554.4,175.6,529.6z"/>
<path d="M133.3,200c0-73.6,59.7-133.3,133.3-133.3H300c18.4,0,33.3,14.9,33.3,33.3s-14.9,33.3-33.3,33.3h-33.3
	c-36.8,0-66.7,29.8-66.7,66.7v468.6l161.2-115.2c23.2-16.6,54.3-16.6,77.5,0L600,668.6V433.3c0-18.4,14.9-33.3,33.3-33.3
	s33.3,14.9,33.3,33.3v235.2c0,54.2-61.3,85.8-105.4,54.2L400,607.6L238.7,722.8c-44.1,31.5-105.4,0-105.4-54.2L133.3,200L133.3,200z
	"/>
</svg>
