<?xml version="1.0" encoding="utf-8"?>
<!-- Generator: Adobe Illustrator 25.4.1, SVG Export Plug-In . SVG Version: 6.00 Build 0)  -->
<svg version="1.1" id="Layer_1" xmlns="http://www.w3.org/2000/svg" xmlns:xlink="http://www.w3.org/1999/xlink" x="0px" y="0px"
	 viewBox="0 0 800 800" xml:space="preserve">
<path d="M112.1,164.2c-2.8,2.9-2.8,4.8-2.8,100.1s0,97.2,2.8,100.1c2.6,2.6,4.7,2.9,21.3,2.9s18.8-0.3,21.3-2.9
	c2.7-2.7,2.8-4.8,2.8-52.6c0-27.4,0.4-49.7,1.1-49.7c0.6,0,8.7,13.4,17.9,29.8c30.6,54,41,71.7,43.2,73.5c1.6,1.3,8.4,1.9,22.5,1.9
	c17.8,0,20.6-0.3,23.5-2.7l3.4-2.7v-97.5v-97.5l-3.4-2.7c-2.8-2.3-5.7-2.7-20.8-2.7s-17.9,0.4-20.8,2.7l-3.4,2.7l-0.7,42.2
	l-0.7,42.2l-24.7-43.6c-18.2-32-25.7-43.9-28.2-44.9c-2-0.7-14.4-1.3-27.6-1.3C116.8,161.4,114.6,161.7,112.1,164.2z"/>
<path d="M330.6,163.2c-5.3,2-5.3,1.7-5.3,101.1c0,89.2,0.1,96,2.4,98.9c2.3,3,2.8,3,53.1,3.1c41.3,0,52.6-0.4,59.8-2.1
	c29.2-7.3,46.5-30.8,44.5-61.2c-0.9-14.4-5.5-24.7-15.8-35.2l-7.6-8l5.7-6c10.7-11.1,15.5-27.5,12.7-44.2c-2-12.6-6.3-21-15.2-30
	c-8.8-8.8-18.2-13.8-30.2-15.8C425.9,162.2,334.3,161.8,330.6,163.2z M420.2,214.9c4.4,4.7,4.9,9.6,1.9,15.8
	c-2.7,5.6-6.1,6.4-25.4,6.4h-16l-0.4-13.3l-0.4-13.1H398h18.3L420.2,214.9z M419.3,288.3c5.6,2.6,8.8,7.3,8.8,13.4
	c0,12.1-5.6,15-29.4,15.1l-18,0.1l-0.4-15.4l-0.4-15.3h17.5C409.2,286.3,416.2,286.9,419.3,288.3z"/>
<path d="M581.7,165c-3.5,2.1-2.7-0.4-35.3,117.3c-11.3,40.8-20.6,75.6-20.6,77.2c0,6.9,3.1,7.8,23.3,7.8c22.3,0,20.3,1.6,26.7-22.3
	l4.2-15.6h22.2h22.1l4.5,16.6c2.4,9.1,5.1,17.7,6.1,19c1.4,2,5,2.3,24.4,2.3c24.7,0,26.5-0.6,26.5-8c0-5.3-50.7-190.7-52.8-193.3
	C630.5,163.2,586.3,162.2,581.7,165z M606.9,262.4c1.7,7,3.2,13.7,3.2,14.6c0,1.3-2.5,1.9-8.2,1.9h-8.2l0.9-4
	c2.6-12.6,7.2-27.5,8.1-26.5C603.2,249,605,255.3,606.9,262.4z"/>
<path d="M375.1,626h-21.6V437.4H377v67.4c10.1-12.3,22.5-18.5,37.9-18.5c8.6,0,16.3,1.9,24,5.2c7.7,3.3,13.9,8.1,18.7,14.2
	c4.8,6.2,8.6,13.3,11.5,22.3c2.9,9,4.3,18,4.3,28c0,23.3-5.7,41.3-17.7,54.1c-11.5,12.8-25.9,19-42.2,19c-16.3,0-29.2-6.6-38.3-20.4
	L375.1,626L375.1,626z M375.1,556.7c0,16.6,2.4,28,6.7,35.6c7.2,11.9,17.2,18,29.7,18c10.1,0,19.2-4.3,26.4-13.3
	c7.7-9,11-21.8,11-39.4c0-18-3.4-30.9-10.5-39.4c-7.2-8.5-15.8-12.8-25.9-12.8c-10.1,0-19.2,4.3-26.4,13.3
	C378.4,527.2,375.1,540,375.1,556.7z"/>
<path d="M631.2,602.1c-7.2,6.7-14,11.6-20.8,14.7c-6.8,2.7-14,4-21.6,4c-12.8,0-22.4-3.6-29.2-10.2c-6.8-6.7-10-15.6-10-26.2
	c0-6.2,1.2-12,4-17.3c2.4-5.3,6-9.3,10-12.4c4-3.1,8.8-5.3,14-7.1c4-1.3,9.6-2.2,17.2-3.1c15.6-2.2,27.2-4.4,34.8-7.6
	c0-3.1,0-4.9,0-5.8c0-8.9-2-15.1-5.6-18.7c-4.8-4.9-12.4-7.6-22.4-7.6c-9.2,0-16,1.8-20.4,5.3s-7.6,9.8-9.6,19.1l-19.2-3.1
	c1.6-8.9,4.4-16.4,8.4-21.8c4-5.8,9.6-9.8,17.2-12.9c7.6-3.1,16.4-4.4,26-4.4c10,0,18,1.3,24,4c6,2.7,10.8,5.8,13.6,9.8
	c2.8,4,4.8,8.9,6,14.7c0.8,3.6,0.8,10.2,0.8,20v28.9c0,20,0.4,32.9,1.2,38.2c0.8,5.3,2.4,10.7,4.8,15.6H634
	C633.2,613.2,632,607.9,631.2,602.1z M629.6,553.6c-7.2,3.1-17.6,5.8-32,8c-8,1.3-13.6,2.7-17.2,4.4c-3.2,1.8-6,4-7.6,7.1
	c-1.6,3.1-2.8,6.7-2.8,10.2c0,5.8,2,10.7,6,14.7s9.6,5.8,17.2,5.8c7.6,0,14-1.8,20-5.3c6-3.6,10-8.4,12.8-15.1
	c2-4.9,3.2-12,3.2-21.8v-8H629.6z"/>
<path d="M112.1,435.5c-2.8,2.9-2.8,4.8-2.8,100.1s0,97.2,2.8,100.1c2.6,2.6,4.7,2.9,21.3,2.9s18.8-0.3,21.3-2.9
	c2.7-2.7,2.8-4.8,2.8-52.6c0-27.4,0.4-49.7,1.1-49.7c0.6,0,8.7,13.4,17.9,29.8c30.6,54,41,71.7,43.2,73.5c1.6,1.3,8.4,1.9,22.5,1.9
	c17.8,0,20.6-0.3,23.5-2.7l3.4-2.7v-97.5v-97.5l-3.4-2.7c-2.8-2.3-5.7-2.7-20.8-2.7s-17.9,0.4-20.8,2.7l-3.4,2.7l-0.7,42.2
	l-0.7,42.2l-24.7-43.6c-18.2-32-25.7-43.9-28.2-44.9c-2-0.7-14.4-1.3-27.6-1.3C116.8,432.6,114.6,432.9,112.1,435.5z"/>
</svg>
